<?xml version="1.0" encoding="utf-8"?>
<!-- Generator: Adobe Illustrator 27.5.0, SVG Export Plug-In . SVG Version: 6.00 Build 0)  -->
<svg version="1.1" id="Capa_1" xmlns="http://www.w3.org/2000/svg" xmlns:xlink="http://www.w3.org/1999/xlink" x="0px" y="0px"
	 viewBox="0 0 2122 2122" style="enable-background:new 0 0 2122 2122;" xml:space="preserve">
<g>
	<g>
		<g>
			<rect x="0.007" y="1060.665" style="fill:#EDE7CA;" width="2121.306" height="1060.648"/>
			<g>
				<g>
					<g>
						<g>
							<g>
								<rect x="175.947" y="1434.773" style="fill:#3B57A4;" width="703.594" height="22.251"/>
								<rect x="177.224" y="1358.554" style="fill:#3B57A4;" width="493.842" height="22.25"/>
								<rect x="175.947" y="1612.764" style="fill:#3B57A4;" width="128.33" height="22.25"/>
								<rect x="751.221" y="1612.764" style="fill:#3B57A4;" width="128.32" height="22.25"/>
								<rect x="350.766" y="1612.764" style="fill:#3B57A4;" width="354.345" height="22.25"/>
								<rect x="609.171" y="1548.799" style="fill:#3B57A4;" width="270.37" height="22.25"/>
								<rect x="175.947" y="1487.615" style="fill:#3B57A4;" width="217.879" height="22.246"/>
								<rect x="448.656" y="1487.615" style="fill:#3B57A4;" width="430.885" height="22.246"/>
								<rect x="175.947" y="1671.808" style="fill:#3B57A4;" width="217.879" height="22.246"/>
								<rect x="661.672" y="1671.808" style="fill:#3B57A4;" width="217.869" height="22.246"/>
								<rect x="448.871" y="1671.808" style="fill:#3B57A4;" width="160.301" height="22.246"/>
								<rect x="175.947" y="1548.799" style="fill:#3B57A4;" width="379.212" height="22.25"/>
							</g>
						</g>
					</g>
				</g>
			</g>
			<g>
				<g>
					<g>
						<path style="fill:#DA2616;" d="M633.509,1857.703c0,13.532-10.973,24.502-24.509,24.502H446.88
							c-13.536,0-24.511-10.97-24.511-24.502v-40.853c0-13.533,10.974-24.506,24.511-24.506h162.119
							c13.536,0,24.509,10.973,24.509,24.506V1857.703z"/>
						<path style="fill:#FFFFFF;" d="M608.999,1792.344H446.88c-8.025,0-15.127,3.871-19.596,9.836
							c3.601-2.09,7.775-3.306,12.244-3.306h162.124c13.532,0,24.506,10.973,24.506,24.51v40.85c0,5.511-1.836,10.579-4.914,14.679
							c7.327-4.246,12.266-12.145,12.266-21.208v-40.853C633.509,1803.318,622.535,1792.344,608.999,1792.344z"/>
					</g>
				</g>
				<g>
					<g>
						<path style="fill:#FFFFFF;" d="M463.688,1854.686v-1.967l8.044-0.869v2.05c0,4.017,2.046,6.462,5.358,6.462
							c3.311,0,5.361-2.049,5.361-5.281c0-3.467-1.417-5.99-7.647-11.904c-8.276-7.804-10.639-12.056-10.639-18.13
							c0-8.2,4.729-13.558,12.69-13.558c7.963,0,12.692,5.358,12.692,13.634v1.425l-8.04,0.862v-1.578
							c0-4.253-1.657-6.463-4.573-6.463c-2.918,0-4.572,1.814-4.572,5.281c0,3.468,1.734,5.99,7.648,11.904
							c8.04,8.04,10.639,12.064,10.639,18.13c0,7.887-5.517,13.558-13.478,13.558
							C469.209,1868.243,463.688,1862.573,463.688,1854.686z"/>
						<path style="fill:#FFFFFF;" d="M497.037,1855.158v-30.583c0-7.727,5.281-13.085,13.085-13.085
							c7.803,0,13.085,5.358,13.085,13.085v6.463h-8.2v-6.463c0-3.231-1.97-5.205-4.805-5.205c-2.839,0-4.809,1.974-4.809,5.205
							v30.583c0,3.231,1.97,5.204,4.809,5.204c2.835,0,4.805-1.973,4.805-5.204v-7.88h8.2v7.88c0,7.727-5.282,13.085-13.085,13.085
							C502.318,1868.243,497.037,1862.886,497.037,1855.158z"/>
						<path style="fill:#FFFFFF;" d="M547.334,1855.241h-8.989l-1.813,12.217h-8.353l9.142-55.182h11.195l9.145,55.182h-8.516
							L547.334,1855.241z M546.229,1847.202l-3.391-23.099l-3.388,23.099H546.229z"/>
						<path style="fill:#FFFFFF;" d="M564.126,1812.276h9.221l10.642,37.052v-37.052h8.2v55.182h-8.829l-11.039-35.315v35.315
							h-8.196V1812.276z"/>
					</g>
				</g>
			</g>
			<g>
				<g>
					<g>
						
							<line style="fill:none;stroke:#3B57A4;stroke-width:8.7326;stroke-miterlimit:10;" x1="147.108" y1="1923.035" x2="147.108" y2="1888.832"/>
					</g>
					<g>
						
							<line style="fill:none;stroke:#3B57A4;stroke-width:8.7326;stroke-miterlimit:10;" x1="164.205" y1="1905.931" x2="130.011" y2="1905.931"/>
					</g>
				</g>
				<g>
					<g>
						
							<line style="fill:none;stroke:#3B57A4;stroke-width:8.7326;stroke-miterlimit:10;" x1="1141.311" y1="1205.446" x2="1141.311" y2="1171.243"/>
					</g>
					<g>
						
							<line style="fill:none;stroke:#3B57A4;stroke-width:8.7326;stroke-miterlimit:10;" x1="1158.408" y1="1188.343" x2="1124.206" y2="1188.343"/>
					</g>
				</g>
				<g>
					<g>
						
							<line style="fill:none;stroke:#3B57A4;stroke-width:8.7326;stroke-miterlimit:10;" x1="1974.204" y1="2010.735" x2="1974.204" y2="1976.534"/>
					</g>
					<g>
						
							<line style="fill:none;stroke:#3B57A4;stroke-width:8.7326;stroke-miterlimit:10;" x1="1991.31" y1="1993.634" x2="1957.108" y2="1993.634"/>
					</g>
				</g>
				<g>
					<g>
						
							<line style="fill:none;stroke:#3B57A4;stroke-width:8.7326;stroke-miterlimit:10;" x1="904.412" y1="1782.853" x2="904.412" y2="1748.65"/>
					</g>
					<g>
						
							<line style="fill:none;stroke:#3B57A4;stroke-width:8.7326;stroke-miterlimit:10;" x1="921.51" y1="1765.743" x2="887.316" y2="1765.743"/>
					</g>
				</g>
				<path style="fill:none;stroke:#3B57A4;stroke-width:8.7326;stroke-miterlimit:10;" d="M167.969,1203.782
					c0,8.531,6.913,15.444,15.431,15.444c8.527,0,15.44-6.913,15.44-15.444c0-8.525-6.913-15.438-15.44-15.438
					C174.882,1188.344,167.969,1195.258,167.969,1203.782z"/>
				<path style="fill:none;stroke:#3B57A4;stroke-width:8.7326;stroke-miterlimit:10;" d="M601.953,1989.723
					c0,8.532,6.913,15.442,15.44,15.442s15.431-6.91,15.431-15.442c0-8.527-6.904-15.439-15.431-15.439
					S601.953,1981.196,601.953,1989.723z"/>
				<path style="fill:none;stroke:#3B57A4;stroke-width:8.7326;stroke-miterlimit:10;" d="M1944.711,1220.888
					c0,8.529,6.913,15.44,15.44,15.44c8.527,0,15.439-6.911,15.439-15.44c0-8.527-6.913-15.442-15.439-15.442
					C1951.624,1205.446,1944.711,1212.361,1944.711,1220.888z"/>
			</g>
		</g>
		<path style="fill:#C7C6C6;" d="M1699.372,1928.013c0,10.911-8.047,19.757-17.974,19.757h-263.401
			c-9.927,0-17.974-8.845-17.974-19.757l0,0c0-10.912,8.047-19.757,17.974-19.757h263.401
			C1691.325,1908.255,1699.372,1917.101,1699.372,1928.013L1699.372,1928.013z"/>
		<path style="fill:#C7C6C6;" d="M1252.006,1959.177c0,6.989-5.154,12.654-11.511,12.654h-168.692
			c-6.358,0-11.511-5.665-11.511-12.654l0,0c0-6.988,5.154-12.653,11.511-12.653h168.692
			C1246.852,1946.524,1252.006,1952.189,1252.006,1959.177L1252.006,1959.177z"/>
		<g>
			<g>
				<rect x="1475.099" y="1799.462" style="fill:#111329;" width="142.982" height="59.058"/>
				<polygon style="fill:#1D2342;" points="1618.08,1858.52 1475.099,1858.52 1428.47,1908.255 1670.926,1908.255 				"/>
				<path style="fill:#1D2342;" d="M1922.077,1780.338c0,15.808-12.813,28.625-28.623,28.625h-678.459
					c-15.81,0-28.63-12.817-28.63-28.625v-463.759c0-15.81,12.82-28.626,28.63-28.626h678.459c15.81,0,28.623,12.817,28.623,28.626
					V1780.338z"/>
				<rect x="1220.854" y="1321.544" style="fill:#61B9D9;" width="666.733" height="453.828"/>
				<polygon style="fill:#9EB9C9;" points="1220.854,1775.372 1220.854,1321.544 1887.587,1321.544 				"/>
				<rect x="1428.47" y="1908.255" style="fill:#252F56;" width="242.456" height="17.095"/>
			</g>
			<g>
				<rect x="1286.289" y="1393.407" style="fill:#1D2342;" width="253.985" height="303.81"/>
				<path style="fill:#017CA8;" d="M1517.391,1664.934c-9.908-3.049-61.014-20.593-63.302-26.698
					c-2.287-6.098-9.15-35.082-6.105-38.894c3.052-3.816,16.013-12.205,19.066-22.121c3.052-9.914,7.635-41.186,7.635-41.186
					s4.575,3.051,9.15,0c4.575-3.051,12.961-38.136,4.19-40.424c-8.765-2.291-14.105,3.051-14.105,3.051s0.302-30.546-0.765-38.135
					c-6.104-43.477-59.877-41.95-59.877-41.95s-53.772-1.526-59.87,41.95c-1.067,7.589-0.765,38.135-0.765,38.135
					s-5.333-5.342-14.104-3.051c-8.772,2.288-0.379,37.374,4.196,40.424c4.575,3.051,9.15,0,9.15,0s4.575,31.272,7.621,41.186
					c3.052,9.917,16.02,18.306,19.072,22.121c3.053,3.812-3.811,32.796-6.098,38.894c-2.295,6.105-53.393,23.649-63.308,26.698
					c-9.916,3.051-11.445,22.88-11.445,22.88h231.109C1528.836,1687.814,1527.307,1667.986,1517.391,1664.934z"/>
			</g>
			<g>
				<path style="fill:#1D2342;" d="M1635.489,1429.868h-53.288v53.283h53.288V1429.868z M1626.893,1474.556h-36.096v-36.096h36.096
					V1474.556z"/>
				<rect x="1597.365" y="1445.507" style="fill:#1D2342;" width="22.006" height="22.004"/>
				<rect x="1653.25" y="1429.868" style="fill:#1D2342;" width="17.768" height="17.762"/>
				<polygon style="fill:#1D2342;" points="1599.969,1518.673 1582.201,1518.673 1582.201,1536.43 1582.201,1554.194 
					1599.969,1554.194 1599.969,1536.43 				"/>
				<rect x="1617.729" y="1518.673" style="fill:#1D2342;" width="17.76" height="17.757"/>
				<rect x="1599.969" y="1500.911" style="fill:#1D2342;" width="17.76" height="17.762"/>
				<polygon style="fill:#1D2342;" points="1777.587,1518.673 1777.587,1500.911 1759.819,1500.911 1742.059,1500.911 
					1742.059,1518.673 1759.819,1518.673 1759.819,1536.43 1777.587,1536.43 1777.587,1554.194 1759.819,1554.194 
					1742.059,1554.194 1742.059,1536.43 1742.059,1518.673 1724.298,1518.673 1724.298,1500.911 1742.059,1500.911 
					1742.059,1483.151 1742.059,1465.39 1724.298,1465.39 1724.298,1447.63 1742.059,1447.63 1742.059,1429.868 1724.298,1429.868 
					1706.538,1429.868 1688.771,1429.868 1688.771,1447.63 1706.538,1447.63 1706.538,1465.39 1706.538,1483.151 1688.771,1483.151 
					1688.771,1500.911 1706.538,1500.911 1706.538,1518.673 1706.538,1536.43 1688.771,1536.43 1688.771,1554.194 
					1706.538,1554.194 1706.538,1571.954 1706.538,1589.714 1688.771,1589.714 1688.771,1607.475 1706.538,1607.475 
					1706.538,1625.234 1706.538,1642.994 1688.771,1642.994 1688.771,1660.755 1706.538,1660.755 1724.298,1660.755 
					1742.059,1660.755 1742.059,1642.994 1724.298,1642.994 1724.298,1625.234 1742.059,1625.234 1742.059,1607.475 
					1742.059,1589.714 1724.298,1589.714 1724.298,1571.954 1742.059,1571.954 1759.819,1571.954 1759.819,1589.714 
					1777.587,1589.714 1777.587,1571.954 1795.347,1571.954 1795.347,1589.714 1813.107,1589.714 1813.107,1571.954 
					1813.107,1554.194 1795.347,1554.194 1795.347,1536.43 1813.107,1536.43 1813.107,1518.673 1795.347,1518.673 				"/>
				<path style="fill:#1D2342;" d="M1759.819,1429.868v53.283h53.288v-53.283H1759.819z M1804.511,1474.556h-36.096v-36.096h36.096
					V1474.556z"/>
				<rect x="1774.976" y="1445.507" style="fill:#1D2342;" width="22.013" height="22.004"/>
				<path style="fill:#1D2342;" d="M1582.201,1660.755h53.288v-53.279h-53.288V1660.755z M1590.797,1616.068h36.096v36.096h-36.096
					V1616.068z"/>
				<rect x="1597.365" y="1623.113" style="fill:#1D2342;" width="22.006" height="22.004"/>
				<polygon style="fill:#1D2342;" points="1688.771,1607.475 1671.017,1607.475 1671.017,1589.714 1688.771,1589.714 
					1688.771,1571.954 1688.771,1554.194 1671.017,1554.194 1671.017,1536.43 1688.771,1536.43 1688.771,1518.673 
					1671.017,1518.673 1671.017,1500.911 1671.017,1483.151 1688.771,1483.151 1688.771,1465.39 1688.771,1447.63 1671.017,1447.63 
					1671.017,1465.39 1653.25,1465.39 1653.25,1483.151 1653.25,1500.911 1635.489,1500.911 1635.489,1518.673 1653.25,1518.673 
					1653.25,1536.43 1635.489,1536.43 1635.489,1554.194 1653.25,1554.194 1653.25,1571.954 1635.489,1571.954 1635.489,1554.194 
					1617.729,1554.194 1599.969,1554.194 1599.969,1571.954 1617.729,1571.954 1617.729,1589.714 1635.489,1589.714 
					1653.25,1589.714 1653.25,1607.475 1653.25,1625.234 1671.017,1625.234 1671.017,1642.994 1688.771,1642.994 1688.771,1625.234 
									"/>
				<rect x="1653.25" y="1642.994" style="fill:#1D2342;" width="17.768" height="17.761"/>
				<rect x="1582.201" y="1571.954" style="fill:#1D2342;" width="17.767" height="17.76"/>
				<path style="fill:#1D2342;" d="M1759.819,1660.755h53.288v-53.279h-53.288V1660.755z M1768.415,1616.068h36.096v36.096h-36.096
					V1616.068z"/>
				<rect x="1774.976" y="1623.113" style="fill:#1D2342;" width="22.013" height="22.004"/>
			</g>
		</g>
		<g>
			<path style="fill:#CACACA;" d="M1248.565,1687.627c0,3.427-2.779,6.206-6.21,6.206l0,0c-3.425,0-6.21-2.779-6.21-6.206v-26.294
				c0-3.426,2.786-6.207,6.21-6.207l0,0c3.431,0,6.21,2.781,6.21,6.207V1687.627z"/>
			<path style="fill:#CACACA;" d="M1248.565,1735.192c0,3.43-2.779,6.207-6.21,6.207l0,0c-3.425,0-6.21-2.777-6.21-6.207V1708.9
				c0-3.428,2.786-6.208,6.21-6.208l0,0c3.431,0,6.21,2.78,6.21,6.208V1735.192z"/>
			<path style="fill:#CACACA;" d="M1248.565,1910.069c0,3.428-2.779,6.207-6.21,6.207l0,0c-3.425,0-6.21-2.779-6.21-6.207v-26.291
				c0-3.43,2.786-6.209,6.21-6.209l0,0c3.431,0,6.21,2.779,6.21,6.209V1910.069z"/>
			<path style="fill:#CACACA;" d="M1239.555,1945.188c0,7.726-6.259,13.989-13.985,13.989h-142.701
				c-7.726,0-13.992-6.263-13.992-13.989v-302.187c0-7.726,6.266-13.991,13.992-13.991h142.701c7.726,0,13.985,6.265,13.985,13.991
				V1945.188z"/>
			<path style="fill:#FFFFFF;" d="M1244.691,1945.188c0,7.726-6.266,13.989-13.992,13.989h-142.7
				c-7.726,0-13.993-6.263-13.993-13.989v-302.187c0-7.726,6.267-13.991,13.993-13.991h142.7c7.726,0,13.992,6.265,13.992,13.991
				V1945.188z"/>
			<g>
				<path style="fill:#CACACA;" d="M1167.51,1645.101c0,1.675-1.361,3.032-3.031,3.032h-18.188c-1.67,0-3.032-1.357-3.032-3.032l0,0
					c0-1.673,1.361-3.031,3.032-3.031h18.188C1166.148,1642.069,1167.51,1643.427,1167.51,1645.101L1167.51,1645.101z"/>
				<path style="fill:#CACACA;" d="M1178.702,1645.101c0,1.675-1.361,3.032-3.031,3.032c-1.677,0-3.031-1.357-3.031-3.032
					c0-1.673,1.354-3.031,3.031-3.031C1177.341,1642.069,1178.702,1643.427,1178.702,1645.101z"/>
			</g>
			<rect x="1081.936" y="1659.789" style="fill:#4CC2F1;" width="154.826" height="256.487"/>
			<rect x="1081.936" y="1659.789" style="fill:#0097CA;" width="154.826" height="25.336"/>
			<path style="fill:#CACACA;" d="M1187.544,1948.385c0,1.838-2.287,3.331-5.115,3.331h-42.896c-2.821,0-5.116-1.493-5.116-3.331
				v-21.314c0-1.841,2.295-3.33,5.116-3.33h42.896c2.828,0,5.115,1.489,5.115,3.33V1948.385z"/>
			<g>
				<rect x="1112.264" y="1716.181" style="fill:#FFFFFF;" width="93.665" height="93.663"/>
				<polygon style="fill:#FFFFFF;" points="1212.693,1792.524 1212.693,1815.599 1188.61,1815.599 1188.61,1821.361 
					1217.928,1821.361 1217.928,1792.524 				"/>
				<polygon style="fill:#FFFFFF;" points="1129.582,1709.422 1106.51,1709.422 1106.51,1733.501 1100.749,1733.501 
					1100.749,1704.183 1129.582,1704.183 				"/>
				<g>
					<path style="fill:#1D2342;" d="M1138.438,1724.649h-17.704v17.706h17.704V1724.649z M1135.582,1739.5h-11.999v-11.997h11.999
						V1739.5z"/>
					<rect x="1125.765" y="1729.845" style="fill:#1D2342;" width="7.319" height="7.314"/>
					<rect x="1144.339" y="1724.649" style="fill:#1D2342;" width="5.902" height="5.901"/>
					<polygon style="fill:#1D2342;" points="1126.628,1754.16 1120.734,1754.16 1120.734,1760.063 1120.734,1765.964 
						1126.628,1765.964 1126.628,1760.063 					"/>
					<rect x="1132.537" y="1754.16" style="fill:#1D2342;" width="5.901" height="5.903"/>
					<rect x="1126.628" y="1748.258" style="fill:#1D2342;" width="5.909" height="5.902"/>
					<polygon style="fill:#1D2342;" points="1185.656,1754.16 1185.656,1748.258 1179.754,1748.258 1173.853,1748.258 
						1173.853,1754.16 1179.754,1754.16 1179.754,1760.063 1185.656,1760.063 1185.656,1765.964 1179.754,1765.964 
						1173.853,1765.964 1173.853,1760.063 1173.853,1754.16 1167.945,1754.16 1167.945,1748.258 1173.853,1748.258 
						1173.853,1742.355 1173.853,1736.454 1167.945,1736.454 1167.945,1730.55 1173.853,1730.55 1173.853,1724.649 
						1167.945,1724.649 1162.051,1724.649 1156.149,1724.649 1156.149,1730.55 1162.051,1730.55 1162.051,1736.454 
						1162.051,1742.355 1156.149,1742.355 1156.149,1748.258 1162.051,1748.258 1162.051,1754.16 1162.051,1760.063 
						1156.149,1760.063 1156.149,1765.964 1162.051,1765.964 1162.051,1771.865 1162.051,1777.768 1156.149,1777.768 
						1156.149,1783.67 1162.051,1783.67 1162.051,1789.571 1162.051,1795.474 1156.149,1795.474 1156.149,1801.376 
						1162.051,1801.376 1167.945,1801.376 1173.853,1801.376 1173.853,1795.474 1167.945,1795.474 1167.945,1789.571 
						1173.853,1789.571 1173.853,1783.67 1173.853,1777.768 1167.945,1777.768 1167.945,1771.865 1173.853,1771.865 
						1179.754,1771.865 1179.754,1777.768 1185.656,1777.768 1185.656,1771.865 1191.558,1771.865 1191.558,1777.768 
						1197.466,1777.768 1197.466,1771.865 1197.466,1765.964 1191.558,1765.964 1191.558,1760.063 1197.466,1760.063 
						1197.466,1754.16 1191.558,1754.16 					"/>
					<path style="fill:#1D2342;" d="M1179.754,1724.649v17.706h17.711v-17.706H1179.754z M1194.61,1739.5h-11.999v-11.997h11.999
						V1739.5z"/>
					<rect x="1184.793" y="1729.845" style="fill:#1D2342;" width="7.311" height="7.314"/>
					<path style="fill:#1D2342;" d="M1120.734,1801.376h17.704v-17.706h-17.704V1801.376z M1123.583,1786.526h11.999v11.995h-11.999
						V1786.526z"/>
					<rect x="1125.765" y="1788.866" style="fill:#1D2342;" width="7.319" height="7.313"/>
					<polygon style="fill:#1D2342;" points="1156.149,1783.67 1150.24,1783.67 1150.24,1777.768 1156.149,1777.768 
						1156.149,1771.865 1156.149,1765.964 1150.24,1765.964 1150.24,1760.063 1156.149,1760.063 1156.149,1754.16 1150.24,1754.16 
						1150.24,1748.258 1150.24,1742.355 1156.149,1742.355 1156.149,1736.454 1156.149,1730.55 1150.24,1730.55 1150.24,1736.454 
						1144.339,1736.454 1144.339,1742.355 1144.339,1748.258 1138.438,1748.258 1138.438,1754.16 1144.339,1754.16 
						1144.339,1760.063 1138.438,1760.063 1138.438,1765.964 1144.339,1765.964 1144.339,1771.865 1138.438,1771.865 
						1138.438,1765.964 1132.537,1765.964 1126.628,1765.964 1126.628,1771.865 1132.537,1771.865 1132.537,1777.768 
						1138.438,1777.768 1144.339,1777.768 1144.339,1783.67 1144.339,1789.571 1150.24,1789.571 1150.24,1795.474 
						1156.149,1795.474 1156.149,1789.571 					"/>
					<rect x="1144.339" y="1795.474" style="fill:#1D2342;" width="5.902" height="5.901"/>
					<rect x="1120.734" y="1771.865" style="fill:#1D2342;" width="5.894" height="5.903"/>
					<path style="fill:#1D2342;" d="M1179.754,1801.376h17.711v-17.706h-17.711V1801.376z M1182.611,1786.526h11.999v11.995h-11.999
						V1786.526z"/>
					<rect x="1184.793" y="1788.866" style="fill:#1D2342;" width="7.311" height="7.313"/>
				</g>
			</g>
			<g>
				<g>
					<path style="fill:#0472A4;" d="M1203.27,1862.141c0,5.137-4.168,9.302-9.305,9.302h-61.54c-5.137,0-9.298-4.165-9.298-9.302
						v-15.508c0-5.137,4.161-9.302,9.298-9.302h61.54c5.137,0,9.305,4.165,9.305,9.302V1862.141z"/>
					<path style="fill:#A0BECE;" d="M1193.964,1837.332h-61.54c-3.046,0-5.74,1.47-7.438,3.733c1.368-0.793,2.954-1.253,4.645-1.253
						h61.54c5.144,0,9.304,4.165,9.304,9.303v15.504c0,2.093-0.694,4.016-1.866,5.572c2.786-1.61,4.66-4.608,4.66-8.05v-15.508
						C1203.27,1841.496,1199.101,1837.332,1193.964,1837.332z"/>
				</g>
			</g>
			<path style="fill:#FFFFFF;" d="M1197.978,1896.407c0,6.53-5.298,11.822-11.824,11.822h-84.234
				c-6.526,0-11.823-5.292-11.823-11.822l0,0c0-6.531,5.298-11.822,11.823-11.822h84.234
				C1192.68,1884.585,1197.978,1889.876,1197.978,1896.407L1197.978,1896.407z"/>
			<path style="fill:#0472A4;" d="M1227.899,1896.407c0,6.53-5.291,11.822-11.824,11.822c-6.526,0-11.817-5.292-11.817-11.822
				c0-6.531,5.291-11.822,11.817-11.822C1222.608,1884.585,1227.899,1889.876,1227.899,1896.407z"/>
			<path style="fill:#FFFFFF;" d="M1169.699,1672.457c0,4.559-3.691,8.255-8.252,8.255h-68.143c-4.561,0-8.259-3.696-8.259-8.255
				l0,0c0-4.56,3.698-8.256,8.259-8.256h68.143C1166.008,1664.202,1169.699,1667.897,1169.699,1672.457L1169.699,1672.457z"/>
			<path style="fill:#0472A4;" d="M1232.271,1672.457c0,4.559-3.691,8.255-8.252,8.255c-4.561,0-8.259-3.696-8.259-8.255
				c0-4.56,3.698-8.256,8.259-8.256C1228.58,1664.202,1232.271,1667.897,1232.271,1672.457z"/>
			<path style="fill:#0472A4;" d="M1212.23,1672.457c0,4.559-3.698,8.255-8.259,8.255c-4.561,0-8.252-3.696-8.252-8.255
				c0-4.56,3.691-8.256,8.252-8.256C1208.532,1664.202,1212.23,1667.897,1212.23,1672.457z"/>
			<path style="fill:#0472A4;" d="M1192.182,1672.457c0,4.559-3.698,8.255-8.259,8.255c-4.554,0-8.252-3.696-8.252-8.255
				c0-4.56,3.698-8.256,8.252-8.256C1188.484,1664.202,1192.182,1667.897,1192.182,1672.457z"/>
			<g>
				<path style="fill:#FFFFFF;" d="M1213.795,1902.951c-0.653,0-1.277-0.339-1.621-0.94c-0.512-0.892-0.197-2.029,0.694-2.537
					l5.242-2.984l-5.276-3.172c-0.885-0.53-1.165-1.672-0.639-2.552c0.534-0.881,1.67-1.165,2.554-0.635l7.999,4.808
					c0.562,0.34,0.906,0.954,0.899,1.615c-0.007,0.66-0.365,1.269-0.941,1.594l-7.992,4.557
					C1214.419,1902.87,1214.104,1902.951,1213.795,1902.951z"/>
			</g>
			<g>
				<g>
					<path style="fill:#FFFFFF;" d="M1139.112,1860.988v-0.682l2.788-0.301v0.71c0,1.392,0.709,2.24,1.857,2.24
						c1.147,0,1.858-0.71,1.858-1.83c0-1.202-0.491-2.076-2.651-4.125c-2.868-2.705-3.687-4.179-3.687-6.284
						c0-2.842,1.639-4.699,4.398-4.699c2.76,0,4.399,1.857,4.399,4.726v0.493l-2.787,0.299v-0.547c0-1.474-0.574-2.24-1.584-2.24
						c-1.012,0-1.585,0.629-1.585,1.831c0,1.202,0.601,2.076,2.65,4.125c2.786,2.786,3.687,4.181,3.687,6.284
						c0,2.734-1.912,4.699-4.671,4.699S1139.112,1863.721,1139.112,1860.988z"/>
					<path style="fill:#FFFFFF;" d="M1150.67,1861.151v-10.6c0-2.678,1.83-4.535,4.535-4.535c2.704,0,4.535,1.857,4.535,4.535v2.24
						h-2.842v-2.24c0-1.12-0.682-1.803-1.665-1.803c-0.984,0-1.667,0.684-1.667,1.803v10.6c0,1.12,0.683,1.804,1.667,1.804
						c0.983,0,1.665-0.683,1.665-1.804v-2.731h2.842v2.731c0,2.678-1.831,4.535-4.535,4.535
						C1152.5,1865.686,1150.67,1863.829,1150.67,1861.151z"/>
					<path style="fill:#FFFFFF;" d="M1168.101,1861.18h-3.115l-0.629,4.234h-2.895l3.168-19.125h3.88l3.169,19.125h-2.951
						L1168.101,1861.18z M1167.719,1858.394l-1.175-8.006l-1.174,8.006H1167.719z"/>
					<path style="fill:#FFFFFF;" d="M1173.921,1846.289h3.196l3.688,12.842v-12.842h2.842v19.125h-3.06l-3.826-12.24v12.24h-2.841
						V1846.289z"/>
				</g>
			</g>
		</g>
	</g>
	<g>
		<g>
			<rect x="0.007" y="0.007" style="fill:#62C4DD;" width="2121.306" height="1060.638"/>
			<g>
				<g>
					<g>
						<g>
							<g>
								<rect x="1271.998" y="381.592" style="fill:#FFFFFF;" width="703.594" height="22.246"/>
								<rect x="1273.275" y="305.374" style="fill:#FFFFFF;" width="493.842" height="22.246"/>
								<rect x="1271.998" y="559.578" style="fill:#FFFFFF;" width="128.33" height="22.255"/>
								<rect x="1847.272" y="559.578" style="fill:#FFFFFF;" width="128.32" height="22.255"/>
								<rect x="1446.817" y="559.578" style="fill:#FFFFFF;" width="354.345" height="22.255"/>
								<rect x="1705.222" y="495.618" style="fill:#FFFFFF;" width="270.37" height="22.246"/>
								<rect x="1271.998" y="434.434" style="fill:#FFFFFF;" width="217.879" height="22.246"/>
								<rect x="1544.707" y="434.434" style="fill:#FFFFFF;" width="430.885" height="22.246"/>
								<rect x="1271.998" y="618.628" style="fill:#FFFFFF;" width="217.879" height="22.246"/>
								<rect x="1757.723" y="618.628" style="fill:#FFFFFF;" width="217.869" height="22.246"/>
								<rect x="1544.921" y="618.628" style="fill:#FFFFFF;" width="160.3" height="22.246"/>
								<rect x="1271.998" y="495.618" style="fill:#FFFFFF;" width="379.212" height="22.246"/>
							</g>
						</g>
					</g>
				</g>
			</g>
			<g>
				<g>
					<g>
						<path style="fill:#DA2616;" d="M1740.51,799.808c0,13.532-10.973,24.502-24.509,24.502h-162.119
							c-13.536,0-24.51-10.97-24.51-24.502v-40.854c0-13.533,10.974-24.506,24.51-24.506H1716c13.536,0,24.509,10.973,24.509,24.506
							V799.808z"/>
						<path style="fill:#FFFFFF;" d="M1716,734.448h-162.119c-8.025,0-15.127,3.871-19.596,9.836
							c3.601-2.09,7.775-3.306,12.244-3.306h162.124c13.532,0,24.506,10.973,24.506,24.51v40.85c0,5.511-1.836,10.579-4.914,14.679
							c7.327-4.245,12.266-12.145,12.266-21.208v-40.854C1740.51,745.421,1729.536,734.448,1716,734.448z"/>
					</g>
				</g>
				<g>
					<g>
						<path style="fill:#FFFFFF;" d="M1570.689,796.789v-1.967l8.043-0.868v2.049c0,4.017,2.047,6.463,5.358,6.463
							c3.312,0,5.361-2.05,5.361-5.281c0-3.467-1.417-5.99-7.647-11.903c-8.276-7.804-10.639-12.057-10.639-18.13
							c0-8.2,4.729-13.558,12.69-13.558c7.963,0,12.692,5.358,12.692,13.634v1.425l-8.04,0.862v-1.577
							c0-4.253-1.657-6.463-4.572-6.463c-2.919,0-4.572,1.814-4.572,5.281c0,3.467,1.734,5.99,7.648,11.903
							c8.04,8.04,10.639,12.064,10.639,18.13c0,7.887-5.517,13.558-13.478,13.558
							C1576.21,810.347,1570.689,804.677,1570.689,796.789z"/>
						<path style="fill:#FFFFFF;" d="M1604.038,797.262v-30.583c0-7.727,5.281-13.085,13.085-13.085
							c7.803,0,13.085,5.358,13.085,13.085v6.463h-8.2v-6.463c0-3.231-1.97-5.205-4.805-5.205c-2.838,0-4.808,1.973-4.808,5.205
							v30.583c0,3.232,1.97,5.205,4.808,5.205c2.836,0,4.805-1.973,4.805-5.205v-7.88h8.2v7.88c0,7.727-5.282,13.086-13.085,13.086
							C1609.319,810.347,1604.038,804.989,1604.038,797.262z"/>
						<path style="fill:#FFFFFF;" d="M1654.335,797.346h-8.989l-1.813,12.216h-8.353l9.142-55.182h11.195l9.145,55.182h-8.516
							L1654.335,797.346z M1653.23,789.305l-3.391-23.099l-3.388,23.099H1653.23z"/>
						<path style="fill:#FFFFFF;" d="M1671.127,754.38h9.221l10.642,37.052V754.38h8.2v55.182h-8.829l-11.039-35.315v35.315h-8.196
							V754.38z"/>
					</g>
				</g>
			</g>
			<g>
				<g>
					<g>
						
							<line style="fill:none;stroke:#FFFFFF;stroke-width:7.3285;stroke-miterlimit:10;" x1="1943.054" y1="865.124" x2="1943.054" y2="830.922"/>
					</g>
					<g>
						
							<line style="fill:none;stroke:#FFFFFF;stroke-width:7.3285;stroke-miterlimit:10;" x1="1925.957" y1="848.021" x2="1960.151" y2="848.021"/>
					</g>
				</g>
				<g>
					<g>
						
							<line style="fill:none;stroke:#FFFFFF;stroke-width:7.3285;stroke-miterlimit:10;" x1="948.851" y1="147.536" x2="948.851" y2="113.332"/>
					</g>
					<g>
						
							<line style="fill:none;stroke:#FFFFFF;stroke-width:7.3285;stroke-miterlimit:10;" x1="931.754" y1="130.432" x2="965.957" y2="130.432"/>
					</g>
				</g>
				<g>
					<g>
						
							<line style="fill:none;stroke:#FFFFFF;stroke-width:7.3285;stroke-miterlimit:10;" x1="115.958" y1="952.825" x2="115.958" y2="918.624"/>
					</g>
					<g>
						
							<line style="fill:none;stroke:#FFFFFF;stroke-width:7.3285;stroke-miterlimit:10;" x1="98.852" y1="935.723" x2="133.055" y2="935.723"/>
					</g>
				</g>
				<g>
					<g>
						
							<line style="fill:none;stroke:#FFFFFF;stroke-width:7.3285;stroke-miterlimit:10;" x1="1185.75" y1="724.942" x2="1185.75" y2="690.739"/>
					</g>
					<g>
						
							<line style="fill:none;stroke:#FFFFFF;stroke-width:7.3285;stroke-miterlimit:10;" x1="1168.653" y1="707.832" x2="1202.847" y2="707.832"/>
					</g>
				</g>
				<path style="fill:none;stroke:#FFFFFF;stroke-width:7.3285;stroke-miterlimit:10;" d="M1922.194,145.872
					c0,8.531-6.913,15.444-15.431,15.444c-8.527,0-15.44-6.913-15.44-15.444c0-8.525,6.913-15.438,15.44-15.438
					C1915.281,130.434,1922.194,137.347,1922.194,145.872z"/>
				<path style="fill:none;stroke:#FFFFFF;stroke-width:7.3285;stroke-miterlimit:10;" d="M1488.21,931.813
					c0,8.531-6.913,15.442-15.44,15.442s-15.431-6.911-15.431-15.442c0-8.527,6.904-15.44,15.431-15.44
					S1488.21,923.285,1488.21,931.813z"/>
				<path style="fill:none;stroke:#FFFFFF;stroke-width:7.3285;stroke-miterlimit:10;" d="M180.367,256.022
					c0,8.529-6.913,15.44-15.44,15.44c-8.527,0-15.44-6.911-15.44-15.44c0-8.527,6.913-15.442,15.44-15.442
					C173.453,240.58,180.367,247.495,180.367,256.022z"/>
			</g>
		</g>
		<path style="fill:#7EB6D2;" d="M1115.755,838.087c0,29.141-24.662,52.765-55.084,52.765H253.436
			c-30.422,0-55.084-23.624-55.084-52.765l0,0c0-29.141,24.662-52.765,55.084-52.765h807.234
			C1091.093,785.323,1115.755,808.946,1115.755,838.087L1115.755,838.087z"/>
		<g>
			<g>
				<g>
					<path style="fill:#EDEDED;" d="M1029.106,239.328c37.915,0,68.638,30.734,68.638,68.642v454.067
						c0,37.911-30.723,68.641-68.638,68.641h-734.86c-37.915,0-68.645-30.73-68.645-68.641V307.97
						c0-37.907,30.73-68.642,68.645-68.642H1029.106z"/>
					<path style="fill:#EDEDED;" d="M922.308,310.385c-24.6,78.265-70.292,150.325-131.099,205.438
						c-55.153,49.984-121.683,84.32-192.605,105.956c-70.93,21.636-146.268,32.805-220.074,38.69
						c-35.415,2.823-71.091,0.719-106.575,1.288c-14.939,0.24-30.746,0.443-46.353,2.062v98.217
						c0,37.909,30.73,68.641,68.645,68.641h734.86c37.915,0,68.638-30.732,68.638-68.641V307.97
						c0-37.907-30.723-68.642-68.638-68.642h-90.891C934.753,263.282,929.646,287.018,922.308,310.385z"/>
					<path style="fill:#FFFFFF;" d="M225.601,307.97v454.067c0,22.477,10.854,42.365,27.546,54.888
						c-5.839-10.102-9.239-21.786-9.239-34.294V328.562c0-37.905,30.73-68.64,68.638-68.64h734.868
						c15.431,0,29.63,5.154,41.092,13.756c-11.869-20.513-33.999-34.35-59.399-34.35h-734.86
						C256.331,239.328,225.601,270.063,225.601,307.97z"/>
				</g>
			</g>
			<g>
				<g>
					<path style="fill:#1D2342;" d="M455.052,431.682h-28.5v28.5h28.5V431.682z M450.46,455.585h-19.307v-19.307h19.307V455.585z"/>
					<rect x="434.66" y="440.045" style="fill:#1D2342;" width="11.769" height="11.772"/>
					<rect x="464.551" y="431.682" style="fill:#1D2342;" width="9.508" height="9.5"/>
					<polygon style="fill:#1D2342;" points="436.052,479.183 426.552,479.183 426.552,488.683 426.552,498.185 436.052,498.185 
						436.052,488.683 					"/>
					<rect x="445.552" y="479.183" style="fill:#1D2342;" width="9.5" height="9.5"/>
					<rect x="436.052" y="469.684" style="fill:#1D2342;" width="9.499" height="9.5"/>
					<polygon style="fill:#1D2342;" points="531.059,479.183 531.059,469.684 521.559,469.684 512.059,469.684 512.059,479.183 
						521.559,479.183 521.559,488.683 531.059,488.683 531.059,498.185 521.559,498.185 512.059,498.185 512.059,488.683 
						512.059,479.183 502.559,479.183 502.559,469.684 512.059,469.684 512.059,460.182 512.059,450.682 502.559,450.682 
						502.559,441.182 512.059,441.182 512.059,431.682 502.559,431.682 493.059,431.682 483.559,431.682 483.559,441.182 
						493.059,441.182 493.059,450.682 493.059,460.182 483.559,460.182 483.559,469.684 493.059,469.684 493.059,479.183 
						493.059,488.683 483.559,488.683 483.559,498.185 493.059,498.185 493.059,507.683 493.059,517.185 483.559,517.185 
						483.559,526.682 493.059,526.682 493.059,536.183 493.059,545.685 483.559,545.685 483.559,555.185 493.059,555.185 
						502.559,555.185 512.059,555.185 512.059,545.685 502.559,545.685 502.559,536.183 512.059,536.183 512.059,526.682 
						512.059,517.185 502.559,517.185 502.559,507.683 512.059,507.683 521.559,507.683 521.559,517.185 531.059,517.185 
						531.059,507.683 540.559,507.683 540.559,517.185 550.066,517.185 550.066,507.683 550.066,498.185 540.559,498.185 
						540.559,488.683 550.066,488.683 550.066,479.183 540.559,479.183 					"/>
					<path style="fill:#1D2342;" d="M521.559,431.682v28.5h28.507v-28.5H521.559z M545.466,455.585h-19.308v-19.307h19.308V455.585z
						"/>
					<rect x="529.666" y="440.045" style="fill:#1D2342;" width="11.777" height="11.772"/>
					<path style="fill:#1D2342;" d="M426.552,555.185h28.5v-28.502h-28.5V555.185z M431.152,531.281h19.307v19.309h-19.307V531.281z
						"/>
					<rect x="434.66" y="535.05" style="fill:#1D2342;" width="11.769" height="11.771"/>
					<polygon style="fill:#1D2342;" points="483.559,526.682 474.059,526.682 474.059,517.185 483.559,517.185 483.559,507.683 
						483.559,498.185 474.059,498.185 474.059,488.683 483.559,488.683 483.559,479.183 474.059,479.183 474.059,469.684 
						474.059,460.182 483.559,460.182 483.559,450.682 483.559,441.182 474.059,441.182 474.059,450.682 464.551,450.682 
						464.551,460.182 464.551,469.684 455.052,469.684 455.052,479.183 464.551,479.183 464.551,488.683 455.052,488.683 
						455.052,498.185 464.551,498.185 464.551,507.683 455.052,507.683 455.052,498.185 445.552,498.185 436.052,498.185 
						436.052,507.683 445.552,507.683 445.552,517.185 455.052,517.185 464.551,517.185 464.551,526.682 464.551,536.183 
						474.059,536.183 474.059,545.685 483.559,545.685 483.559,536.183 					"/>
					<rect x="464.551" y="545.685" style="fill:#1D2342;" width="9.508" height="9.5"/>
					<rect x="426.552" y="507.683" style="fill:#1D2342;" width="9.5" height="9.502"/>
					<path style="fill:#1D2342;" d="M521.559,555.185h28.507v-28.502h-28.507V555.185z M526.159,531.281h19.308v19.309h-19.308
						V531.281z"/>
					<rect x="529.666" y="535.05" style="fill:#1D2342;" width="11.777" height="11.771"/>
				</g>
				<g>
					<path style="fill:#9B9B9A;" d="M762.509,368.389c0,9.906-8.03,17.936-17.93,17.936c-9.908,0-17.938-8.031-17.938-17.936
						c0-9.904,8.031-17.936,17.938-17.936C754.479,350.452,762.509,358.484,762.509,368.389z"/>
					<path style="fill:#6B6B6A;" d="M753.61,368.389c0,4.992-4.046,9.038-9.031,9.038c-4.992,0-9.038-4.046-9.038-9.038
						c0-4.992,4.046-9.036,9.038-9.036C749.564,359.352,753.61,363.396,753.61,368.389z"/>
					<path style="fill:none;stroke:#B2B2B2;stroke-width:10.6782;stroke-linecap:round;stroke-miterlimit:10;" d="M744.126,367.856
						c7.115-39.152-71.661-72.558-87.807,2.967c-16.138,75.53-47.899,235.167-54.199,268.562
						c-6.308,33.395-16.984,57.243-46.646,57.243c-29.662,0-191.021,0-191.021,0"/>
					<path style="fill:#20294F;" d="M431.721,737.924c0,19.115-15.5,34.609-34.607,34.609c-19.115,0-34.607-15.494-34.607-34.609
						c0-19.113,15.492-34.607,34.607-34.607C416.222,703.317,431.721,718.811,431.721,737.924z"/>
					<path style="fill:#FFFFFF;" d="M416.237,737.924c0,10.563-8.562,19.125-19.123,19.125s-19.13-8.562-19.13-19.125
						c0-10.564,8.569-19.127,19.13-19.127S416.237,727.361,416.237,737.924z"/>
					<path style="fill:none;stroke:#20294F;stroke-width:12.458;stroke-miterlimit:10;" d="M617.919,563.797
						c-2.7,13.609-16.254,24.746-30.13,24.746H403.322c-13.877,0-28.316-10.921-32.1-24.273l-39.654-140.106
						c-3.777-13.35,4.485-24.271,18.361-24.271h275.235c13.877,0,23.015,11.134,20.323,24.744L617.919,563.797z"/>
					<path style="fill:#B2B2B2;" d="M381.284,696.628v40.561c0,8.744,7.084,15.833,15.831,15.833
						c8.738,0,15.831-7.088,15.831-15.833v-40.561H381.284z"/>
					<path style="fill:#DCDCDC;" d="M405.091,737.924c0,4.408-3.57,7.979-7.977,7.979c-4.408,0-7.984-3.571-7.984-7.979
						c0-4.41,3.577-7.981,7.984-7.981C401.521,729.943,405.091,733.515,405.091,737.924z"/>
					<path style="fill:#20294F;" d="M583.558,737.924c0,19.115-15.492,34.609-34.607,34.609c-19.115,0-34.607-15.494-34.607-34.609
						c0-19.113,15.492-34.607,34.607-34.607C568.066,703.317,583.558,718.811,583.558,737.924z"/>
					<path style="fill:#FFFFFF;" d="M568.074,737.924c0,10.563-8.561,19.125-19.123,19.125c-10.561,0-19.123-8.562-19.123-19.125
						c0-10.564,8.562-19.127,19.123-19.127C559.512,718.797,568.074,727.361,568.074,737.924z"/>
					<path style="fill:#B2B2B2;" d="M533.12,696.628v40.561c0,8.744,7.084,15.833,15.831,15.833c8.746,0,15.831-7.088,15.831-15.833
						v-40.561H533.12z"/>
					<path style="fill:#DCDCDC;" d="M556.936,737.924c0,4.408-3.577,7.979-7.985,7.979c-4.408,0-7.977-3.571-7.977-7.979
						c0-4.41,3.569-7.981,7.977-7.981C553.358,729.943,556.936,733.515,556.936,737.924z"/>
					<path style="fill:#9B9B9A;" d="M561.72,700.844c-0.469-1.694-3.069-1.352-3.061,0.414c0.061,14.819,7.146,33.554-4.592,46.057
						c-0.239,0.258,0.069,0.637,0.377,0.478c6.607-3.388,8.646-9.963,9.322-16.982C564.674,721.342,564.274,710.063,561.72,700.844z
						"/>
					<path style="fill:#9B9B9A;" d="M550.135,735.555c-2.107,0-2.407,2.664-0.784,3.598c0.469,0.319,1.092,0.319,1.562,0
						C552.543,738.219,552.243,735.555,550.135,735.555z"/>
					<path style="fill:#9B9B9A;" d="M396.599,736.284c-0.123-0.025-0.246-0.048-0.369-0.073c-2.062-0.396-2.062,2.867,0,2.47
						c0.123-0.025,0.246-0.046,0.369-0.071C397.753,738.386,397.753,736.505,396.599,736.284z"/>
					<path style="fill:#9B9B9A;" d="M410.322,702.444c0.239-2.571-4.254-2.518-3.946,0c1.777,14.706,4.438,33.63-4.885,46.076
						c-0.254,0.335,0.216,0.695,0.531,0.531C416.768,741.411,409.152,715.084,410.322,702.444z"/>
					<path style="fill:#9B9B9A;" d="M468.267,696.529c-18.377-0.492-36.807,1.271-55.169,1.633c-0.961,0.019-0.9,1.329,0,1.446
						c9.554,1.26,18.969-0.021,28.523,0.377c8.831,0.369,17.83-0.639,26.646-1.117C469.767,698.785,469.782,696.571,468.267,696.529
						z"/>
					<path style="fill:#9B9B9A;" d="M381.061,697.865c-5.538,0.592-11.869,1.779-17.061-0.75c0.154-0.473,0.331-0.933,0.577-1.37
						c0.354-0.725-0.377-1.584-1.138-1.142c-1.2,0.702-1.585,1.421-1.854,2.796c-0.1,0.515,0.061,0.985,0.516,1.273
						c5.9,3.752,12.323,3.087,18.961,2.419C383.114,700.883,383.122,697.646,381.061,697.865z"/>
					<path style="fill:#9B9B9A;" d="M598.581,659.862c-3.961,7.929-5.854,16.042-11.677,23.034
						c-2.723,3.273-6.223,6.596-9.723,9.015c-4.046,2.8-8.631,3.213-13.069,4.848c-0.969,0.358-0.907,1.989,0.262,1.912
						c17.692-1.154,35.922-20.663,35.915-38.347C600.289,659.448,598.996,659.021,598.581,659.862z"/>
					<path style="fill:#9B9B9A;" d="M722.364,330.328c-33.715-22.901-63.099,19.273-68.253,48.684
						c-0.1,0.57,0.654,0.773,0.862,0.237c5.331-13.983,11.315-28,21.492-39.21c12.676-13.961,28.13-14.064,44.33-7.023
						C722.61,333.806,724.056,331.478,722.364,330.328z"/>
					
						<line style="fill:none;stroke:#20294F;stroke-width:12.458;stroke-miterlimit:10;" x1="500.636" y1="399.894" x2="500.636" y2="424.215"/>
					
						<line style="fill:none;stroke:#20294F;stroke-width:12.458;stroke-miterlimit:10;" x1="500.636" y1="564.219" x2="500.636" y2="588.543"/>
					
						<line style="fill:none;stroke:#20294F;stroke-width:12.458;stroke-miterlimit:10;" x1="462.029" y1="399.894" x2="462.029" y2="424.215"/>
					
						<line style="fill:none;stroke:#20294F;stroke-width:12.458;stroke-miterlimit:10;" x1="462.029" y1="564.219" x2="462.029" y2="588.543"/>
					
						<line style="fill:none;stroke:#20294F;stroke-width:12.458;stroke-miterlimit:10;" x1="423.429" y1="399.894" x2="423.429" y2="424.215"/>
					
						<line style="fill:none;stroke:#20294F;stroke-width:12.458;stroke-miterlimit:10;" x1="423.429" y1="564.219" x2="423.429" y2="588.543"/>
					
						<line style="fill:none;stroke:#20294F;stroke-width:12.458;stroke-miterlimit:10;" x1="384.822" y1="399.894" x2="384.822" y2="442.013"/>
					
						<line style="fill:none;stroke:#20294F;stroke-width:12.458;stroke-miterlimit:10;" x1="412.945" y1="462.776" x2="343.392" y2="462.776"/>
					
						<line style="fill:none;stroke:#20294F;stroke-width:12.458;stroke-miterlimit:10;" x1="412.945" y1="503.117" x2="355.107" y2="503.117"/>
					
						<line style="fill:none;stroke:#20294F;stroke-width:12.458;stroke-miterlimit:10;" x1="637.08" y1="462.776" x2="561.858" y2="462.776"/>
					
						<line style="fill:none;stroke:#20294F;stroke-width:12.458;stroke-miterlimit:10;" x1="631.227" y1="503.117" x2="567.712" y2="503.117"/>
					
						<line style="fill:none;stroke:#20294F;stroke-width:12.458;stroke-miterlimit:10;" x1="384.822" y1="546.423" x2="384.822" y2="582.351"/>
					
						<line style="fill:none;stroke:#20294F;stroke-width:12.458;stroke-miterlimit:10;" x1="543.058" y1="399.894" x2="543.058" y2="424.215"/>
					
						<line style="fill:none;stroke:#20294F;stroke-width:12.458;stroke-miterlimit:10;" x1="543.058" y1="564.219" x2="543.058" y2="588.543"/>
					
						<line style="fill:none;stroke:#20294F;stroke-width:12.458;stroke-miterlimit:10;" x1="585.481" y1="399.894" x2="585.481" y2="424.215"/>
					
						<line style="fill:none;stroke:#20294F;stroke-width:12.458;stroke-miterlimit:10;" x1="585.481" y1="564.219" x2="585.481" y2="588.543"/>
				</g>
			</g>
			<rect x="723.118" y="436.278" style="fill:#A6A6A6;" width="314.526" height="47.655"/>
			<rect x="723.118" y="511.221" style="fill:#A6A6A6;" width="314.526" height="47.655"/>
			<rect x="723.118" y="582.351" style="fill:#A6A6A6;" width="314.526" height="47.655"/>
		</g>
	</g>
</g>
</svg>
