<?xml version="1.0" encoding="utf-8"?>
<!-- Generator: Adobe Illustrator 27.5.0, SVG Export Plug-In . SVG Version: 6.00 Build 0)  -->
<svg version="1.1" xmlns="http://www.w3.org/2000/svg" xmlns:xlink="http://www.w3.org/1999/xlink" x="0px" y="0px"
	 viewBox="0 0 750 500" style="enable-background:new 0 0 750 500;" xml:space="preserve">
<g id="BACKGROUND">
	<rect style="fill:#FFFFFF;" width="750" height="500"/>
	<path style="fill:#F9F2FF;" d="M663.449,83.867c-6.182-11.863-16.243-21.312-27.794-27.889
		c-28.321-16.128-61.611-14.353-92.636-8.921c-36.534,6.396-73.624,17.521-110.677,8.098c-16.719-4.252-32.481-11.419-48.827-16.818
		c-16.643-5.496-33.939-8.486-51.444-9.206c-35.149-1.445-70.404,5.403-104.1,14.884c-31.633,8.9-62.887,21.431-89.101,41.624
		c-22.739,17.516-41.613,40.903-50.88,68.303c-1.308,3.868-2.391,7.806-3.255,11.789c-0.626,1.788-1.223,3.591-1.767,5.418
		c-4.189,14.051-6.184,29.424-3.388,43.929c2.71,14.062,10.779,25.725,21.98,34.429c0.742,0.576,1.492,1.135,2.248,1.682
		c2.059,2.427,4.266,4.733,6.596,6.938c9.982,11.108,22.609,19.612,35.664,26.775c13.327,7.313,27.729,11.87,41.368,18.456
		c9.938,4.799,18.507,11.325,26.008,19.149c6.106,10.686,11.215,22.066,16.47,32.89c11.613,23.922,25.346,47.172,49.924,59.579
		c14.144,7.14,30.126,11.062,45.801,12.907c16.675,1.963,32.285-0.668,46.683-9.476c13.856-8.476,26.125-19.442,39.619-28.494
		c13.69-9.183,28.054-17.454,43.176-24.052c15.556-6.786,32.049-11.804,48.916-13.929c17.299-2.18,34.651-0.578,52.011-0.654
		c15.503-0.068,30.997-1.888,45.132-8.617c12.2-5.807,22.855-14.731,31.258-25.265c8.382-10.507,14.708-22.602,18.615-35.462
		c4.705-15.485,4.959-31.587,4.983-47.64c0.028-18.709,1.765-36.526,5.969-54.78c3.842-16.68,8.386-33.32,9.469-50.476
		C672.445,113.642,670.661,97.706,663.449,83.867z"/>
	<g>
		<path id="XMLID_1_" style="fill:#FFAC6E;" d="M223.924,290.377l0.668,1.353c0.219,0.444,0.642,0.751,1.132,0.822l1.493,0.217
			c1.233,0.179,1.725,1.694,0.833,2.564l-1.081,1.053c-0.354,0.345-0.516,0.843-0.432,1.331l0.255,1.487
			c0.211,1.228-1.078,2.164-2.181,1.585l-1.335-0.702c-0.438-0.23-0.961-0.23-1.399,0l-1.336,0.702
			c-1.103,0.58-2.392-0.357-2.181-1.585l0.255-1.487c0.084-0.488-0.078-0.985-0.432-1.331l-1.08-1.053
			c-0.892-0.87-0.4-2.385,0.833-2.564l1.493-0.217c0.49-0.071,0.913-0.379,1.132-0.822l0.668-1.353
			C221.78,289.259,223.373,289.259,223.924,290.377z"/>
		<path id="XMLID_7_" style="fill:#FFAC6E;" d="M352.28,359.92l0.668,1.353c0.219,0.444,0.642,0.751,1.132,0.822l1.493,0.217
			c1.233,0.179,1.725,1.694,0.833,2.564l-1.081,1.053c-0.354,0.345-0.516,0.843-0.432,1.331l0.255,1.487
			c0.211,1.228-1.078,2.164-2.181,1.585l-1.336-0.702c-0.438-0.23-0.961-0.23-1.399,0l-1.336,0.702
			c-1.103,0.58-2.392-0.357-2.181-1.585l0.255-1.487c0.084-0.488-0.078-0.985-0.432-1.331l-1.08-1.053
			c-0.892-0.87-0.4-2.385,0.833-2.564l1.493-0.217c0.49-0.071,0.913-0.379,1.132-0.822l0.668-1.353
			C350.135,358.802,351.729,358.802,352.28,359.92z"/>
		<path id="XMLID_6_" style="fill:#FFAC6E;" d="M229.846,117.83l0.668,1.353c0.219,0.444,0.642,0.751,1.132,0.822l1.493,0.217
			c1.233,0.179,1.725,1.694,0.833,2.564l-1.081,1.053c-0.354,0.345-0.516,0.843-0.432,1.331l0.255,1.487
			c0.211,1.228-1.078,2.164-2.181,1.585l-1.335-0.702c-0.438-0.23-0.961-0.23-1.399,0l-1.336,0.702
			c-1.103,0.58-2.392-0.357-2.181-1.585l0.255-1.487c0.084-0.488-0.078-0.985-0.432-1.331l-1.08-1.053
			c-0.892-0.87-0.4-2.385,0.833-2.564l1.493-0.217c0.49-0.071,0.913-0.379,1.132-0.822l0.668-1.353
			C227.702,116.713,229.295,116.713,229.846,117.83z"/>
		<path id="XMLID_8_" style="fill:#FFAC6E;" d="M282.119,206.909l0.668,1.353c0.219,0.444,0.642,0.751,1.132,0.822l1.493,0.217
			c1.233,0.179,1.725,1.694,0.833,2.564l-1.081,1.053c-0.354,0.345-0.516,0.843-0.432,1.331l0.255,1.487
			c0.211,1.228-1.078,2.164-2.181,1.585l-1.336-0.702c-0.438-0.23-0.961-0.23-1.399,0l-1.336,0.702
			c-1.103,0.58-2.392-0.357-2.181-1.585l0.255-1.487c0.084-0.488-0.078-0.985-0.432-1.331l-1.08-1.053
			c-0.892-0.87-0.4-2.385,0.833-2.564l1.493-0.217c0.49-0.071,0.913-0.379,1.132-0.822l0.668-1.353
			C279.974,205.792,281.568,205.792,282.119,206.909z"/>
		<path id="XMLID_5_" style="fill:#FFAC6E;" d="M120.625,237.389l0.668,1.353c0.219,0.444,0.642,0.751,1.132,0.822l1.493,0.217
			c1.233,0.179,1.725,1.694,0.833,2.564l-1.081,1.053c-0.354,0.345-0.516,0.843-0.432,1.331l0.255,1.487
			c0.211,1.228-1.078,2.165-2.181,1.585l-1.336-0.702c-0.438-0.23-0.961-0.23-1.399,0l-1.336,0.702
			c-1.103,0.58-2.392-0.357-2.181-1.585l0.255-1.487c0.084-0.488-0.078-0.985-0.432-1.331l-1.08-1.053
			c-0.892-0.87-0.4-2.385,0.833-2.564l1.493-0.217c0.49-0.071,0.913-0.379,1.132-0.822l0.668-1.353
			C118.48,236.272,120.073,236.272,120.625,237.389z"/>
		<path id="XMLID_2_" style="fill:#FFAC6E;" d="M581.018,320.682l0.668,1.353c0.219,0.444,0.642,0.751,1.132,0.822l1.493,0.217
			c1.233,0.179,1.725,1.694,0.833,2.564l-1.08,1.053c-0.354,0.345-0.516,0.843-0.432,1.331l0.255,1.487
			c0.211,1.228-1.078,2.165-2.181,1.585l-1.336-0.702c-0.438-0.23-0.961-0.23-1.399,0l-1.336,0.702
			c-1.103,0.58-2.392-0.357-2.181-1.585l0.255-1.487c0.084-0.488-0.078-0.985-0.432-1.331l-1.08-1.053
			c-0.892-0.87-0.4-2.385,0.833-2.564l1.493-0.217c0.49-0.071,0.913-0.379,1.132-0.822l0.668-1.353
			C578.874,319.564,580.467,319.564,581.018,320.682z"/>
		<path id="XMLID_3_" style="fill:#FFAC6E;" d="M570.576,78.435l0.668,1.353c0.219,0.444,0.642,0.751,1.132,0.822l1.493,0.217
			c1.233,0.179,1.725,1.694,0.833,2.564l-1.081,1.053c-0.354,0.345-0.516,0.843-0.432,1.331l0.255,1.487
			c0.211,1.228-1.078,2.164-2.181,1.585l-1.336-0.702c-0.438-0.23-0.961-0.23-1.399,0l-1.336,0.702
			c-1.103,0.58-2.392-0.357-2.181-1.585l0.255-1.487c0.084-0.488-0.078-0.985-0.432-1.331l-1.08-1.053
			c-0.892-0.87-0.4-2.385,0.833-2.564l1.493-0.217c0.49-0.071,0.913-0.379,1.132-0.822l0.668-1.353
			C568.431,77.317,570.024,77.317,570.576,78.435z"/>
		<path id="XMLID_4_" style="fill:#FFAC6E;" d="M422.732,302.415l0.668,1.353c0.219,0.444,0.642,0.751,1.132,0.822l1.493,0.217
			c1.233,0.179,1.725,1.694,0.833,2.564l-1.081,1.053c-0.354,0.345-0.516,0.843-0.432,1.331l0.255,1.487
			c0.211,1.228-1.078,2.165-2.181,1.585l-1.335-0.702c-0.438-0.23-0.961-0.23-1.399,0l-1.336,0.702
			c-1.103,0.58-2.392-0.357-2.181-1.585l0.255-1.487c0.084-0.488-0.078-0.985-0.432-1.331l-1.08-1.053
			c-0.892-0.87-0.4-2.385,0.833-2.564l1.493-0.217c0.49-0.071,0.913-0.379,1.132-0.822l0.668-1.353
			C420.587,301.297,422.18,301.297,422.732,302.415z"/>
		<path style="fill:#FFAC6E;" d="M257.126,330.849c-2.359,0-3.571-1.402-4.546-2.529c-0.983-1.137-1.603-1.781-2.908-1.781
			c-1.305,0-1.924,0.644-2.908,1.781c-0.975,1.127-2.187,2.529-4.546,2.529c-2.359,0-3.572-1.402-4.546-2.529
			c-0.984-1.137-1.604-1.781-2.91-1.781c-1.305,0-1.924,0.644-2.907,1.781c-0.975,1.127-2.187,2.529-4.545,2.529
			c-2.36,0-3.574-1.402-4.548-2.529c-0.984-1.137-1.605-1.781-2.911-1.781c-1.307,0-1.929,0.644-2.914,1.781
			c-0.975,1.126-2.19,2.528-4.55,2.528c-2.36,0-3.574-1.402-4.55-2.528c-0.985-1.138-1.607-1.781-2.914-1.781
			c-0.597,0-1.082-0.484-1.082-1.082c0-0.598,0.485-1.082,1.082-1.082c2.36,0,3.575,1.402,4.55,2.528
			c0.984,1.138,1.606,1.781,2.914,1.781c1.307,0,1.929-0.644,2.914-1.781c0.975-1.127,2.19-2.528,4.55-2.528
			c2.36,0,3.573,1.402,4.547,2.529c0.985,1.137,1.605,1.781,2.912,1.781c1.305,0,1.924-0.644,2.907-1.781
			c0.975-1.127,2.187-2.529,4.545-2.529c2.359,0,3.572,1.402,4.546,2.529c0.984,1.137,1.604,1.781,2.91,1.781
			c1.305,0,1.924-0.644,2.908-1.781c0.975-1.127,2.188-2.529,4.546-2.529c2.359,0,3.571,1.402,4.546,2.529
			c0.983,1.137,1.603,1.781,2.908,1.781c0.597,0,1.082,0.484,1.082,1.082C258.208,330.366,257.723,330.849,257.126,330.849z"/>
		<path style="fill:#FFAC6E;" d="M456.124,60.311c-2.359,0-3.571-1.402-4.546-2.529c-0.983-1.137-1.603-1.781-2.908-1.781
			s-1.924,0.644-2.908,1.781c-0.975,1.127-2.187,2.529-4.546,2.529s-3.572-1.402-4.546-2.529c-0.984-1.137-1.604-1.781-2.91-1.781
			c-1.305,0-1.924,0.644-2.907,1.781c-0.975,1.127-2.187,2.529-4.545,2.529c-2.36,0-3.573-1.402-4.547-2.529
			c-0.985-1.137-1.605-1.781-2.912-1.781c-1.307,0-1.929,0.644-2.914,1.781c-0.975,1.126-2.19,2.528-4.55,2.528
			c-2.36,0-3.575-1.402-4.55-2.528c-0.985-1.138-1.607-1.781-2.914-1.781c-0.597,0-1.082-0.484-1.082-1.082
			c0-0.598,0.485-1.082,1.082-1.082c2.36,0,3.574,1.402,4.55,2.528c0.984,1.138,1.607,1.781,2.914,1.781
			c1.307,0,1.929-0.644,2.914-1.781c0.975-1.127,2.19-2.528,4.55-2.528c2.36,0,3.573,1.402,4.547,2.529
			c0.985,1.137,1.605,1.781,2.912,1.781c1.305,0,1.924-0.644,2.907-1.781c0.975-1.127,2.187-2.529,4.545-2.529
			c2.359,0,3.572,1.402,4.546,2.529c0.984,1.137,1.604,1.781,2.91,1.781c1.305,0,1.924-0.644,2.908-1.781
			c0.975-1.127,2.188-2.529,4.546-2.529s3.571,1.402,4.546,2.529c0.984,1.137,1.603,1.781,2.908,1.781
			c0.597,0,1.082,0.484,1.082,1.082C457.206,59.827,456.721,60.311,456.124,60.311z"/>
		<path style="fill:#FFAC6E;" d="M135.445,226.217c-2.359,0-3.571-1.402-4.546-2.529c-0.983-1.137-1.603-1.781-2.908-1.781
			c-1.305,0-1.924,0.644-2.908,1.781c-0.975,1.127-2.187,2.529-4.546,2.529c-2.359,0-3.572-1.402-4.546-2.529
			c-0.984-1.137-1.604-1.781-2.91-1.781c-1.305,0-1.924,0.644-2.907,1.781c-0.975,1.127-2.187,2.529-4.545,2.529
			c-2.36,0-3.574-1.402-4.548-2.529c-0.984-1.137-1.605-1.781-2.911-1.781c-1.307,0-1.929,0.644-2.914,1.781
			c-0.975,1.126-2.19,2.528-4.55,2.528c-2.36,0-3.575-1.402-4.55-2.528c-0.985-1.138-1.607-1.781-2.914-1.781
			c-0.597,0-1.082-0.484-1.082-1.082c0-0.598,0.485-1.082,1.082-1.082c2.36,0,3.575,1.402,4.55,2.528
			c0.985,1.138,1.607,1.781,2.914,1.781c1.307,0,1.929-0.644,2.914-1.781c0.975-1.127,2.19-2.528,4.55-2.528
			c2.36,0,3.573,1.402,4.547,2.529c0.985,1.137,1.605,1.781,2.912,1.781c1.305,0,1.924-0.644,2.907-1.781
			c0.975-1.127,2.187-2.529,4.545-2.529c2.359,0,3.572,1.402,4.546,2.529c0.984,1.137,1.604,1.781,2.91,1.781
			c1.305,0,1.925-0.644,2.908-1.781c0.975-1.127,2.188-2.529,4.546-2.529s3.571,1.402,4.546,2.529
			c0.983,1.137,1.603,1.781,2.908,1.781c0.597,0,1.082,0.484,1.082,1.082C136.527,225.733,136.042,226.217,135.445,226.217z"/>
		<path style="fill:#FFAC6E;" d="M655.648,294.42c-2.359,0-3.571-1.402-4.546-2.529c-0.983-1.137-1.603-1.781-2.908-1.781
			c-1.305,0-1.924,0.644-2.908,1.781c-0.975,1.127-2.187,2.529-4.546,2.529c-2.359,0-3.572-1.402-4.546-2.529
			c-0.984-1.137-1.604-1.781-2.91-1.781c-1.305,0-1.924,0.644-2.907,1.781c-0.975,1.127-2.187,2.529-4.545,2.529
			c-2.36,0-3.573-1.402-4.547-2.529c-0.984-1.137-1.605-1.781-2.911-1.781c-1.307,0-1.929,0.644-2.914,1.781
			c-0.975,1.126-2.19,2.528-4.55,2.528c-2.36,0-3.574-1.402-4.55-2.528c-0.985-1.138-1.607-1.781-2.914-1.781
			c-0.597,0-1.082-0.484-1.082-1.082c0-0.598,0.485-1.082,1.082-1.082c2.36,0,3.575,1.402,4.55,2.528
			c0.984,1.138,1.607,1.781,2.914,1.781c1.307,0,1.929-0.644,2.914-1.781c0.975-1.127,2.19-2.528,4.55-2.528
			c2.36,0,3.573,1.402,4.547,2.529c0.985,1.137,1.605,1.781,2.912,1.781c1.305,0,1.924-0.644,2.907-1.781
			c0.975-1.127,2.187-2.529,4.545-2.529c2.359,0,3.572,1.402,4.546,2.529c0.984,1.137,1.604,1.781,2.91,1.781
			c1.305,0,1.924-0.644,2.908-1.781c0.975-1.127,2.188-2.529,4.546-2.529s3.571,1.402,4.546,2.529
			c0.984,1.137,1.603,1.781,2.908,1.781c0.597,0,1.082,0.484,1.082,1.082C656.73,293.936,656.246,294.42,655.648,294.42z"/>
		<path style="fill:#FFAC6E;" d="M567.721,156.612c-1.7,0-2.573-1.011-3.276-1.822c-0.709-0.82-1.155-1.283-2.096-1.283
			c-0.94,0-1.387,0.464-2.096,1.283c-0.703,0.812-1.576,1.822-3.276,1.822c-1.7,0-2.574-1.011-3.276-1.822
			c-0.71-0.82-1.156-1.283-2.097-1.283c-0.94,0-1.387,0.464-2.095,1.283c-0.703,0.812-1.576,1.822-3.275,1.822
			c-1.701,0-2.575-1.01-3.277-1.822c-0.709-0.82-1.157-1.283-2.098-1.283c-0.942,0-1.39,0.464-2.1,1.284
			c-0.703,0.812-1.578,1.822-3.279,1.822c-1.701,0-2.576-1.01-3.279-1.822c-0.71-0.82-1.158-1.284-2.1-1.284
			c-0.431,0-0.78-0.349-0.78-0.78c0-0.431,0.349-0.78,0.78-0.78c1.701,0,2.576,1.01,3.279,1.822c0.71,0.82,1.158,1.284,2.1,1.284
			c0.942,0,1.39-0.464,2.1-1.284c0.703-0.812,1.578-1.822,3.279-1.822c1.701,0,2.575,1.01,3.277,1.823
			c0.71,0.819,1.157,1.283,2.098,1.283c0.94,0,1.387-0.464,2.095-1.283c0.703-0.812,1.576-1.823,3.275-1.823
			c1.7,0,2.574,1.011,3.276,1.823c0.71,0.819,1.156,1.283,2.097,1.283c0.94,0,1.387-0.464,2.095-1.283
			c0.703-0.812,1.577-1.823,3.276-1.823c1.7,0,2.574,1.011,3.276,1.823c0.709,0.819,1.155,1.283,2.096,1.283
			c0.43,0,0.78,0.349,0.78,0.78C568.501,156.263,568.152,156.612,567.721,156.612z"/>
		<path style="fill:#FFAC6E;" d="M257.126,374.06c-3.563,0-6.461-2.985-6.461-6.655c0-3.669,2.898-6.655,6.461-6.655
			c3.563,0,6.461,2.985,6.461,6.655C263.588,371.075,260.689,374.06,257.126,374.06z M257.126,363.935
			c-1.807,0-3.277,1.557-3.277,3.47c0,1.914,1.47,3.471,3.277,3.471c1.807,0,3.277-1.557,3.277-3.471
			C260.404,365.492,258.933,363.935,257.126,363.935z"/>
		<path style="fill:#FFAC6E;" d="M333.659,398.523c-3.563,0-6.461-2.985-6.461-6.655c0-3.669,2.898-6.654,6.461-6.654
			c3.563,0,6.461,2.985,6.461,6.654C340.12,395.538,337.221,398.523,333.659,398.523z M333.659,388.398
			c-1.807,0-3.277,1.557-3.277,3.47c0,1.914,1.47,3.471,3.277,3.471s3.277-1.557,3.277-3.471
			C336.936,389.955,335.466,388.398,333.659,388.398z"/>
		<path style="fill:#FFAC6E;" d="M197.317,114.533c-3.563,0-6.461-2.985-6.461-6.655c0-3.669,2.898-6.654,6.461-6.654
			c3.563,0,6.461,2.985,6.461,6.654C203.778,111.548,200.88,114.533,197.317,114.533z M197.317,104.408
			c-1.807,0-3.277,1.557-3.277,3.47c0,1.914,1.47,3.471,3.277,3.471c1.807,0,3.277-1.557,3.277-3.471
			C200.594,105.965,199.124,104.408,197.317,104.408z"/>
		<path style="fill:#FFAC6E;" d="M280.452,142.467c-3.563,0-6.461-2.985-6.461-6.655c0-3.669,2.898-6.655,6.461-6.655
			c3.563,0,6.461,2.985,6.461,6.655C286.914,139.481,284.015,142.467,280.452,142.467z M280.452,132.341
			c-1.807,0-3.277,1.557-3.277,3.471c0,1.914,1.47,3.471,3.277,3.471c1.807,0,3.277-1.557,3.277-3.471
			C283.729,133.898,282.259,132.341,280.452,132.341z"/>
		<path style="fill:#FFAC6E;" d="M519.785,109.213c-3.563,0-6.461-2.985-6.461-6.655c0-3.669,2.898-6.655,6.461-6.655
			c3.563,0,6.461,2.985,6.461,6.655C526.247,106.227,523.348,109.213,519.785,109.213z M519.785,99.087
			c-1.807,0-3.277,1.557-3.277,3.471c0,1.914,1.47,3.471,3.277,3.471c1.807,0,3.277-1.557,3.277-3.471
			C523.063,100.644,521.593,99.087,519.785,99.087z"/>
		<path style="fill:#FFAC6E;" d="M466.675,158.428c-3.563,0-6.461-2.985-6.461-6.655c0-3.669,2.899-6.655,6.461-6.655
			c3.563,0,6.461,2.985,6.461,6.655C473.137,155.443,470.238,158.428,466.675,158.428z M466.675,148.303
			c-1.807,0-3.277,1.557-3.277,3.471c0,1.914,1.47,3.471,3.277,3.471s3.277-1.557,3.277-3.471
			C469.952,149.86,468.482,148.303,466.675,148.303z"/>
		<path style="fill:#FFAC6E;" d="M515.178,333.865c-3.563,0-6.461-2.985-6.461-6.655c0-3.669,2.898-6.655,6.461-6.655
			c3.563,0,6.461,2.985,6.461,6.655C521.639,330.879,518.741,333.865,515.178,333.865z M515.178,323.739
			c-1.807,0-3.277,1.557-3.277,3.47c0,1.914,1.47,3.471,3.277,3.471s3.277-1.557,3.277-3.471
			C518.455,325.296,516.985,323.739,515.178,323.739z"/>
		<path style="fill:#FFAC6E;" d="M558.456,301.421c-3.563,0-6.461-2.985-6.461-6.655c0-3.669,2.898-6.655,6.461-6.655
			c3.563,0,6.461,2.985,6.461,6.655C564.918,298.436,562.019,301.421,558.456,301.421z M558.456,291.296
			c-1.807,0-3.277,1.557-3.277,3.47c0,1.914,1.47,3.471,3.277,3.471s3.277-1.557,3.277-3.471
			C561.734,292.853,560.264,291.296,558.456,291.296z"/>
		<path style="fill:#FFAC6E;" d="M280.072,339.992c0,1.653-1.34,2.993-2.993,2.993c-1.653,0-2.993-1.34-2.993-2.993
			c0-1.653,1.34-2.993,2.993-2.993C278.732,336.999,280.072,338.339,280.072,339.992z"/>
		<path style="fill:#FFAC6E;" d="M253.468,156.429c0,1.653-1.34,2.993-2.993,2.993c-1.653,0-2.993-1.34-2.993-2.993
			c0-1.653,1.34-2.993,2.993-2.993C252.128,153.436,253.468,154.776,253.468,156.429z"/>
		<path style="fill:#FFAC6E;" d="M308.67,373.246c0,1.653-1.34,2.993-2.993,2.993c-1.653,0-2.993-1.34-2.993-2.993
			c0-1.653,1.34-2.993,2.993-2.993C307.33,370.253,308.67,371.593,308.67,373.246z"/>
		<path style="fill:#FFAC6E;" d="M239.169,85.93c0,1.653-1.34,2.993-2.993,2.993c-1.653,0-2.993-1.34-2.993-2.993
			c0-1.653,1.34-2.993,2.993-2.993C237.829,82.938,239.169,84.277,239.169,85.93z"/>
		<path style="fill:#FFAC6E;" d="M318.979,293.436c0,1.653-1.34,2.993-2.993,2.993c-1.653,0-2.993-1.34-2.993-2.993
			c0-1.653,1.34-2.993,2.993-2.993C317.639,290.443,318.979,291.783,318.979,293.436z"/>
		<path style="fill:#FFAC6E;" d="M156.366,274.814c0,1.653-1.34,2.993-2.993,2.993c-1.653,0-2.993-1.34-2.993-2.993
			c0-1.653,1.34-2.993,2.993-2.993C155.026,271.821,156.366,273.161,156.366,274.814z"/>
		<path style="fill:#FFAC6E;" d="M547.435,328.02c0,1.653-1.34,2.993-2.993,2.993c-1.653,0-2.993-1.34-2.993-2.993
			c0-1.653,1.34-2.993,2.993-2.993C546.095,325.027,547.435,326.367,547.435,328.02z"/>
		<path style="fill:#FFAC6E;" d="M669.477,200.325c0,1.653-1.34,2.993-2.993,2.993c-1.653,0-2.993-1.34-2.993-2.993
			c0-1.653,1.34-2.993,2.993-2.993C668.137,197.332,669.477,198.672,669.477,200.325z"/>
		<path style="fill:#FFAC6E;" d="M569.715,129.826c0,1.653-1.34,2.993-2.993,2.993c-1.653,0-2.993-1.34-2.993-2.993
			c0-1.653,1.34-2.993,2.993-2.993C568.375,126.833,569.715,128.173,569.715,129.826z"/>
		<path style="fill:#FFAC6E;" d="M254.133,247.546c0,1.653-1.34,2.993-2.993,2.993c-1.653,0-2.993-1.34-2.993-2.993
			c0-1.653,1.34-2.993,2.993-2.993C252.793,244.553,254.133,245.893,254.133,247.546z"/>
		<path style="fill:#FFAC6E;" d="M480.261,179.375c0,1.653-1.34,2.993-2.993,2.993c-1.653,0-2.993-1.34-2.993-2.993
			c0-1.653,1.34-2.993,2.993-2.993C478.921,176.382,480.261,177.722,480.261,179.375z"/>
		<path style="fill:#FFAC6E;" d="M510.19,156.762c0,1.653-1.34,2.993-2.993,2.993c-1.653,0-2.993-1.34-2.993-2.993
			c0-1.653,1.34-2.993,2.993-2.993C508.85,153.769,510.19,155.109,510.19,156.762z"/>
		<path style="fill:#FFAC6E;" d="M497.553,264.505c0,1.653-1.34,2.993-2.993,2.993c-1.653,0-2.993-1.34-2.993-2.993
			c0-1.653,1.34-2.993,2.993-2.993C496.213,261.512,497.553,262.852,497.553,264.505z"/>
		<path style="fill:#FFAC6E;" d="M659.833,235.242c0,1.653-1.34,2.993-2.993,2.993c-1.653,0-2.993-1.34-2.993-2.993
			c0-1.653,1.34-2.993,2.993-2.993C658.493,232.249,659.833,233.589,659.833,235.242z"/>
	</g>
</g>
<g id="OBJECTS">
	<g>
		<g>
			<g>
				<path style="fill:none;stroke:#F46700;stroke-width:5;stroke-linecap:round;stroke-linejoin:round;stroke-miterlimit:10;" d="
					M252.114,126.472c0,0,33.706-54.988,118.249-54.988c84.542,0,123.222,54.988,123.222,54.988"/>
				
					<polygon style="fill:#F46700;stroke:#F46700;stroke-width:5;stroke-linecap:round;stroke-linejoin:round;stroke-miterlimit:10;" points="
					497.886,132.8 490.402,130.57 482.919,128.34 489.802,121.845 496.685,115.35 497.286,124.075 				"/>
			</g>
			<g>
				<path style="fill:none;stroke:#F46700;stroke-width:5;stroke-linecap:round;stroke-linejoin:round;stroke-miterlimit:10;" d="
					M497.886,287.313c0,0-33.707,54.988-118.249,54.988c-84.542,0-123.222-54.988-123.222-54.988"/>
				
					<polygon style="fill:#F46700;stroke:#F46700;stroke-width:5;stroke-linecap:round;stroke-linejoin:round;stroke-miterlimit:10;" points="
					252.114,280.986 259.598,283.215 267.081,285.445 260.198,291.94 253.315,298.435 252.714,289.71 				"/>
			</g>
		</g>
		<g>
			<g>
				<rect x="512.94" y="190.096" style="fill:#DFC6F7;" width="121.839" height="68.397"/>
				<rect x="519.075" y="195.085" style="fill:#5F437A;" width="109.569" height="58.42"/>
				<g>
					<path style="fill:#C897F7;" d="M630.055,267.428H517.664c-5.243,0-9.493-4.25-9.493-9.493l0,0h131.378l0,0
						C639.548,263.178,635.298,267.428,630.055,267.428z"/>
					<g>
						<defs>
							<path id="SVGID_1_" d="M630.055,267.428H517.664c-5.243,0-9.493-4.25-9.493-9.493l0,0h131.378l0,0
								C639.548,263.178,635.298,267.428,630.055,267.428z"/>
						</defs>
						<clipPath id="SVGID_00000132059783480250652770000018349533970702805942_">
							<use xlink:href="#SVGID_1_"  style="overflow:visible;"/>
						</clipPath>
						<path style="clip-path:url(#SVGID_00000132059783480250652770000018349533970702805942_);fill:#5A88C4;" d="M532.097,268.333
							c-1.964-3.066-5.739-4.923-8.767-6.827c-3.385-2.129-6.796-4.218-10.591-5.528c-0.911-0.314-1.7,1.011-0.958,1.645
							c2.871,2.451,6.089,4.427,9.161,6.609c2.99,2.124,5.921,5.232,9.425,6.35C531.622,270.983,532.81,269.446,532.097,268.333z"/>
						<path style="clip-path:url(#SVGID_00000132059783480250652770000018349533970702805942_);fill:#5A88C4;" d="M550.444,271.052
							c-1.06-3.755-5.901-6.37-8.97-8.528c-1.921-1.35-3.925-2.573-5.969-3.727c-1.187-0.671-2.471-1.48-3.748-1.968
							c-0.992-0.379-2.041-0.269-3.07-0.682c-0.762-0.306-1.134,0.845-0.53,1.257c1.547,1.054,2.791,2.544,4.411,3.626
							c1.962,1.311,3.871,2.682,5.761,4.094c3.065,2.288,6.677,6.825,10.5,7.543C549.782,272.845,550.733,272.078,550.444,271.052z"
							/>
						<path style="clip-path:url(#SVGID_00000132059783480250652770000018349533970702805942_);fill:#5A88C4;" d="M567.523,268.203
							c-1.726-3.489-6.309-5.505-9.555-7.411c-1.956-1.149-3.936-2.278-5.964-3.296c-1.971-0.99-3.997-1.196-5.994-2.024
							c-0.606-0.251-0.955,0.706-0.434,1.028c1.675,1.036,3.123,2.65,4.822,3.744c1.914,1.232,3.839,2.432,5.713,3.725
							c3.015,2.08,6.225,5.56,9.859,6.254C567.175,270.453,568.072,269.313,567.523,268.203z"/>
						<path style="clip-path:url(#SVGID_00000132059783480250652770000018349533970702805942_);fill:#5A88C4;" d="M589.746,267.914
							c-3.093-2.722-7.202-4.357-10.669-6.603c-3.794-2.458-7.311-5.294-11.019-7.87c-1.223-0.85-2.405,0.952-1.515,1.963
							c2.934,3.332,6.435,6.115,10.014,8.722c3.442,2.508,7.32,5.635,11.501,6.687C589.651,271.213,591.1,269.107,589.746,267.914z"
							/>
						<path style="clip-path:url(#SVGID_00000132059783480250652770000018349533970702805942_);fill:#5A88C4;" d="M611.739,268.352
							c-1.13-3.764-6.26-6.142-9.424-8.111c-3.569-2.221-7.677-5.079-11.97-5.378c-0.606-0.042-0.775,0.704-0.453,1.093
							c2.69,3.256,7.043,5.21,10.446,7.667c3.064,2.212,6.165,6.106,10.03,6.529C611.29,270.252,611.982,269.162,611.739,268.352z"
							/>
						<path style="clip-path:url(#SVGID_00000132059783480250652770000018349533970702805942_);fill:#5A88C4;" d="M636.284,265.914
							c-1.401-2.819-5.518-4.303-8.022-6.142c-3.354-2.463-6.611-5.081-9.596-7.983c-0.678-0.66-1.586,0.311-1.016,1.016
							c2.704,3.351,5.474,6.591,8.661,9.495c2.384,2.173,5.324,5.675,8.691,5.847C636.199,268.209,636.754,266.861,636.284,265.914z
							"/>
					</g>
				</g>
			</g>
			<g>
				<path style="fill:#C897F7;" d="M637.134,178.71h-28.424c-4.823,0-8.733-3.91-8.733-8.733v-53.698
					c0-4.823,3.91-8.733,8.733-8.733h28.424c4.823,0,8.733,3.91,8.733,8.733v53.698C645.867,174.799,641.957,178.71,637.134,178.71z
					"/>
				<g>
					<defs>
						<path id="SVGID_00000119103374458567019460000017437342437314988467_" d="M637.134,178.71h-28.424
							c-4.823,0-8.733-3.91-8.733-8.733v-53.698c0-4.823,3.91-8.733,8.733-8.733h28.424c4.823,0,8.733,3.91,8.733,8.733v53.698
							C645.867,174.799,641.957,178.71,637.134,178.71z"/>
					</defs>
					<clipPath id="SVGID_00000093891763076531711720000009309316023235954567_">
						<use xlink:href="#SVGID_00000119103374458567019460000017437342437314988467_"  style="overflow:visible;"/>
					</clipPath>
					<path style="clip-path:url(#SVGID_00000093891763076531711720000009309316023235954567_);fill:#5A88C4;" d="M651.215,108.58
						c-8.912-1.759-19.009-0.409-27.899,1.11c-9.528,1.629-19.235,4.193-27.816,8.736c-0.77,0.408-0.241,1.636,0.59,1.399
						c8.742-2.496,17.299-5.241,26.3-6.71c9.525-1.555,18.94-0.981,28.464-1.866C652.265,111.119,652.833,108.899,651.215,108.58z"
						/>
					<path style="clip-path:url(#SVGID_00000093891763076531711720000009309316023235954567_);fill:#5A88C4;" d="M646.859,122.809
						c-9.073-1.019-19.781,1.865-28.49,4.178c-4.721,1.254-9.378,2.745-13.947,4.473c-3.196,1.209-7.576,2.112-9.18,5.302
						c-0.108,0.215-0.021,0.483,0.224,0.551c3.542,0.985,7.397-1.63,10.74-2.811c4.316-1.525,8.702-2.844,13.143-3.954
						c4.444-1.111,8.938-2.006,13.465-2.705c4.78-0.738,9.775-0.742,14.472-1.871C649.181,125.515,648.549,122.999,646.859,122.809z
						"/>
					<path style="clip-path:url(#SVGID_00000093891763076531711720000009309316023235954567_);fill:#5A88C4;" d="M653.912,136.894
						c-4.195-1.451-9.556-0.265-13.911,0.25c-4.962,0.586-9.874,1.441-14.741,2.575c-9.885,2.305-18.966,6.079-27.963,10.707
						c-0.372,0.191-0.113,0.836,0.289,0.686c8.956-3.353,18.393-5.787,27.759-7.691c5.136-1.044,10.336-1.812,15.553-2.31
						c4.205-0.401,9.071,0.208,13.014-1.324C655.288,139.252,655.376,137.401,653.912,136.894z"/>
					<path style="clip-path:url(#SVGID_00000093891763076531711720000009309316023235954567_);fill:#5A88C4;" d="M658.603,147.346
						c-4.476-1.277-10.104,0.406-14.604,1.215c-5.717,1.028-11.388,2.304-16.981,3.872c-5.304,1.487-10.555,3.181-15.696,5.16
						c-5.37,2.068-10.004,4.868-15.11,7.366c-0.485,0.238-0.137,1.096,0.373,0.885c4.923-2.026,10.51-3.404,15.613-5.075
						c5.229-1.713,10.508-3.277,15.851-4.596c5.05-1.247,10.145-2.324,15.273-3.197c4.975-0.846,11.129-0.53,15.64-2.89
						C660.132,149.475,659.799,147.687,658.603,147.346z"/>
					<path style="clip-path:url(#SVGID_00000093891763076531711720000009309316023235954567_);fill:#5A88C4;" d="M657.89,167.318
						c-8.738-2.133-20.1,0.991-28.724,2.96c-10.437,2.382-20.126,6.462-30.096,10.248c-0.408,0.155-0.236,0.815,0.183,0.663
						c9.406-3.412,19.265-5.081,29.108-6.816c5.331-0.939,10.712-1.687,16.094-2.26c4.475-0.477,9.166-0.365,13.435-1.901
						C659.201,169.739,659.425,167.693,657.89,167.318z"/>
				</g>
				<path style="fill:#5F437A;" d="M634.459,170.018h-23.076c-3.915,0-7.09-3.174-7.09-7.09v-43.593c0-3.915,3.174-7.09,7.09-7.09
					h23.076c3.915,0,7.09,3.174,7.09,7.09v43.593C641.549,166.844,638.375,170.018,634.459,170.018z"/>
				<circle style="fill:#5F437A;" cx="622.921" cy="174.054" r="3.104"/>
			</g>
		</g>
		<g>
			<g>
				<rect x="204.7" y="229.858" style="fill:#DFC6F7;" width="16.179" height="22.992"/>
				<g>
					<rect x="212.399" y="232.791" style="fill:#F9F2FF;" width="4.157" height="6.318"/>
					<rect x="212.399" y="243.599" style="fill:#F9F2FF;" width="4.157" height="6.318"/>
				</g>
				<rect x="158.694" y="226.556" style="fill:#5F437A;" width="49.881" height="29.596"/>
				<g>
					<defs>
						
							<rect id="SVGID_00000019639160967490726810000001909642766117680559_" x="158.694" y="226.556" width="49.881" height="29.596"/>
					</defs>
					<clipPath id="SVGID_00000044176344179671866550000004505065842862176182_">
						<use xlink:href="#SVGID_00000019639160967490726810000001909642766117680559_"  style="overflow:visible;"/>
					</clipPath>
					<path style="clip-path:url(#SVGID_00000044176344179671866550000004505065842862176182_);fill:#5A88C4;" d="M174.686,221.434
						c-0.623-0.929-1.738-1.041-2.577-0.332c-1.718,1.452-1.647,3.541-2.715,5.446c-1.639,2.924-4.211,4.32-7.117,5.771
						c-1.882,0.94-4.253,2.036-5.646,3.703c-1.19,1.424-1.635,3.462-2.304,5.21c-0.27,0.705,0.863,1.01,1.13,0.312
						c1.01-2.64,6.117-4.119,8.459-5.086c2.396-0.989,4.733-2.108,6.672-3.863C173.243,230.192,177.059,224.973,174.686,221.434z"/>
					<path style="clip-path:url(#SVGID_00000044176344179671866550000004505065842862176182_);fill:#5A88C4;" d="M190.765,221.421
						c-0.241-0.973-1.401-1.379-2.238-0.91c-3.434,1.922-3.053,5.761-4.032,9.21c-1.481,5.219-5.682,7.911-9.878,10.883
						c-6.837,4.841-11.461,10.45-13.724,18.56c-0.147,0.527,0.569,0.796,0.857,0.361c2.648-4.001,5.998-7.757,9.648-10.866
						c3.47-2.955,7.488-5.021,11.08-7.796c2.609-2.015,4.873-4.415,6.168-7.487C190.081,229.971,191.666,225.065,190.765,221.421z"
						/>
					<path style="clip-path:url(#SVGID_00000044176344179671866550000004505065842862176182_);fill:#5A88C4;" d="M207.029,223.36
						c-0.369-0.631-1.257-0.892-1.892-0.496c-3.209,2.001-3.479,6.324-5.162,9.535c-2.282,4.351-5.328,8.094-8.974,11.37
						c-3.021,2.715-6.197,5.202-8.059,8.908c-1.827,3.634-1.049,4.952,0.045,8.307c0.229,0.704,1.26,0.577,1.289-0.174
						c0.144-3.682,3.844-7.885,6.35-10.174c3.284-2.999,6.76-5.577,9.582-9.06C203.389,237.646,210.066,228.561,207.029,223.36z"/>
					<path style="clip-path:url(#SVGID_00000044176344179671866550000004505065842862176182_);fill:#5A88C4;" d="M219.647,237.288
						c-0.401-1.055-1.984-1.871-2.86-0.755c-1.673,2.131-2.393,4.71-4.227,6.764c-1.917,2.147-4.321,3.838-6.553,5.636
						c-4.341,3.496-6.655,6.881-7.77,12.328c-0.132,0.646,0.806,0.917,0.994,0.274c1.687-5.762,9.415-8.577,13.848-12.044
						C216.519,246.802,221.477,242.106,219.647,237.288z"/>
				</g>
			</g>
			<g>
				<path style="fill:#C897F7;" d="M229.615,170.277c-0.644-15.116-13.097-27.173-28.371-27.173c-3.304,0-6.473,0.57-9.422,1.607
					c-5.422-8.703-15.073-14.499-26.082-14.499c-16.197,0-29.455,12.54-30.621,28.439c-12.245,2.266-21.522,12.994-21.522,25.896
					c0,14.049,10.998,25.526,24.853,26.299l-0.007,0.01h0.152c0.446,0.022,0.894,0.034,1.345,0.034c0.451,0,0.9-0.012,1.345-0.034
					h88.781v-0.031c10.798-0.461,19.411-9.357,19.411-20.268C249.478,179.494,240.623,170.506,229.615,170.277z"/>
				<g>
					<path style="fill:#5F437A;" d="M137.407,170.8c-3.349-0.21-6.285,0.732-8.926,2.821c-2.671,2.113-3.827,4.765-4.677,8.001
						c-0.054,0.204,0.258,0.29,0.316,0.087c1.599-5.534,7.725-9.444,13.287-9.941C138.025,171.714,138.036,170.839,137.407,170.8z"
						/>
					<path style="fill:#5F437A;" d="M140.737,177.96c-2.285-0.155-4.42,0.52-6.321,1.786c-0.888,0.591-1.679,1.277-2.373,2.089
						c-0.779,0.91-1.066,1.96-1.608,3.022c-0.077,0.151,0.147,0.285,0.229,0.134c0.852-1.559,2.923-3.174,4.446-4.057
						c1.715-0.995,3.673-1.479,5.627-1.723C141.521,179.112,141.558,178.015,140.737,177.96z"/>
					<path style="fill:#5F437A;" d="M225.214,178.355c-0.515,0.021-0.674,0.817-0.127,0.936c5.004,1.085,8.222,4.003,10.216,8.684
						c0.203,0.476,1.048,0.242,0.99-0.268C235.706,182.511,230.447,178.137,225.214,178.355z"/>
					<path style="fill:#5F437A;" d="M221.771,185.936c-0.47,0.068-0.296,0.725,0.104,0.767c2.913,0.31,5.248,2.628,5.292,5.632
						c0.011,0.778,1.114,0.748,1.188,0C228.703,188.792,225.364,185.417,221.771,185.936z"/>
					<path style="fill:#5F437A;" d="M207.934,153.444c-2.688-2.275-7.285-1.917-10.064,0.008c-0.268,0.186-0.094,0.685,0.246,0.552
						c1.533-0.599,3.069-1.015,4.733-0.963c1.663,0.052,3.102,0.687,4.663,1.169C207.936,154.341,208.272,153.731,207.934,153.444z"
						/>
					<path style="fill:#5F437A;" d="M205.537,159.445c-2.488-0.417-4.977-0.206-7.5-0.392c-0.201-0.015-0.189,0.296,0.01,0.312
						c2.504,0.205,4.913,0.8,7.418,0.773C205.853,160.134,205.935,159.512,205.537,159.445z"/>
					<path style="fill:#5F437A;" d="M180.681,200.835c-1.783-0.053-3.592,0.009-5.369-0.152c-1.771-0.16-3.462-0.778-5.219-0.893
						c-0.323-0.021-0.364,0.396-0.15,0.553c2.809,2.057,7.618,2.272,10.848,1.305C181.24,201.514,181.151,200.849,180.681,200.835z"
						/>
					<path style="fill:#5F437A;" d="M187.105,197.856c-3.262-0.688-6.799-0.37-10.116-0.55c-0.377-0.02-0.362,0.539,0,0.578
						c3.259,0.353,6.678,1.242,9.964,1.092C187.567,198.948,187.764,197.994,187.105,197.856z"/>
					<path style="fill:#5F437A;" d="M166.141,140.919c-2.06-0.279-3.92,0.249-5.572,1.537c-1.845,1.438-2.344,3.066-2.759,5.272
						c-0.042,0.225,0.295,0.323,0.346,0.096c0.358-1.596,1.883-3.228,3.213-4.179c1.34-0.958,2.979-1.48,4.617-1.59
						C166.59,142.014,166.826,141.011,166.141,140.919z"/>
					<path style="fill:#5F437A;" d="M167.009,146.882c-3.95-0.274-7.122,2.326-8.62,5.86c-0.131,0.308,0.315,0.582,0.459,0.268
						c1.447-3.155,4.787-4.867,8.161-5.128C167.65,147.832,167.655,146.926,167.009,146.882z"/>
				</g>
			</g>
		</g>
		<g>
			<g>
				<g>
					<polygon style="fill:#C6DBF7;" points="373.229,174.743 326.603,174.743 326.603,125.976 337.427,115.167 373.229,115.152 
											"/>
					<polygon style="fill:#FFFFFF;" points="337.427,125.976 326.603,125.976 337.427,115.152 					"/>
				</g>
				<g>
					<rect x="335.307" y="132.66" style="fill:#FFFFFF;" width="29.218" height="2.205"/>
					<rect x="335.307" y="141.619" style="fill:#FFFFFF;" width="29.218" height="2.205"/>
					<rect x="335.307" y="150.577" style="fill:#FFFFFF;" width="29.218" height="2.205"/>
					<rect x="335.307" y="159.536" style="fill:#FFFFFF;" width="29.218" height="2.205"/>
				</g>
			</g>
			<g>
				<g>
					<polygon style="fill:#C6DBF7;" points="423.397,174.743 376.77,174.743 376.77,125.976 387.594,115.167 423.397,115.152 					
						"/>
					<polygon style="fill:#FFFFFF;" points="387.594,125.976 376.77,125.976 387.594,115.152 					"/>
				</g>
				<g>
					<rect x="385.474" y="132.66" style="fill:#FFFFFF;" width="29.218" height="2.205"/>
					<rect x="385.474" y="141.619" style="fill:#FFFFFF;" width="29.218" height="2.205"/>
					<rect x="385.474" y="150.577" style="fill:#FFFFFF;" width="29.218" height="2.205"/>
					<rect x="385.474" y="159.536" style="fill:#FFFFFF;" width="29.218" height="2.205"/>
				</g>
			</g>
			<g>
				<polygon style="fill:#FFFFFF;" points="398.313,200.62 351.687,200.62 351.687,151.853 362.511,141.044 398.313,141.029 				"/>
				<g>
					<polygon style="fill:#C6DBF7;" points="352.255,151.617 362.275,141.596 362.275,151.617 					"/>
					<path style="fill:#FFFFFF;" d="M362.04,142.165v9.217h-9.217L362.04,142.165 M362.511,141.029l-10.824,10.824h10.824V141.029
						L362.511,141.029z"/>
				</g>
				<g>
					<rect x="360.391" y="159.327" style="fill:#C6DBF7;" width="29.218" height="2.205"/>
					<rect x="360.391" y="168.286" style="fill:#C6DBF7;" width="29.218" height="2.205"/>
					<rect x="360.391" y="177.244" style="fill:#C6DBF7;" width="29.218" height="2.205"/>
					<rect x="360.391" y="186.203" style="fill:#C6DBF7;" width="29.218" height="2.205"/>
				</g>
			</g>
		</g>
	</g>
	<g>
		<path style="fill:#5A88C4;" d="M409.633,287.601c0.134-3.793,0.387-7.609,0.366-11.406c-0.069-12.281-7.488-21.003-18.842-25.147
			c-10.75-3.924-24.409-4.625-34.375,1.791c-5.871,3.78-9.409,9.727-11.617,16.243c-0.311-0.005-0.629,0.154-0.771,0.539
			c-1.446,3.914-2.5,7.935-3.212,12.046c-0.547,3.158-1.691,7.353-0.929,10.509c1.044,4.326,5.134,4.701,8.873,4.266
			c1.121,3.016,4.469,4.426,7.433,3.207c2.4,2.879,5.87,4.471,9.732,4.083c2.246-0.226,4.294-2.083,6.487-1.825
			c1.192,0.14,2.902,1.558,4.23,1.891c1.017,0.255,2.143,0.388,3.184,0.408c2.378,0.044,4.779-0.545,6.855-1.697
			c2.427-1.348,3.317-1.264,5.927-1.069c3.831,0.287,6.975-1.24,8.662-4.529c2.574,1.116,5.523,1.633,7.136-1.311
			C409.993,293.367,409.549,289.979,409.633,287.601z"/>
		<g>
			<polygon style="fill:#EDBA62;" points="385.889,307.392 385.889,288.823 364.111,288.823 364.111,307.261 347.809,310.569 
				344.422,311.358 375.296,335.938 405.578,311.568 			"/>
			<path style="fill:#E38562;" d="M385.889,298.134c0,0-6.554,3.948-11.043,3.948c-4.489,0-10.735-3.948-10.735-3.948v-9.311h21.778
				V298.134z"/>
		</g>
		<path style="fill:#C897F7;" d="M420.823,316.376c-2.488-1.045-8.693-3.137-15.32-4.807c-5.761-1.452-11.906-2.503-15.4-3.315
			c-4.146,4.161-26.823,4.232-30.291-0.153c-4.533,0.961-9.225,1.761-13.565,2.805c-6.939,1.668-13.083,3.614-17.042,5.235
			c-0.714,11.304,12.275,46.184,17.981,75.934c-2.445,20.784-9.883,37.206-12.328,48.853c-0.823,3.921,80.497,2.493,82.831-0.153
			c0.149-8.644-7.947-27.297-11.207-47.282C409.743,363.352,420.104,326.914,420.823,316.376z"/>
		<g>
			<g>
				<path style="fill:#EDBA62;" d="M441.53,400.568c0.262-4.303-0.63-9.147-0.885-11.833c-0.526-5.532-1.198-11.05-2.018-16.547
					c-0.945-6.331-2.086-12.633-3.427-18.892c-1.435-6.698-3.097-13.347-4.983-19.932c-1.171-4.089-3.168-10.27-4.281-12.495
					c-1.112-2.225-3.388-3.028-6.818-4.048c-3.43-1.02-4.912,10.076-5.5,11.742c-3.149,8.919-1.325,17.768-0.124,26.883
					c1.029,7.808,1.143,15.704,3.398,23.237c1.227,4.101,2.636,8.149,4.224,12.132c1.066,2.673,2.519,7.221,4.649,11.126
					c-0.806,0.637-1.529,1.223-2.128,1.682c-6.222,4.769-11.767,11.921-16.781,17.948c-3.818,4.589-10.045,9.245-11.183,15.254
					c-0.957,5.052,3.862,6.698,8.047,6.635c6.482-0.098,11.944-4.043,16.472-8.302c7.232-6.803,16.873-20.761,20.177-29.467
					c0.424-0.867,0.714-1.854,0.904-2.909C441.46,401.949,441.551,401.204,441.53,400.568z"/>
				<path style="fill:#C897F7;" d="M413.461,364.749c0.198,0.01,0.402,0.038,0.618,0.1c5.814,1.668,12.948-1.942,18.048-4.378
					c1.387-0.662,2.757-1.356,4.116-2.071c-0.334-1.704-0.68-3.406-1.044-5.104c-1.435-6.697-3.097-13.347-4.983-19.932
					c-1.171-4.089-3.168-10.27-4.281-12.495c-1.112-2.225-4.037-4.604-7.869-5.531c-3.478-0.841-5.175,9.719-5.763,11.386
					c-3.149,8.919-1.542,19.793-0.341,28.908C412.366,358.688,412.867,361.729,413.461,364.749z"/>
			</g>
			<g>
				<path style="fill:#EDBA62;" d="M308.47,400.568c-0.262-4.303,0.63-9.147,0.885-11.833c0.526-5.532,1.198-11.05,2.018-16.547
					c0.945-6.331,2.086-12.633,3.427-18.892c1.435-6.698,3.097-13.347,4.983-19.932c1.171-4.089,3.168-10.27,4.281-12.495
					c1.112-2.225,3.388-3.028,6.818-4.048c3.43-1.02,4.912,10.076,5.5,11.742c3.149,8.919,1.325,17.768,0.124,26.883
					c-1.029,7.808-1.143,15.704-3.397,23.237c-1.227,4.101-2.636,8.149-4.224,12.132c-1.066,2.673-2.519,7.221-4.649,11.126
					c0.806,0.637,1.529,1.223,2.128,1.682c6.222,4.769,11.767,11.921,16.781,17.948c3.818,4.589,10.045,9.245,11.183,15.254
					c0.957,5.052-3.862,6.698-8.047,6.635c-6.482-0.098-11.944-4.043-16.472-8.302c-7.232-6.803-16.873-20.761-20.177-29.467
					c-0.424-0.867-0.714-1.854-0.904-2.909C308.54,401.949,308.449,401.204,308.47,400.568z"/>
				<path style="fill:#C897F7;" d="M336.539,364.749c-0.198,0.01-0.402,0.038-0.618,0.1c-5.814,1.668-12.948-1.942-18.048-4.378
					c-1.387-0.662-2.757-1.356-4.116-2.071c0.334-1.704,0.68-3.406,1.044-5.104c1.435-6.697,3.097-13.347,4.983-19.932
					c1.171-4.089,3.168-10.27,4.281-12.495c1.112-2.225,4.037-4.604,7.869-5.531c3.478-0.841,5.175,9.719,5.763,11.386
					c3.149,8.919,1.542,19.793,0.341,28.908C337.634,358.688,337.133,361.729,336.539,364.749z"/>
			</g>
		</g>
		<path style="fill:#EDBA62;" d="M401.853,252.11c-0.164-6.666-4.618-23.254-26.582-23.254c-21.964,0-26.744,16.595-27.108,22.78
			c-0.364,6.185,4.176,33.104,10.46,38.209c2.878,2.338,9.736,6.969,16.444,6.969s13.646-4.631,16.524-6.969
			C397.875,284.74,402.017,258.776,401.853,252.11z"/>
		<g>
			<g>
				<g>
					<path style="fill:#5A88C4;" d="M393.618,263.674c-1.133-1.208-2.732-1.895-4.311-2.427c-1.754-0.59-3.578-1.041-5.429-1.042
						c-1.025-0.001-2.215,0.181-2.966,0.948c-0.771,0.788-0.713,1.916,0.197,2.57c0.017,0.012,0.035,0.02,0.052,0.031
						c1.217,1.147,3.534,0.666,5.029,0.693c1.883,0.035,3.815,0.291,5.477,1.236c0.387,0.22,0.76,0.477,1.187,0.604
						c0.427,0.127,0.933,0.099,1.259-0.205c0.294-0.274,0.379-0.721,0.296-1.114c-0.084-0.393-0.313-0.739-0.57-1.047
						C393.767,263.837,393.694,263.754,393.618,263.674z"/>
					<path style="fill:#3A2C48;" d="M389.178,269.992c0,1.363-1.105,2.468-2.468,2.468s-2.468-1.105-2.468-2.468
						c0-1.363,1.105-2.468,2.468-2.468S389.178,268.629,389.178,269.992z"/>
				</g>
				<g>
					<path style="fill:#5A88C4;" d="M356.162,263.922c-0.258,0.308-0.487,0.655-0.57,1.047c-0.084,0.393,0.001,0.84,0.296,1.114
						c0.326,0.303,0.832,0.332,1.259,0.205c0.427-0.127,0.8-0.384,1.187-0.604c1.662-0.945,3.594-1.201,5.477-1.236
						c1.495-0.028,3.812,0.454,5.029-0.693c0.017-0.012,0.035-0.019,0.052-0.031c0.911-0.655,0.968-1.783,0.197-2.57
						c-0.751-0.767-1.941-0.948-2.966-0.948c-1.851,0.001-3.675,0.452-5.429,1.042c-1.579,0.531-3.178,1.219-4.311,2.427
						C356.306,263.754,356.233,263.837,356.162,263.922z"/>
					<path style="fill:#3A2C48;" d="M360.822,269.992c0,1.363,1.105,2.468,2.468,2.468s2.468-1.105,2.468-2.468
						c0-1.363-1.105-2.468-2.468-2.468S360.822,268.629,360.822,269.992z"/>
				</g>
			</g>
			<g>
				<path style="fill:#E38562;" d="M375.065,279.896c-1.206,0.071-2.945,0.26-3.366-1.34c-0.198-0.751,0.567-2.545,0.738-3.32
					c0.432-1.955,0.953-3.923,1.013-5.932c0.005-0.154-0.238-0.235-0.306-0.083c-0.813,1.83-1.201,3.811-1.658,5.753
					c-0.273,1.162-1.095,2.958-0.861,4.111c0.372,1.834,3.219,2.389,4.605,1.423C375.476,280.337,375.416,279.876,375.065,279.896z"
					/>
				<path style="fill:#E38562;" d="M378.143,278.699c-0.084-0.318-0.52-0.361-0.685-0.09c-0.313,0.513-0.518,0.928-1.12,1.15
					c-0.372,0.137-0.295,0.631,0.091,0.672C377.341,280.53,378.398,279.667,378.143,278.699z"/>
			</g>
			<path style="fill:#E38562;" d="M381.541,282.799c-2.531,1.043-4.751,3.462-7.646,3.077c-2.457-0.327-4.536-2.225-6.982-2.753
				c-0.134-0.029-0.286,0.121-0.194,0.253c1.548,2.21,4.746,4.216,7.469,4.458c2.909,0.259,6.359-1.929,7.971-4.231
				C382.418,283.233,381.979,282.618,381.541,282.799z"/>
		</g>
		<path style="fill:#5A88C4;" d="M407.223,252.016c-0.433-5.048-1.55-10.084-3.817-14.642c-4.039-8.122-11.113-13.275-19.99-14.879
			c-5.433-0.982-16.429-1.707-18.293,5.128c-0.258-0.175-0.598-0.244-0.911-0.187c-7.397,1.353-13.529,9.809-17.51,15.65
			c-2.159,3.168-7.358,14.529-1.186,16.528c2.355,0.763,4.822-1.368,6.22-2.955c1.413-1.604,2.208-3.498,3.304-5.287
			c0.963-1.572,1.773-2.008,3.282-3c4.785-3.142,6.566-8.165,6.547-13.473c0.21-1.174,0.362-2.36,0.467-3.553
			c1.574,5.529,5.142,12.597,9.789,15.327c2.304,1.354,4.266,1.043,5.226-0.363c1.712,3.208,4.175,6.561,7.719,6.663
			c1.478,0.043,2.698-0.503,3.462-1.403c2.523,5.6,7.634,12.822,13.555,8.787C407.877,258.457,407.48,255.019,407.223,252.016z"/>
		<g>
			<g>
				<path style="fill:#EDBA62;" d="M337.548,260.704c0.463-1.294,1.166-2.552,2.273-3.367c0.754-0.555,1.659-0.871,2.579-1.05
					c0.052-0.01,0.104-0.025,0.156-0.034c0.632-0.112,1.276-0.146,1.918-0.122c1.397,0.052,2.785,0.407,4.027,1.035
					c0.588,0.298,1.139,0.66,1.648,1.073c0.605,0.491,1.148,1.056,1.587,1.71l1.098,11.664c-0.599,1.511-1.812,2.743-3.254,3.493
					c-1.442,0.751-3.1,1.038-4.724,0.961c-0.953-0.045-1.915-0.217-2.762-0.656c-0.72-0.372-1.333-0.924-1.881-1.521
					C337.026,270.417,335.96,265.14,337.548,260.704z"/>
				<path style="fill:#E38562;" d="M339.414,264.548c0.089,2.403,1.11,5.819,3.688,7.537c0.857,0.569,1.814,0.874,2.688,0.874
					c0.283,0,0.557-0.032,0.817-0.098c0.822-0.206,1.481-0.737,1.908-1.535c0.084-0.157-0.005-0.311-0.184-0.618
					c-0.251-0.434-0.673-1.158-0.392-1.677c0.277-0.511,0.839-0.661,1.211-0.763c0.272-0.073,0.486-0.13,0.516-0.342
					c0.282-1.986-0.385-4.819-0.842-5.699c-0.893-1.917-3.428-3.128-5.722-2.797C340.759,259.785,339.31,261.793,339.414,264.548z
					 M343.862,264.37c-0.8,0.736-1.627,1.495-2.133,2.617c-0.137,0.305-0.228,0.624-0.272,0.952
					c-0.392-0.891-0.655-1.853-0.759-2.782c-0.165-1.481,0.12-2.738,0.801-3.54c0.548-0.645,1.345-0.999,2.365-1.049
					c0.741-0.029,1.483,0.108,2.195,0.435C345.841,262.552,344.879,263.435,343.862,264.37z M343.683,270.837
					c-0.088-0.11-0.861-1.1-0.968-1.903c-0.189-1.4,0.487-2.062,1.345-2.9l0.265-0.26c0.209-0.209,0.427-0.415,0.645-0.621
					c0.526-0.496,1.068-1.011,1.515-1.583c0.255-0.327,0.747-1.053,0.761-1.797c0.334,0.322,0.646,0.739,0.737,1.063
					c0.174,0.629,0.721,2.765,0.643,4.432c-0.624,0.184-1.632,0.705-1.826,1.642c-0.208,0.989,0.251,1.879,0.423,2.214
					c0.008,0.017,0.017,0.034,0.023,0.047c-0.091,0.15-0.45,0.412-1.016,0.542C345.757,271.817,344.569,271.949,343.683,270.837z"/>
			</g>
			<g>
				<path style="fill:#EDBA62;" d="M412.452,260.704c-0.463-1.294-1.166-2.552-2.273-3.367c-0.754-0.555-1.659-0.871-2.579-1.05
					c-0.052-0.01-0.104-0.025-0.156-0.034c-0.632-0.112-1.276-0.146-1.918-0.122c-1.397,0.052-2.785,0.407-4.027,1.035
					c-0.588,0.298-1.139,0.66-1.648,1.073c-0.605,0.491-1.148,1.056-1.587,1.71l-1.098,11.664c0.599,1.511,1.812,2.743,3.254,3.493
					c1.442,0.751,3.1,1.038,4.724,0.961c0.953-0.045,1.915-0.217,2.762-0.656c0.72-0.372,1.333-0.924,1.881-1.521
					C412.974,270.417,414.04,265.14,412.452,260.704z"/>
				<path style="fill:#E38562;" d="M406.896,259.43c-2.293-0.331-4.829,0.881-5.721,2.797c-0.457,0.881-1.124,3.714-0.842,5.699
					c0.03,0.212,0.245,0.27,0.516,0.342c0.373,0.101,0.935,0.251,1.211,0.763c0.282,0.52-0.14,1.243-0.392,1.677
					c-0.179,0.307-0.268,0.461-0.184,0.618c0.427,0.798,1.086,1.329,1.908,1.535c0.26,0.066,0.533,0.098,0.817,0.098
					c0.874,0,1.831-0.305,2.688-0.874c2.578-1.717,3.599-5.134,3.688-7.537C410.69,261.793,409.241,259.785,406.896,259.43z
					 M403.94,261.002c0.712-0.327,1.454-0.464,2.195-0.435c1.021,0.051,1.817,0.405,2.365,1.049c0.682,0.801,0.967,2.059,0.802,3.54
					c-0.105,0.93-0.368,1.891-0.759,2.782c-0.044-0.327-0.135-0.646-0.272-0.952c-0.506-1.122-1.333-1.881-2.133-2.617
					C405.121,263.435,404.159,262.552,403.94,261.002z M403.769,271.712c-0.565-0.13-0.924-0.392-1.016-0.542
					c0.007-0.014,0.015-0.03,0.023-0.047c0.172-0.334,0.631-1.225,0.423-2.214c-0.194-0.936-1.201-1.458-1.826-1.642
					c-0.078-1.667,0.469-3.803,0.643-4.432c0.091-0.324,0.403-0.741,0.737-1.063c0.013,0.744,0.506,1.47,0.761,1.797
					c0.447,0.572,0.989,1.087,1.515,1.583c0.218,0.206,0.435,0.412,0.645,0.621l0.265,0.26c0.857,0.839,1.534,1.5,1.345,2.9
					c-0.108,0.803-0.881,1.794-0.968,1.903C405.431,271.949,404.243,271.817,403.769,271.712z"/>
			</g>
		</g>
		<g>
			<g>
				<path style="fill:#3A2C48;" d="M428.239,450.045H321.761c-2.514,0-4.552-2.038-4.552-4.552v-10.16h115.581v10.16
					C432.791,448.007,430.753,450.045,428.239,450.045z"/>
				<path style="fill:#213C5E;" d="M432.779,445.716h-115.57v-52.432c0-4.219,3.42-7.638,7.638-7.638h100.293
					c4.218,0,7.638,3.42,7.638,7.638V445.716z"/>
			</g>
			<path style="fill:#3A2C48;" d="M387.415,417.806c0,3.183-5.558,5.764-12.415,5.764s-12.415-2.581-12.415-5.764
				c0-3.183,5.558-5.764,12.415-5.764S387.415,414.623,387.415,417.806z"/>
		</g>
		<g>
			<path style="fill:#4777B5;" d="M364.963,228.164c-0.042-0.052-0.146-0.052-0.188,0c-0.51,0.635-0.353,1.55-0.344,2.311
				c0.007,0.563,0.868,0.564,0.875,0C365.316,229.714,365.473,228.799,364.963,228.164z"/>
			<path style="fill:#4777B5;" d="M380.236,244.379c-2.295-1.329-4.568-2.377-6.362-4.409c-0.878-0.995-1.551-2.124-2.146-3.305
				c-0.391-0.777-0.435-1.5-1.237-1.83c-0.019-0.008-0.047,0.001-0.061,0.016c-1.383,1.493,1.243,5.151,2.207,6.355
				c1.77,2.21,4.386,4.173,7.311,4.234C380.517,245.454,380.72,244.659,380.236,244.379z"/>
			<path style="fill:#4777B5;" d="M402.03,242.006c-4.402-11.75-18.709-20.573-30.834-15.163c-0.256,0.114-0.064,0.476,0.18,0.428
				c6.443-1.255,12.971-0.437,18.553,3.156c4.759,3.063,7.667,7.573,10.872,12.097C401.207,243.097,402.317,242.773,402.03,242.006z
				"/>
			<path style="fill:#4777B5;" d="M399.868,249.084c-1.953-7.231-9.482-10.904-15.838-13.427c-0.383-0.152-0.665,0.506-0.283,0.671
				c6.606,2.854,11.028,7.292,14.664,13.37C398.873,250.469,400.106,249.966,399.868,249.084z"/>
			<path style="fill:#4777B5;" d="M392.275,248.895c-2.967-1.396-5.612-2.366-7.099-5.546c-0.192-0.412-0.919-0.114-0.742,0.313
				c1.242,3.003,3.964,6.403,7.495,6.514C392.582,250.197,392.901,249.19,392.275,248.895z"/>
			<path style="fill:#4777B5;" d="M358.557,239.266c-0.197-0.761-1.293-0.431-1.16,0.32c0.754,4.248-5.301,7.428-7.663,10.127
				c-0.532,0.608,0.134,1.556,0.88,1.141c2.43-1.351,4.699-3.693,6.392-5.873C358.322,243.285,359.11,241.396,358.557,239.266z"/>
			<path style="fill:#4777B5;" d="M357.694,235.451c-5.042,3.485-8.713,7.692-10.808,13.523c-0.204,0.567,0.691,0.938,0.971,0.409
				c2.624-4.953,5.896-9.887,9.951-13.786C357.883,235.526,357.783,235.389,357.694,235.451z"/>
			<path style="fill:#4777B5;" d="M349.597,279.244c-0.022-0.369-0.634-0.508-0.691-0.094c-0.508,3.749-1.933,7.985-1.291,11.803
				c0.092,0.547,0.981,0.661,1.214,0.159C350.48,287.538,349.819,283.012,349.597,279.244z"/>
			<path style="fill:#4777B5;" d="M356.297,289.668c-0.06-0.659-1.049-0.686-1.047,0c0.008,2.356-0.088,4.685,0.398,7.003
				c0.117,0.558,0.867,0.362,0.921-0.125C356.826,294.241,356.508,291.965,356.297,289.668z"/>
			<path style="fill:#4777B5;" d="M392.366,291.882c0.041-0.518-0.791-0.627-0.906-0.122c-0.277,1.223-0.758,2.169-0.806,3.454
				c-0.04,1.087,0.019,2.056,0.702,2.926c0.253,0.322,0.904,0.237,1.068-0.138C393.276,296.055,392.208,293.882,392.366,291.882z"/>
			<path style="fill:#4777B5;" d="M401.92,279.025c-0.003-0.349-0.496-0.333-0.531,0c-0.578,5.52-1.921,11.037-1.366,16.631
				c0.085,0.855,1.431,1.209,1.627,0.22C402.754,290.304,401.965,284.632,401.92,279.025z"/>
		</g>
	</g>
</g>
<g id="DESIGNED_BY_FREEPIK">
	<g>
		<g id="XMLID_319_">
			<g id="XMLID_338_">
				<path id="XMLID_346_" style="fill:#1D262D;" d="M385.104,465.465c-0.432,0.443-0.803,0.931-1.108,1.453l-0.465-0.241
					c-0.067-0.298-0.349-0.503-0.659-0.466c-0.331,0.039-0.568,0.339-0.529,0.67c0.039,0.331,0.339,0.568,0.67,0.529
					c0.066-0.008,0.127-0.026,0.184-0.052l0.451,0.234c-0.251,0.554-0.433,1.139-0.539,1.744l0.747,0.132
					c0.23-1.306,0.85-2.507,1.792-3.473L385.104,465.465z"/>
				<path id="XMLID_345_" style="fill:#1D262D;" d="M390.592,463.163c-0.171,0-0.341,0.006-0.51,0.017l-0.074-0.626
					c0.188-0.149,0.296-0.389,0.266-0.645c-0.046-0.393-0.402-0.674-0.795-0.628c-0.393,0.046-0.674,0.402-0.628,0.795
					c0.03,0.254,0.189,0.461,0.404,0.564l0.074,0.624c-0.714,0.116-1.403,0.332-2.06,0.646l0.327,0.684
					c0.934-0.447,1.942-0.673,2.995-0.673c0.496,0,0.993,0.053,1.475,0.158l0.161-0.741
					C391.692,463.222,391.142,463.163,390.592,463.163z"/>
				<path id="XMLID_344_" style="fill:#1D262D;" d="M397.194,465.711c0.331-0.04,0.566-0.341,0.526-0.672
					c-0.04-0.331-0.341-0.566-0.672-0.526c-0.309,0.038-0.535,0.304-0.53,0.609l-0.416,0.363c-0.418-0.43-0.889-0.813-1.408-1.139
					l-0.404,0.641c1.134,0.715,2.021,1.726,2.563,2.925l0.69-0.313c-0.251-0.554-0.567-1.072-0.942-1.545l0.402-0.351
					C397.065,465.716,397.129,465.719,397.194,465.711z"/>
				<path id="XMLID_343_" style="fill:#1D262D;" d="M390.044,473.372c-0.386,0.023-0.775,0.035-1.157,0.035
					c-0.88,0-1.733-0.061-2.478-0.179c-0.39-0.062-0.846-0.155-1.27-0.292c1.046,1.861,3.069,3.125,5.388,3.125
					c2.855,0,5.262-1.916,5.95-4.504c-0.682,0.449-1.505,0.825-2.459,1.123C392.839,473.047,391.463,473.286,390.044,473.372z"/>
				<path id="XMLID_339_" style="fill:#1D262D;" d="M390.592,464.68c-3.352,0-6.08,2.666-6.08,5.943
					c0,0.426,0.046,0.849,0.137,1.261c0.673,0.483,2.706,0.89,5.348,0.731c2.879-0.173,5.297-0.957,6.672-2.159
					c-0.006-0.195-0.021-0.39-0.045-0.582C396.244,466.913,393.65,464.68,390.592,464.68z M388.432,471.194
					c-1.02,0-1.85-0.83-1.85-1.85c0-1.02,0.83-1.85,1.85-1.85c1.02,0,1.85,0.83,1.85,1.85
					C390.282,470.365,389.452,471.194,388.432,471.194z M393.17,470.286c-0.75,0-1.36-0.61-1.36-1.36s0.61-1.361,1.36-1.361
					c0.75,0,1.361,0.61,1.361,1.361S393.92,470.286,393.17,470.286z"/>
			</g>
			<path id="XMLID_336_" style="fill:#1D262D;" d="M406.595,466.547c-0.295-0.116-0.805-0.309-1.382-0.237
				c-0.551,0.069-0.844,0.341-0.844,1.007v0.866h2.228v1.717h-2.228v5.455h-1.932v-5.455h-1.34v-1.717h1.34v-0.888
				c0-1.68,0.896-2.783,2.568-2.783c0.643,0,1.157,0.122,1.59,0.308L406.595,466.547z"/>
			<path id="XMLID_334_" style="fill:#1D262D;" d="M411.298,469.879c-0.177-0.03-0.358-0.046-0.526-0.046
				c-0.896,0-1.51,0.548-1.51,1.614v3.908h-1.932v-7.172h1.873v0.785c0.451-0.673,1.14-0.977,2.021-0.977
				c0.414,0,0.848,0.128,1.094,0.337L411.298,469.879z"/>
			<path id="XMLID_331_" style="fill:#1D262D;" d="M418.965,471.757c0,0.222-0.015,0.489-0.037,0.651h-5.085
				c0.207,1.036,0.933,1.488,1.843,1.488c0.622,0,1.295-0.252,1.813-0.688l1.133,1.243c-0.814,0.748-1.85,1.088-3.057,1.088
				c-2.198,0-3.723-1.495-3.723-3.753c0-2.258,1.48-3.797,3.627-3.797C417.544,467.99,418.958,469.522,418.965,471.757z
				 M413.851,471.091h3.175c-0.177-0.918-0.733-1.436-1.562-1.436C414.554,469.655,414.021,470.203,413.851,471.091z"/>
			<path id="XMLID_328_" style="fill:#1D262D;" d="M426.618,471.757c0,0.222-0.015,0.489-0.037,0.651h-5.085
				c0.207,1.036,0.932,1.488,1.843,1.488c0.622,0,1.295-0.252,1.814-0.688l1.132,1.243c-0.814,0.748-1.85,1.088-3.057,1.088
				c-2.198,0-3.723-1.495-3.723-3.753c0-2.258,1.48-3.797,3.627-3.797C425.197,467.99,426.611,469.522,426.618,471.757z
				 M421.504,471.091h3.175c-0.178-0.918-0.733-1.436-1.562-1.436C422.207,469.655,421.674,470.203,421.504,471.091z"/>
			<path id="XMLID_325_" style="fill:#1D262D;" d="M434.964,471.764c0,2.154-1.495,3.775-3.471,3.775
				c-0.962,0-1.643-0.378-2.109-0.933v3.708h-1.924v-10.133h1.887v0.792c0.466-0.585,1.155-0.984,2.139-0.984
				C433.469,467.99,434.964,469.61,434.964,471.764z M429.287,471.764c0,1.132,0.747,1.976,1.843,1.976
				c1.14,0,1.85-0.881,1.85-1.976c0-1.095-0.71-1.976-1.85-1.976C430.035,469.788,429.287,470.632,429.287,471.764z"/>
			<path id="XMLID_322_" style="fill:#1D262D;" d="M438.068,465.836c0,0.696-0.54,1.229-1.236,1.229
				c-0.696,0-1.229-0.533-1.229-1.229c0-0.696,0.533-1.243,1.229-1.243C437.527,464.592,438.068,465.14,438.068,465.836z
				 M437.809,475.354h-1.932v-7.172h1.932V475.354z"/>
			<path id="XMLID_320_" style="fill:#1D262D;" d="M441.032,470.736l2.701-2.554h2.368l-3.479,3.375l3.501,3.797h-2.376
				l-2.716-2.901v2.901H439.1v-10.658h1.932V470.736z"/>
		</g>
		<g>
			<path style="fill:#1D262D;" d="M309.412,475.289v-1.055c-0.527,0.718-1.391,1.23-2.387,1.23c-1.846,0-3.149-1.406-3.149-3.706
				c0-2.256,1.289-3.721,3.149-3.721c0.952,0,1.816,0.469,2.387,1.245v-3.765h1.099v9.77H309.412z M309.412,473.37v-3.208
				c-0.395-0.615-1.245-1.143-2.124-1.143c-1.421,0-2.27,1.172-2.27,2.739c0,1.567,0.85,2.724,2.27,2.724
				C308.168,474.483,309.017,473.986,309.412,473.37z"/>
			<path style="fill:#1D262D;" d="M311.932,471.744c0-2.051,1.465-3.706,3.486-3.706c2.139,0,3.398,1.67,3.398,3.794v0.279h-5.727
				c0.088,1.333,1.026,2.446,2.549,2.446c0.805,0,1.626-0.322,2.182-0.894l0.527,0.718c-0.703,0.703-1.655,1.084-2.812,1.084
				C313.44,475.465,311.932,473.956,311.932,471.744z M315.404,468.947c-1.509,0-2.256,1.274-2.315,2.358h4.643
				C317.718,470.25,317.015,468.947,315.404,468.947z"/>
			<path style="fill:#1D262D;" d="M319.607,474.351l0.571-0.791c0.469,0.542,1.362,1.011,2.329,1.011c1.084,0,1.67-0.513,1.67-1.216
				c0-1.714-4.38-0.659-4.38-3.281c0-1.098,0.952-2.036,2.636-2.036c1.201,0,2.051,0.454,2.622,1.026l-0.513,0.762
				c-0.424-0.513-1.201-0.894-2.109-0.894c-0.967,0-1.567,0.483-1.567,1.113c0,1.552,4.38,0.527,4.38,3.281
				c0,1.187-0.952,2.138-2.783,2.138C321.306,475.465,320.325,475.113,319.607,474.351z"/>
			<path style="fill:#1D262D;" d="M326.477,466.471c0-0.41,0.337-0.747,0.732-0.747c0.41,0,0.747,0.337,0.747,0.747
				c0,0.41-0.337,0.732-0.747,0.732C326.814,467.203,326.477,466.881,326.477,466.471z M326.667,475.289v-7.075h1.099v7.075H326.667
				z"/>
			<path style="fill:#1D262D;" d="M329.582,477.105l0.556-0.82c0.586,0.703,1.289,0.967,2.3,0.967c1.172,0,2.27-0.571,2.27-2.124
				v-1.011c-0.513,0.718-1.377,1.26-2.373,1.26c-1.845,0-3.149-1.377-3.149-3.662c0-2.27,1.289-3.677,3.149-3.677
				c0.952,0,1.802,0.469,2.373,1.245v-1.069h1.099v6.87c0,2.344-1.641,3.076-3.369,3.076
				C331.237,478.16,330.417,477.926,329.582,477.105z M334.709,473.253v-3.091c-0.381-0.615-1.23-1.143-2.109-1.143
				c-1.421,0-2.27,1.128-2.27,2.695c0,1.553,0.849,2.695,2.27,2.695C333.478,474.41,334.328,473.868,334.709,473.253z"/>
			<path style="fill:#1D262D;" d="M342.413,475.289v-4.629c0-1.245-0.63-1.641-1.582-1.641c-0.865,0-1.685,0.527-2.095,1.099v5.17
				h-1.099v-7.075h1.099v1.025c0.498-0.586,1.465-1.201,2.519-1.201c1.48,0,2.256,0.747,2.256,2.285v4.966H342.413z"/>
			<path style="fill:#1D262D;" d="M344.932,471.744c0-2.051,1.465-3.706,3.486-3.706c2.138,0,3.398,1.67,3.398,3.794v0.279h-5.727
				c0.088,1.333,1.025,2.446,2.549,2.446c0.806,0,1.626-0.322,2.183-0.894l0.527,0.718c-0.703,0.703-1.655,1.084-2.812,1.084
				C346.441,475.465,344.932,473.956,344.932,471.744z M348.404,468.947c-1.509,0-2.256,1.274-2.314,2.358h4.643
				C350.718,470.25,350.015,468.947,348.404,468.947z"/>
			<path style="fill:#1D262D;" d="M358.35,475.289v-1.055c-0.527,0.718-1.392,1.23-2.388,1.23c-1.845,0-3.149-1.406-3.149-3.706
				c0-2.256,1.289-3.721,3.149-3.721c0.952,0,1.817,0.469,2.388,1.245v-3.765h1.098v9.77H358.35z M358.35,473.37v-3.208
				c-0.396-0.615-1.245-1.143-2.124-1.143c-1.421,0-2.27,1.172-2.27,2.739c0,1.567,0.849,2.724,2.27,2.724
				C357.105,474.483,357.954,473.986,358.35,473.37z"/>
			<path style="fill:#1D262D;" d="M364.692,475.289v-9.77h1.099v3.765c0.572-0.776,1.421-1.245,2.388-1.245
				c1.845,0,3.149,1.465,3.149,3.721c0,2.299-1.304,3.706-3.149,3.706c-0.996,0-1.86-0.513-2.388-1.23v1.055H364.692z
				 M367.9,474.483c1.436,0,2.286-1.157,2.286-2.724c0-1.568-0.85-2.739-2.286-2.739c-0.864,0-1.728,0.527-2.109,1.143v3.208
				C366.171,473.986,367.036,474.483,367.9,474.483z"/>
			<path style="fill:#1D262D;" d="M372.529,477.061c0.161,0.073,0.425,0.117,0.601,0.117c0.483,0,0.806-0.161,1.055-0.747
				l0.469-1.069l-2.959-7.148h1.187l2.358,5.8l2.344-5.8h1.201l-3.545,8.51c-0.425,1.025-1.143,1.421-2.08,1.435
				c-0.234,0-0.601-0.044-0.806-0.103L372.529,477.061z"/>
		</g>
	</g>
</g>
</svg>
