<?xml version="1.0" encoding="utf-8"?>
<!-- Generator: Adobe Illustrator 27.5.0, SVG Export Plug-In . SVG Version: 6.00 Build 0)  -->
<svg version="1.1" xmlns="http://www.w3.org/2000/svg" xmlns:xlink="http://www.w3.org/1999/xlink" x="0px" y="0px"
	 viewBox="0 0 841.89 694.488" style="enable-background:new 0 0 841.89 694.488;" xml:space="preserve">
<g id="refs">
</g>
<g id="BG">
	<rect y="0" style="fill:#B8E5C2;" width="841.889" height="694.488"/>
</g>
<g id="Graphics">
	<g>
		<g>
			<path style="fill:#FF6D3A;" d="M412.16,369.131h0.2c1.921,0,3.483-1.563,3.483-3.483v-0.641c0-0.753-0.294-1.46-0.83-1.989
				c-0.535-0.527-1.244-0.826-1.995-0.806l-0.858,0.01V369.131z"/>
			<path style="fill:#FF6D3A;" d="M405.919,356.037c0,0.923,0.362,1.79,1.018,2.438c0.653,0.646,1.524,1.005,2.434,0.988v-6.908
				C407.464,352.573,405.919,354.127,405.919,356.037z"/>
			<path style="fill:#FF6D3A;" d="M410.882,341.491c-10.688,0-19.351,8.663-19.351,19.35s8.663,19.352,19.351,19.352
				c10.686,0,19.351-8.664,19.351-19.352S421.568,341.491,410.882,341.491z M412.985,359.423c1.521,0.011,2.92,0.555,3.991,1.61
				c1.067,1.059,1.656,2.469,1.656,3.974v0.641c0,3.459-2.812,6.273-6.272,6.273h-0.2v2.083h-2.79v-2.083h-0.41
				c-3.216,0-5.831-2.615-5.831-5.83h2.789c0,1.676,1.365,3.04,3.042,3.04h0.41v-6.879c-1.658,0.009-3.214-0.629-4.393-1.793
				c-1.19-1.177-1.847-2.748-1.847-4.422c0-3.449,2.798-6.255,6.241-6.273v-2.084h2.79v2.083h0.644c3.214,0,5.828,2.616,5.828,5.83
				h-2.789c0-1.676-1.362-3.04-3.039-3.04h-0.644v6.88L412.985,359.423z"/>
		</g>
		<g>
			<path style="fill:#264059;" d="M226.082,276.087c0.036-0.216-0.225-0.35-0.379-0.196l-3.436,3.435
				c-0.323,0.325-0.544,0.743-0.626,1.194l-0.529,2.906l4.474-4.475L226.082,276.087z"/>
			<path style="fill:#264059;" d="M229.007,279.011c0.215-0.035,0.351,0.226,0.196,0.382l-3.435,3.435
				c-0.325,0.323-0.743,0.541-1.195,0.626l-2.906,0.528l4.474-4.476L229.007,279.011z"/>
			<g>
				<path style="fill:#FFFFFF;" d="M225.194,295.165c0,8.468-6.863,15.332-15.332,15.332c-8.467,0-15.331-6.864-15.331-15.332
					s6.864-15.33,15.331-15.33C218.331,279.833,225.194,286.697,225.194,295.165z"/>
				<path style="fill:#17C5CC;" d="M209.864,308.275c-7.23,0-13.11-5.881-13.11-13.109c0-7.227,5.88-13.107,13.108-13.107
					c7.229-0.003,13.109,5.88,13.109,13.107C222.971,302.394,217.091,308.275,209.864,308.275z M209.862,283.91
					c-6.206,0-11.256,5.049-11.256,11.255c0,6.207,5.05,11.256,11.256,11.256c6.207,0,11.256-5.049,11.256-11.256
					C221.118,288.959,216.069,283.91,209.862,283.91z"/>
				<path style="fill:#17C5CC;" d="M209.862,303.573c-4.636,0-8.408-3.772-8.408-8.408s3.772-8.407,8.408-8.407
					c4.636,0,8.407,3.771,8.407,8.407S214.499,303.573,209.862,303.573z M209.862,288.61c-3.615,0-6.554,2.94-6.554,6.555
					c0,3.615,2.939,6.555,6.554,6.555c3.616,0,6.556-2.939,6.556-6.555C216.418,291.551,213.477,288.61,209.862,288.61z"/>
				<path style="fill:#14A797;" d="M212.981,295.165c0,1.723-1.396,3.119-3.119,3.119c-1.723,0-3.119-1.397-3.119-3.119
					c0-1.722,1.396-3.118,3.119-3.118C211.585,292.047,212.981,293.443,212.981,295.165z"/>
			</g>
			<path style="fill:#CCCCCC;" d="M214.966,294.587l0.89-1.061l-5.363,1.214c0,0-0.261,0.475-0.22,0.547l5.583,1.263l-0.989-1.177
				h10.323c0-0.07,0.005-0.139,0.005-0.208c0-0.193-0.007-0.386-0.015-0.578H214.966z"/>
			<polygon style="fill:#FF6D3A;" points="226.15,279.516 212.649,293.018 212.077,292.446 225.579,278.943 			"/>
			<path style="fill:#264059;" d="M212.979,290.06l-3.098,4.91c0.007,0.01,0.014,0.02,0.023,0.027l0.104,0.103
				c0.076,0.076,0.169,0.126,0.268,0.154l4.84-3.056l-1.966-0.171L212.979,290.06z"/>
		</g>
		<g>
			<path style="fill:#264059;" d="M211.251,234.463c-0.261,0.126-0.369,0.44-0.243,0.7l0.531,1.093
				c-0.32,0.234-0.629,0.489-0.922,0.77c-0.28,0.27-0.535,0.558-0.773,0.855l-1.07-0.571c-0.255-0.137-0.572-0.04-0.708,0.216
				l-0.99,1.851c-0.136,0.254-0.04,0.571,0.216,0.709l1.055,0.563c-0.242,0.751-0.383,1.533-0.418,2.321l-1.181,0.163
				c-0.287,0.04-0.488,0.306-0.449,0.593l0.288,2.079c0.04,0.285,0.304,0.486,0.591,0.446l1.184-0.164
				c0.125,0.379,0.271,0.754,0.449,1.119c0.171,0.347,0.369,0.68,0.582,1.002l-0.862,0.829c-0.208,0.202-0.214,0.534-0.015,0.743
				l1.453,1.511c0.203,0.209,0.533,0.216,0.743,0.016l0.862-0.83c0.651,0.468,1.35,0.839,2.08,1.108l-0.211,1.182
				c-0.051,0.285,0.139,0.558,0.424,0.608l2.064,0.369c0.285,0.051,0.558-0.14,0.609-0.424l0.213-1.196
				c0.783-0.005,1.565-0.111,2.324-0.323l0.532,1.095c0.127,0.261,0.439,0.369,0.7,0.243l1.887-0.915
				c0.262-0.128,0.37-0.44,0.244-0.701l-0.535-1.103c0.305-0.224,0.599-0.47,0.879-0.739c0.292-0.279,0.555-0.578,0.8-0.887
				l1.088,0.581c0.255,0.137,0.573,0.04,0.709-0.215l0.989-1.85c0.137-0.256,0.041-0.573-0.214-0.71l-1.09-0.582
				c0.238-0.745,0.374-1.517,0.408-2.298l1.227-0.169c0.287-0.041,0.487-0.305,0.448-0.592l-0.288-2.078
				c-0.039-0.287-0.303-0.487-0.59-0.447l-1.236,0.171c-0.124-0.373-0.267-0.742-0.444-1.104c-0.167-0.344-0.362-0.672-0.573-0.99
				l0.9-0.863c0.208-0.202,0.215-0.534,0.015-0.743l-1.453-1.512c-0.202-0.209-0.533-0.216-0.742-0.015l-0.896,0.861
				c-0.642-0.464-1.333-0.833-2.055-1.102l0.219-1.219c0.051-0.287-0.139-0.56-0.425-0.61l-2.064-0.369
				c-0.285-0.051-0.557,0.14-0.607,0.424l-0.218,1.219c-0.779,0.001-1.558,0.102-2.316,0.308l-0.536-1.101
				c-0.126-0.261-0.439-0.37-0.699-0.243L211.251,234.463z M214.773,239.564c2.113-1.033,4.666-0.156,5.698,1.959
				c1.034,2.114,0.156,4.666-1.958,5.698c-2.113,1.033-4.665,0.156-5.697-1.959C211.782,243.15,212.659,240.598,214.773,239.564z"/>
			<g>
				<path style="fill:#264059;" d="M179.226,229.786l1.28-0.412c-0.102-0.979-0.097-1.814,0.006-2.785l-1.278-0.418
					c-0.703-0.231-1.107-1.021-0.876-1.732l0.994-3.033c0.238-0.719,1.015-1.112,1.732-0.876l1.277,0.418
					c0.473-0.803,1.024-1.556,1.646-2.245l-0.79-1.094c-0.17-0.235-0.259-0.513-0.259-0.803l0,0c0-0.441,0.212-0.856,0.568-1.113
					l2.586-1.867c0.298-0.215,0.662-0.302,1.023-0.243c0.361,0.058,0.68,0.254,0.894,0.551l0.804,1.114
					c0.438-0.193,0.853-0.352,1.26-0.482c0.442-0.143,0.902-0.264,1.375-0.364l0.004-1.374c0-0.366,0.144-0.711,0.404-0.97
					c0.261-0.261,0.606-0.4,0.972-0.399l3.19,0.007c0.756,0.003,1.37,0.619,1.37,1.378l-0.004,1.394
					c0.891,0.201,1.765,0.494,2.608,0.869l0.831-1.136c0.448-0.61,1.307-0.744,1.92-0.298l2.575,1.882
					c0.589,0.431,0.73,1.329,0.298,1.92l-0.833,1.14c0.603,0.683,1.139,1.429,1.601,2.226l1.35-0.434
					c0.349-0.113,0.721-0.084,1.048,0.084c0.326,0.168,0.568,0.452,0.68,0.802l0.979,3.037c0.226,0.706-0.182,1.499-0.888,1.727
					l-1.357,0.437c0.1,0.955,0.096,1.777-0.006,2.735l1.353,0.443c0.706,0.231,1.11,1.033,0.877,1.733l-0.994,3.033
					c-0.238,0.718-1.015,1.11-1.732,0.876l-1.343-0.44c-0.464,0.792-1.006,1.534-1.616,2.217l0.825,1.142
					c0.428,0.594,0.281,1.491-0.31,1.918l-2.586,1.867c-0.613,0.443-1.474,0.305-1.917-0.309l-0.822-1.139
					c-0.454,0.203-0.889,0.369-1.319,0.508c-0.415,0.133-0.848,0.248-1.296,0.346l-0.005,1.393
					c-0.001,0.366-0.144,0.711-0.404,0.971c-0.26,0.258-0.606,0.4-0.973,0.398l-3.191-0.008c-0.754-0.004-1.368-0.62-1.368-1.378
					l0.002-1.377c-0.898-0.198-1.779-0.485-2.627-0.859l-0.811,1.108c-0.216,0.297-0.535,0.491-0.898,0.548
					c-0.363,0.057-0.725-0.031-1.022-0.249l-2.576-1.881c-0.588-0.434-0.73-1.33-0.297-1.92l0.797-1.092
					c-0.615-0.691-1.162-1.445-1.63-2.252l-1.285,0.413c-0.721,0.232-1.496-0.165-1.729-0.887l-0.977-3.037
					c-0.044-0.137-0.066-0.277-0.066-0.421C178.271,230.494,178.654,229.97,179.226,229.786z M184.091,239.048
					c-0.072,0.099-0.113,0.193,0.048,0.31l2.575,1.882c0.064,0.048,0.131,0.046,0.165,0.04c0.034-0.005,0.097-0.022,0.144-0.088
					l1.372-1.876l0.432,0.207c1.037,0.498,2.129,0.856,3.247,1.061l0.474,0.087l-0.006,2.332c0,0.121,0.1,0.22,0.22,0.222
					l3.191,0.007c0.081,0.002,0.132-0.04,0.156-0.064c0.025-0.023,0.066-0.076,0.066-0.157l0.007-2.342l0.47-0.086
					c0.575-0.105,1.104-0.236,1.622-0.403c0.515-0.167,1.044-0.378,1.613-0.651l0.433-0.208l1.381,1.912
					c0.072,0.099,0.211,0.122,0.31,0.049l2.586-1.866c0.163-0.117,0.122-0.211,0.05-0.309l-1.382-1.913l0.333-0.347
					c0.784-0.819,1.457-1.742,1.999-2.743l0.229-0.423l2.248,0.736c0.117,0.037,0.242-0.025,0.279-0.141l1.006-3.102
					c0-0.08-0.047-0.176-0.152-0.211l-2.259-0.739l0.064-0.475c0.164-1.222,0.17-2.168,0.008-3.386l-0.064-0.477l2.265-0.729
					c0.106-0.034,0.153-0.131,0.145-0.278l-0.978-3.037c-0.025-0.075-0.08-0.113-0.111-0.129c-0.03-0.017-0.092-0.039-0.169-0.014
					l-2.257,0.727l-0.227-0.424c-0.539-1.01-1.206-1.937-1.98-2.754l-0.331-0.348l1.396-1.907c0.072-0.101,0.112-0.194-0.048-0.312
					l-2.574-1.882c-0.099-0.071-0.238-0.051-0.311,0.048l-1.395,1.907l-0.434-0.211c-1.031-0.502-2.117-0.864-3.226-1.075
					l-0.471-0.091l0.007-2.34c0-0.122-0.101-0.223-0.222-0.223l-3.19-0.008c-0.08-0.001-0.131,0.038-0.155,0.064
					c-0.025,0.023-0.066,0.075-0.066,0.156l-0.006,2.331l-0.476,0.084c-0.585,0.103-1.156,0.242-1.695,0.416
					c-0.491,0.158-1.001,0.364-1.559,0.627l-0.432,0.203l-1.36-1.883c-0.047-0.064-0.111-0.084-0.145-0.088
					c-0.034-0.007-0.101-0.009-0.165,0.039l-2.587,1.868c-0.083,0.06-0.091,0.143-0.091,0.179l0,0c0,0.031,0.007,0.081,0.042,0.13
					l1.349,1.866l-0.336,0.348c-0.796,0.824-1.478,1.754-2.028,2.768l-0.23,0.421l-2.18-0.715c-0.117-0.038-0.242,0.026-0.279,0.142
					l-1.006,3.101c0,0.079,0.047,0.177,0.152,0.211l2.183,0.716l-0.065,0.476c-0.167,1.23-0.172,2.187-0.006,3.433l0.064,0.477
					l-2.19,0.704c-0.107,0.035-0.155,0.133-0.155,0.212l0.988,3.104c0.038,0.118,0.163,0.182,0.279,0.145l2.19-0.705l0.228,0.423
					c0.546,1.019,1.223,1.953,2.011,2.776l0.334,0.348L184.091,239.048z M194.256,220.98c3.891,0,7.056,3.165,7.056,7.056
					c0,3.891-3.165,7.056-7.056,7.056c-3.891,0-7.056-3.165-7.056-7.056C187.2,224.145,190.365,220.98,194.256,220.98z
					 M194.256,222.132c-3.256,0-5.903,2.649-5.903,5.904c0,3.256,2.647,5.904,5.903,5.904c3.255,0,5.904-2.648,5.904-5.904
					C200.16,224.781,197.511,222.132,194.256,222.132z"/>
			</g>
		</g>
		<g>
			<path style="fill:#17C5CC;" d="M262.263,169.303h-19.12c0.018,4.889,1.886,9.772,5.615,13.505L262.263,169.303z"/>
			<g>
				<g>
					<path style="fill:#264059;" d="M262.263,169.303l5.993,18.193c2.799-0.905,5.43-2.463,7.654-4.686
						c1.43-1.43,2.584-3.03,3.468-4.736L262.263,169.303z"/>
				</g>
			</g>
			<path style="fill:#17C5CC;" d="M262.263,169.303l17.144,8.769c3.75-7.23,2.596-16.347-3.471-22.412
				c-1.471-1.469-3.122-2.649-4.881-3.543L262.263,169.303z"/>
			<path style="fill:#FF6D3A;" d="M248.762,155.662c-3.766,3.767-5.639,8.706-5.62,13.641h19.121v-19.261
				C257.374,150.061,252.491,151.934,248.762,155.662z"/>
			<path style="fill:#FF6D3A;" d="M262.263,169.303l-13.503,13.504c0.001,0.001,0.001,0.003,0.003,0.003
				c5.273,5.273,12.851,6.832,19.494,4.685L262.263,169.303z"/>
			<path style="fill:#264059;" d="M262.263,150.044v19.259l8.764-17.183C268.282,150.727,265.271,150.032,262.263,150.044z"/>
		</g>
		<g>
			<path style="fill:#264059;" d="M283.294,372.548c0,2.873-2.331,5.203-5.206,5.203h-10.934c-2.874,0-5.206-2.33-5.206-5.203
				v-27.396c0-2.875,2.331-5.205,5.206-5.205h10.934c2.874,0,5.206,2.33,5.206,5.205V372.548z"/>
			<rect x="263.664" y="345.381" style="fill:#FFFFFF;" width="17.915" height="25.903"/>
			<path style="fill:#3D6B91;" d="M274.405,375.44c0,0.479-0.389,0.868-0.867,0.868h-1.832c-0.479,0-0.868-0.389-0.868-0.868v-1.831
				c0-0.479,0.389-0.867,0.868-0.867h1.832c0.478,0,0.867,0.388,0.867,0.867V375.44z"/>
		</g>
		<g>
			<path style="fill:#264059;" d="M433.399,243.6v-8.555c0-3.219-2.619-5.839-5.839-5.839c-3.219,0-5.837,2.62-5.837,5.839v8.555
				h-4.507v-8.555c0-5.704,4.639-10.347,10.344-10.347c5.707,0,10.347,4.643,10.347,10.347v8.555H433.399z"/>
			<path style="fill:#FF6D3A;" d="M440.962,253.697v-8.376c0-2.82-2.286-5.11-5.108-5.11H419.25c-2.821,0-5.107,2.29-5.107,5.11
				v8.959h0.003c0,0.038-0.003,0.079-0.003,0.119c0,7.412,6.008,13.42,13.418,13.42c7.412,0,13.422-6.008,13.422-13.42
				C440.982,254.164,440.974,253.931,440.962,253.697z"/>
			<path style="fill:#264059;" d="M431.194,251.351c0,2.01-1.632,3.641-3.642,3.641c-2.011,0-3.641-1.631-3.641-3.641
				c0-2.013,1.63-3.643,3.641-3.643C429.563,247.708,431.194,249.338,431.194,251.351z"/>
			<polygon style="fill:#264059;" points="427.552,249.63 424.674,259.976 430.429,259.976 			"/>
		</g>
		<g>
			<path style="fill:#FFFFFF;" d="M230.918,149.989c0,25.125-20.368,45.493-45.494,45.493c-25.125,0-45.493-20.368-45.493-45.493
				s20.368-45.492,45.493-45.492C210.55,104.497,230.918,124.864,230.918,149.989z"/>
			<path style="fill:#FFFFFF;" d="M496.682,144.739c0,27.311-22.141,49.453-49.451,49.453c-27.312,0-49.452-22.142-49.452-49.453
				c0-27.311,22.14-49.451,49.452-49.451C474.541,95.288,496.682,117.429,496.682,144.739z"/>
			<path style="fill:#FFFFFF;" d="M523.782,369.714c0,21.558-17.475,39.031-39.031,39.031c-21.557,0-39.033-17.474-39.033-39.031
				c0-21.557,17.476-39.031,39.033-39.031C506.308,330.683,523.782,348.157,523.782,369.714z"/>
			<path style="fill:#FFFFFF;" d="M393.141,403.247c0,11.842-9.6,21.443-21.445,21.443c-11.842,0-21.444-9.602-21.444-21.443
				c0-11.844,9.601-21.444,21.444-21.444C383.54,381.803,393.141,391.403,393.141,403.247z"/>
			<path style="fill:#FFFFFF;" d="M170.529,249.782c0,14.943-12.113,27.056-27.055,27.056c-14.942,0-27.055-12.112-27.055-27.056
				c0-14.942,12.113-27.055,27.055-27.055C158.416,222.728,170.529,234.84,170.529,249.782z"/>
			<path style="fill:#FFFFFF;" d="M513.821,267.39c0,13.455-10.906,24.361-24.362,24.361c-13.454,0-24.361-10.906-24.361-24.361
				c0-13.453,10.907-24.36,24.361-24.36C502.915,243.029,513.821,253.937,513.821,267.39z"/>
			<path style="fill:#FFFFFF;" d="M322.928,127.83c0,10.024-8.126,18.149-18.149,18.149c-10.024,0-18.15-8.126-18.15-18.149
				c0-10.024,8.125-18.149,18.15-18.149C314.802,109.681,322.928,117.806,322.928,127.83z"/>
			<path style="fill:#FFFFFF;" d="M245.206,357.754c0,2.972-0.333,5.866-0.963,8.646c-0.142,0.623-0.297,1.239-0.468,1.854
				c-4.583,16.412-19.646,28.453-37.521,28.453c-21.513,0-38.952-17.439-38.952-38.953c0-13.445,6.813-25.299,17.174-32.299
				c6.216-4.199,13.71-6.653,21.778-6.653C227.766,318.802,245.206,336.243,245.206,357.754z"/>
			<path style="fill:#FFFFFF;" d="M380.376,264.257c0,39.066-31.67,70.737-70.736,70.737c-6.734,0-13.247-0.941-19.418-2.697
				c-25.307-7.208-44.827-28.156-49.98-54.265c-0.879-4.455-1.34-9.062-1.34-13.775c0-39.066,31.67-70.737,70.738-70.737
				C348.706,193.52,380.376,225.191,380.376,264.257z"/>
			<path style="fill:#FFFFFF;" d="M489.359,170.635c-25.895,42.129-7.896,63.245,12.857,76.001L466.63,258.89
				c8.501-22.829,0.808-56.469-29.648-65.765L489.359,170.635z"/>
			<path style="fill:#FFFFFF;" d="M219.596,119.957c20.96,19.69,61.808,12.363,70.129-2.27l4.083,24.602
				c-13.789-8.761-54.068-11.033-64.452,19.55L219.596,119.957z"/>
			<path style="fill:#FFFFFF;" d="M229.597,160.904c-6.773,26.648,20.143,47.904,53.621,37.575l-43.23,53.432
				c9.771-38.031-22.898-61.646-48.272-56.866L229.597,160.904z"/>
			<path style="fill:#FFFFFF;" d="M192.758,194.888c-22.229,3.301-33.684,26.114-25.236,42.497l-32.012-13.458
				c17.615-5.427,30.537-22.414,12.706-47.764L192.758,194.888z"/>
			<path style="fill:#FFFFFF;" d="M436.981,193.125c-30.85-5.209-61.711,13.78-57.366,60.778l-49.591-57.383
				c48.683,14.65,69-14.301,68.316-45.582L436.981,193.125z"/>
			<path style="fill:#FFFFFF;" d="M446.044,366.216c2.771-26.962-46.836-60.47-104.829-38.659l39.141-64.995
				c4.829,52.128,61.99,80.688,91.447,70.331L446.044,366.216z"/>
			<path style="fill:#FFFFFF;" d="M466.607,404.28c-24.745-16.087-57.818-9.695-76.156,9.365l-5.266-27.07
				c21.324,13.705,57.706,4.455,60.858-20.359L466.607,404.28z"/>
			<path style="fill:#FFFFFF;" d="M210.732,319.061c17.781,2.06,35.987-8.96,29.564-40.824l48.487,53.615
				c-31.061-9.585-43.848,7.426-43.582,25.324L210.732,319.061z"/>
			<path style="fill:#264059;" d="M373.844,264.257c0,35.459-28.745,64.204-64.204,64.204c-6.112,0-12.024-0.853-17.624-2.448
				c-22.97-6.544-40.687-25.557-45.364-49.254c-0.798-4.043-1.216-8.224-1.216-12.502c0-35.458,28.746-64.203,64.204-64.203
				C345.099,200.054,373.844,228.799,373.844,264.257z"/>
			<g>
				<path style="fill:#FF6D3A;" d="M225.8,149.988c0,22.3-18.078,40.376-40.375,40.376c-22.299,0-40.375-18.076-40.375-40.376
					c0-22.298,18.076-40.374,40.375-40.374C207.722,109.614,225.8,127.69,225.8,149.988z"/>
				<path style="fill:#264059;" d="M200.3,158.639c2.741,4.473,7.401,1.247,7.401,1.247s-4.636-0.35-5.107-8.457
					c-0.191-3.285,0.206-6.52,0.553-8.582c0.17-0.707,0.32-1.44,0.434-2.21c0.295-1.968,0.386-4.149,0.138-6.569
					c-0.99-9.57-9.614-14.988-16.26-14.987c-1.347,0-2.109,0.002-2.523,0.002c-0.417,0-1.179-0.002-2.525-0.002
					c-6.647-0.001-15.27,5.417-16.259,14.987c-0.25,2.42-0.159,4.602,0.137,6.569c0.115,0.77,0.265,1.503,0.435,2.211
					c0.347,2.061,0.746,5.296,0.554,8.581c-0.471,8.107-5.108,8.457-5.108,8.457s4.66,3.226,7.401-1.247
					c0.699-1.142,1.144-2.563,1.424-3.98c1.013,5.974-4.165,8.604-4.165,8.604s5.549,4.484,17.361,4.484
					c12.76,0,18.85-4.484,18.85-4.484s-5.176-2.63-4.165-8.602C199.158,156.078,199.602,157.501,200.3,158.639z"/>
				<path style="fill:#FFE1CC;" d="M156.271,177.905c7.35,7.672,17.69,12.459,29.153,12.459c11.455,0,21.789-4.778,29.137-12.443
					l-0.003-0.036c-0.832-4.206-3.444-7.627-8.594-8.341l-7.792-1.665v-0.002l-1.396-0.297c-2.137-0.457-3.703-2.304-3.804-4.484
					l-0.17-3.728l-0.107-2.361h-6.695h-0.583h-0.583h-6.694l-0.108,2.361l-0.171,3.728c-0.1,2.181-1.666,4.027-3.804,4.484
					l-1.395,0.297v0.002l-7.794,1.665c-5.149,0.714-7.761,4.135-8.593,8.341L156.271,177.905z"/>
				<path style="fill:#C9A693;" d="M192.775,159.177l-0.099-2.17h-6.657h-0.581h-0.58h-6.655l-0.109,2.361l-0.022,0.506
					c1.649,1.514,3.964,2.85,7.018,2.85C188.561,162.728,191.066,161.02,192.775,159.177z"/>
				<path style="fill:#FFFFFF;" d="M214.558,177.885c-0.832-4.206-3.444-7.627-8.594-8.341l-5.078-1.086
					c0.09,0.679,0.153,1.362,0.153,2.065c0,8.628-6.995,15.624-15.623,15.624s-15.622-6.996-15.622-15.624
					c0-0.702,0.062-1.386,0.152-2.065l-5.08,1.086c-5.149,0.714-7.761,4.135-8.593,8.341l-0.002,0.021
					c7.35,7.672,17.69,12.459,29.153,12.459c11.455,0,21.789-4.778,29.137-12.443L214.558,177.885z"/>
				<path style="fill:#2C5871;" d="M214.558,177.885c-0.832-4.206-3.444-7.627-8.594-8.341l-5.078-1.086
					c0.09,0.679,0.153,1.362,0.153,2.065c0,8.628-6.995,15.624-15.623,15.624s-15.622-6.996-15.622-15.624
					c0-0.702,0.062-1.386,0.152-2.065l-5.08,1.086c-5.149,0.714-7.761,4.135-8.593,8.341l-0.002,0.021
					c7.35,7.672,17.69,12.459,29.153,12.459c11.455,0,21.789-4.778,29.137-12.443L214.558,177.885z"/>
				<path style="fill:#FFE1CC;" d="M184.986,128.794l-10.92,0.046v19.924c0,1.07,0.639,4.235,1.41,5.524c0,0,2.923,6.616,9.51,6.616
					c7.041,0.004,9.871-7.491,9.871-7.491c0.486-1.148,1.014-3.985,1.048-4.649V128.84L184.986,128.794z"/>
				<polygon style="fill:#264059;" points="172.38,137.307 177.684,137.307 180.029,131.447 180.029,137.307 188.551,137.307 
					188.551,133.599 190.794,137.307 193.493,137.307 197.725,137.307 197.725,127.813 171.786,127.813 				"/>
			</g>
			<g>
				<path style="fill:#264059;" d="M490.92,144.739c0,24.129-19.561,43.69-43.689,43.69c-24.132,0-43.692-19.562-43.692-43.69
					c0-24.13,19.56-43.69,43.692-43.69C471.359,101.049,490.92,120.609,490.92,144.739z"/>
				<path style="fill:#FFE1CC;" d="M457.182,165.934l-0.443-8.882h-10.332h-9.159l-0.455,9.259c-0.089,1.81-1.444,3.311-3.233,3.59
					l-19.678,3.048c8.015,9.466,19.977,15.481,33.351,15.481c13.354,0,25.303-6.001,33.318-15.446l-20.152-3.002
					C458.609,169.702,457.206,167.857,457.182,165.934z"/>
				<path style="fill:#C9A693;" d="M455.826,164.309l1.202-1.294l-0.29-5.963h-10.332h-9.159l-0.266,5.594l1.55,1.664
					c1.375,1.476,3.288,2.317,5.276,2.317h3.435v-0.003h3.308C452.536,166.624,454.45,165.78,455.826,164.309z"/>
				<path style="fill:#FFE1CC;" d="M461.838,137.171l1.131,0.072c1.698,0.475,3.533,2.076,3.104,4.664
					c-0.388,2.35-0.579,2.548-1.057,5.467c-0.677,4.127-4.053,2.783-4.053,2.783L461.838,137.171z"/>
				<path style="fill:#FFE1CC;" d="M432.132,137.171l-1.13,0.072c-1.7,0.475-3.533,2.076-3.107,4.664
					c0.391,2.35,0.579,2.548,1.059,5.467c0.675,4.127,4.05,2.783,4.05,2.783L432.132,137.171z"/>
				<path style="fill:#FFE1CC;" d="M446.832,123.217v0.003l-15.376,0.063v29.279c0,1.975,6.866,10.237,6.866,10.237
					c1.367,1.421,3.264,2.229,5.231,2.229h3.407v-0.004h3.276c1.97,0,3.866-0.809,5.233-2.227l4.727-4.923
					c1.368-1.426,2.138-3.341,2.138-5.318v-29.273L446.832,123.217z"/>
				<path style="fill:#FF6D3A;" d="M432.286,127.422c0-0.854,0.888-1.447,2.179-1.444h4.67c3.511,0.705-0.308,6.086-0.308,6.086
					l16.175-7.13c6.718-1.999,6.172,4.321,6.172,5.175v11.645c0.138,1.432,1.547,1.808,2.363-0.756
					c0.239-0.75,2.509-15.611,2.509-15.611c1.672-8.627-4.126-12.379-11.825-11.899c0,0-11.111,0.103-15.394,0
					c-5.792-0.142-9.619,2.616-10.8,7.029c-0.172,0.629-0.285,1.296-0.344,1.989c-0.08,0.952-0.056,1.957,0.078,3.015l1.945,15.174
					c0.287,2.355,2.579,3.251,2.579,1.809V127.422z"/>
				<path style="fill:#FF6D3A;" d="M430.357,115.339c2.584-2.883,6.54-6.721,6.54-6.721s-0.109,0.604,0.544,1.365
					c0.528,0.611,1.438,0.458,2.108-0.077c1.362-1.09,1.458-3.037,1.458-3.037s1.018-0.362,2.07,0.989
					c0.692,0.885,0.848,1.896,0.848,1.896s1.94-0.844,1.477-3.546c-0.123-0.714-0.715-1.681-0.715-1.681s3.001,0,4.633,2.906
					c0.851,1.514,1.868,2.529,3.048,1.984c1.182-0.545,0.718-2.45,0.718-2.45s2.795,1.104,3.976,3.192
					c0.441,0.781,1.272,1.641,2.271,1.093c0.997-0.546,0.997-0.909,0.997-0.909s2.547,2.326,3.815,3.949
					c1.456,1.864,2.727,4.863,2.19,8.404c-0.329,2.157-23.171-0.362-23.171-0.362l-15.401,3.185
					C427.762,125.521,426.452,119.698,430.357,115.339z"/>
				<path style="fill:#17C5CC;" d="M461.314,169.667c-1.79-0.277-3.381-1.238-3.469-3.045l-10.667,10.404l-10.667-10.404
					c-0.09,1.807-3.508,2.988-3.508,2.988l-19.385,3.036c8.014,9.642,20.095,15.783,33.613,15.783c13.573,0,25.7-6.19,33.713-15.902
					L461.314,169.667L461.314,169.667z"/>
				<g>
					<path style="fill:#FFFFFF;" d="M436.935,164.973c-0.823-0.949-1.201-1.202-1.773-0.064l-2.978,4.814l9.189,15.525
						c0.631,1.078,1.14,1.012,1.709-0.064l4.055-8.428L436.935,164.973z"/>
					<path style="fill:#FFFFFF;" d="M457.275,164.973c0.823-0.949,1.202-1.202,1.774-0.064l2.979,4.814l-9.188,15.525
						c-0.635,1.078-1.14,1.012-1.714-0.064l-4.051-8.428L457.275,164.973z"/>
				</g>
			</g>
			<g>
				<path style="fill:#264059;" d="M240.195,357.754c0,18.747-15.196,33.94-33.942,33.94s-33.942-15.193-33.942-33.94
					c0-18.745,15.196-33.939,33.942-33.939S240.195,339.009,240.195,357.754z"/>
				<polygon style="fill:#FF6D3A;" points="216.303,384.136 196.154,384.136 193.319,339.902 219.191,339.902 				"/>
				<path style="fill:#FFE1CC;" d="M181.747,381.224c6.179,6.451,14.871,10.471,24.509,10.471c9.629,0,18.316-4.016,24.493-10.456
					l-0.002-0.035c-0.7-3.533-2.896-6.409-7.225-7.007l-6.551-1.402v-0.002l-1.173-0.249c-1.797-0.386-3.113-1.939-3.198-3.771
					l-0.143-3.132l-0.091-1.985h-5.627h-0.49h-0.491h-5.627l-0.091,1.985l-0.143,3.132c-0.084,1.833-1.401,3.386-3.198,3.771
					l-1.172,0.249v0.002l-6.552,1.402c-4.328,0.598-6.525,3.474-7.225,7.007L181.747,381.224z"/>
				<path style="fill:#C9A693;" d="M199.958,367.411c1.51,1.081,3.433,1.902,5.819,1.902c2.885,0.004,5.088-1.189,6.727-2.648
					l-0.048-1.025l-0.091-1.985h-5.627h-0.042h-0.449h-0.126h-0.364h-0.211h-5.416l-0.091,1.985L199.958,367.411z"/>
				<path style="fill:#FFFFFF;" d="M230.745,381.203c-0.699-3.533-2.896-6.409-7.225-7.007l-4.268-0.914
					c0.074,0.57,0.127,1.143,0.127,1.732c0,7.256-5.881,13.135-13.133,13.135c-7.253,0-13.132-5.879-13.132-13.135
					c0-0.59,0.052-1.162,0.128-1.732l-4.27,0.914c-4.329,0.598-6.526,3.474-7.226,7.007l-0.003,0.021
					c6.179,6.451,14.872,10.471,24.509,10.471c9.63,0,18.315-4.016,24.493-10.456L230.745,381.203z"/>
				<path style="fill:#17C5CC;" d="M230.746,381.203c-0.7-3.533-2.896-6.409-7.225-7.007l-4.268-0.914
					c0.075,0.57,0.127,1.143,0.127,1.732c0,7.256-5.88,13.135-13.133,13.135c-7.253,0-13.134-5.879-13.134-13.135
					c0-0.59,0.053-1.162,0.128-1.732l-4.269,0.914c-4.328,0.598-6.525,3.474-7.225,7.007l-0.001,0.021
					c6.179,6.451,14.871,10.471,24.509,10.471c9.629,0,18.316-4.016,24.493-10.456L230.746,381.203z"/>
				<path style="fill:#FFE1CC;" d="M205.974,337.265l-10.306,0.043v18.801c0,1.012,0.601,4,1.331,5.215c0,0,2.756,6.244,8.975,6.244
					c6.642,0.003,9.317-7.067,9.317-7.067c0.456-1.085,0.953-3.764,0.985-4.392v-18.801L205.974,337.265z"/>
				<path style="fill:#FF6D3A;" d="M205.974,329.337c0,0-14.681-0.424-17.031,12.613c-1.538,8.548,1.204,30.836,1.204,30.836
					s0.984,10.216,3.121,16.332c1.125,0.467,2.283,0.868,3.466,1.215c-0.161-4.276-0.354-10.887-0.252-16.117
					c0.165-8.438,0.059-22.707,0.059-22.707s-0.622-9.29,5.74-12.787c1.213-0.665,3.693-1.238,3.693-1.238s2.467,0.595,3.69,1.238
					c6.612,3.497,5.742,12.787,5.742,12.787s-0.107,14.27,0.058,22.707c0.102,5.295-0.097,12.008-0.259,16.275
					c1.153-0.312,2.278-0.686,3.377-1.117c2.205-6.076,3.216-16.588,3.216-16.588s2.742-22.288,1.204-30.836
					C220.648,328.913,205.974,329.337,205.974,329.337z"/>
			</g>
			<g>
				<path style="fill:#FF6D3A;" d="M518.699,369.314c0,18.75-15.2,33.948-33.949,33.948c-18.747,0-33.946-15.198-33.946-33.948
					c0-18.748,15.199-33.947,33.946-33.947C503.499,335.366,518.699,350.565,518.699,369.314z"/>
				<path style="fill:#264059;" d="M508.348,388.339l-14.592-2.145c-0.729-0.111-2.436-0.668-2.866-1.305h-15.404
					c-0.43,0.607-1.088,1.045-1.865,1.165l-14.758,2.284c-0.639,0.118-1.264,0.293-1.876,0.497
					c6.144,8.723,16.285,14.426,27.764,14.426c11.102,0,20.955-5.328,27.15-13.566C510.806,389.032,509.595,388.567,508.348,388.339
					z"/>
				<path style="fill:#FFE1CC;" d="M493.756,386.194l-0.217-0.029c-1.659-0.237-2.681-1.613-2.698-3.027l-0.328-6.536h-7.601h-6.737
					l-0.335,6.813c-0.066,1.33-1.063,2.436-2.38,2.641l-0.347,0.053c1.138,4.656,5.327,8.117,10.334,8.117
					C488.423,394.225,492.588,390.808,493.756,386.194z"/>
				<path style="fill:#C9A693;" d="M490.513,376.602h-7.601h-6.737l-0.201,4.087l1.125,1.172c1.034,1.074,2.47,1.685,3.96,1.685
					h2.578v-0.001h2.483c1.491,0,2.928-0.613,3.96-1.688l0.663-0.689L490.513,376.602z"/>
				<polygon style="fill:#17C5CC;" points="495.817,362.824 493.031,367.716 493.031,350.796 499.078,347.243 				"/>
				<path style="fill:#FFE1CC;" d="M494.901,360.3l0.856,0.055c1.285,0.358,2.677,1.57,2.35,3.529
					c-0.296,1.781-0.436,1.933-0.799,4.14c-0.513,3.127-3.066,2.11-3.066,2.11L494.901,360.3z"/>
				<path style="fill:#FFE1CC;" d="M472.41,360.3l-0.857,0.055c-1.285,0.358-2.677,1.57-2.349,3.529
					c0.296,1.781,0.437,1.933,0.799,4.14c0.515,3.127,3.068,2.11,3.068,2.11L472.41,360.3z"/>
				<path style="fill:#FFE1CC;" d="M483.541,349.733v0.005l-11.641,0.048v22.166c0,1.497,0.58,2.945,1.618,4.025l3.58,3.728
					c1.034,1.073,2.47,1.689,3.96,1.689h2.578v-0.005h2.483c1.491,0,2.928-0.611,3.96-1.686l3.579-3.727
					c1.038-1.081,1.621-2.529,1.621-4.025v-22.167L483.541,349.733z"/>
				<path style="fill:#17C5CC;" d="M468.794,352.03c0,0,0.82,3.954,2.37,5.373c1.004,0.916,2.365,1.991,4.833,4.021
					c0.955,0.791,1.494,1.317,3.451-0.35l8.589-7.816c0,0,0,2.279,0,2.944c0,0.875,0.159,2.149,1.9,0.485l5.88-5.06
					c0,0,9.044-7.371-2.786-7.406c-0.605-0.002-4.206-1.297-6.948-1.967C474.908,339.519,467.218,344.379,468.794,352.03z"/>
				<polygon style="fill:#17C5CC;" points="471.9,363.519 471.9,357.334 474.19,353.259 468.794,352.03 				"/>
			</g>
			<g>
				<path style="fill:#FF6D3A;" d="M165.93,249.782c0,12.608-10.221,22.829-22.829,22.829c-12.608,0-22.829-10.221-22.829-22.829
					c0-12.607,10.221-22.828,22.829-22.828C155.708,226.954,165.93,237.175,165.93,249.782z"/>
				<path style="fill:#264059;" d="M154.065,259.797c-1.179-1.143-2.938-1.771-2.938-4.659c0-2.889,2.339-5.678,2.357-12.542
					c0.027-10.797-10.331-10.449-10.331-10.449s-10.357-0.348-10.33,10.449c0.017,6.864,2.356,9.653,2.356,12.542
					c0,2.889-1.626,3.609-2.894,4.652c-1.225,1.009-0.247,1.816-0.247,1.816h11.115h10.66
					C153.814,261.607,155.245,260.936,154.065,259.797z"/>
				<path style="fill:#FFE1CC;" d="M126.617,265.567c4.156,4.339,10.002,7.044,16.483,7.044c6.477,0,12.32-2.704,16.475-7.036
					l-0.003-0.021c-0.471-2.378-1.948-4.311-4.858-4.715l-4.406-0.942l0,0l-0.79-0.169c-1.209-0.257-2.094-1.302-2.15-2.534
					l-0.096-2.109l-0.062-1.333h-3.786h-0.33h-0.33h-3.786l-0.061,1.333l-0.097,2.109c-0.057,1.232-0.941,2.277-2.15,2.534
					l-0.79,0.169l0,0l-4.407,0.942c-2.911,0.403-4.388,2.337-4.858,4.715L126.617,265.567z"/>
				<path style="fill:#C9A693;" d="M147.257,254.978l-0.056-1.226h-3.764h-0.329h-0.328h-3.764l-0.06,1.333l-0.013,0.286
					c0.932,0.857,2.242,1.612,3.969,1.612C144.875,256.986,146.29,256.022,147.257,254.978z"/>
				<path style="fill:#FFFFFF;" d="M159.573,265.555c-0.471-2.378-1.948-4.311-4.858-4.715l-2.872-0.613
					c0.05,0.381,0.085,0.77,0.085,1.166c0,4.878-3.955,8.833-8.833,8.833c-4.88,0-8.834-3.955-8.834-8.833
					c0-0.397,0.036-0.785,0.086-1.166l-2.872,0.613c-2.911,0.403-4.388,2.337-4.858,4.715l-0.001,0.013
					c4.156,4.339,10.002,7.044,16.483,7.044c6.477,0,12.32-2.704,16.475-7.036L159.573,265.555z"/>
				<path style="fill:#17C5CC;" d="M159.573,265.555c-0.471-2.378-1.948-4.311-4.858-4.715l-2.872-0.613
					c0.05,0.381,0.085,0.77,0.085,1.166c0,4.878-3.955,8.833-8.833,8.833c-4.88,0-8.834-3.955-8.834-8.833
					c0-0.397,0.036-0.785,0.086-1.166l-2.872,0.613c-2.911,0.403-4.388,2.337-4.858,4.715l-0.001,0.013
					c4.156,4.339,10.002,7.044,16.483,7.044c6.477,0,12.32-2.704,16.475-7.036L159.573,265.555z"/>
				<path style="fill:#FFE1CC;" d="M142.842,237.413l-6.316,0.027v11.52c0,0.62,0.369,2.452,0.816,3.196c0,0,1.689,3.827,5.5,3.827
					c4.072,0.003,5.71-4.331,5.71-4.331c0.28-0.666,0.584-2.307,0.605-2.692v-4.245c0-1.103-1.553-3.354-2.938-4.367
					L142.842,237.413z"/>
				<path style="fill:#264059;" d="M140.842,235.796c0,0,0.689,5.72,5.756,9.624c3.717,2.864,4.093,2.55,4.093,2.55
					s-3.151-2.492-4.556-5.305c-1.535-3.07-1.585-7.201-1.585-7.201L140.842,235.796z"/>
				<path style="fill:#264059;" d="M142.842,236.691c0,0-2.208,4.688-7.506,8.26v-8.26H142.842z"/>
			</g>
			<g>
				<path style="fill:#FF6D3A;" d="M509.081,267.39c0,10.837-8.786,19.623-19.622,19.623c-10.836,0-19.621-8.786-19.621-19.623
					c0-10.836,8.785-19.621,19.621-19.621C500.295,247.769,509.081,256.554,509.081,267.39z"/>
				<path style="fill:#FFE1CC;" d="M500.248,277.661l-4.092-0.873v-0.002l-0.735-0.154c-1.121-0.241-1.945-1.212-1.997-2.355
					l-0.089-1.959l-0.058-1.241h-3.516h-0.307h-0.307h-3.516l-0.057,1.241l-0.091,1.959c-0.054,1.144-0.875,2.114-1.997,2.355
					l-0.734,0.154v0.002l-4.094,0.873c-1.964,0.272-3.218,1.299-3.929,2.686c3.597,4.084,8.86,6.665,14.728,6.665
					c5.866,0,11.127-2.578,14.723-6.658C503.472,278.965,502.217,277.936,500.248,277.661z"/>
				<path style="fill:#C9A693;" d="M493.321,272.871l-0.054-1.795h-3.495h-0.306h-0.306h-3.496l-0.056,1.483l-0.012,0.641
					c0.867,0.952,2.082,1.466,3.685,1.466C491.105,274.669,492.422,274.03,493.321,272.871z"/>
				<path style="fill:#FFFFFF;" d="M500.248,277.661l-2.667-0.568c0.049,0.355,0.079,0.713,0.079,1.083
					c0,4.532-3.674,8.207-8.205,8.207c-4.531,0-8.207-3.675-8.207-8.207c0-0.37,0.033-0.728,0.081-1.083l-2.669,0.568
					c-1.964,0.272-3.218,1.299-3.929,2.686c3.597,4.084,8.86,6.665,14.728,6.665c5.866,0,11.127-2.578,14.723-6.658
					C503.472,278.965,502.217,277.936,500.248,277.661z"/>
				<path style="fill:#17C5CC;" d="M500.248,277.661l-2.667-0.568c0.049,0.355,0.079,0.713,0.079,1.083
					c0,4.532-3.674,8.207-8.205,8.207c-4.531,0-8.207-3.675-8.207-8.207c0-0.37,0.033-0.728,0.081-1.083l-2.669,0.568
					c-1.964,0.272-3.218,1.299-3.929,2.686c3.597,4.084,8.86,6.665,14.728,6.665c5.866,0,11.127-2.578,14.723-6.658
					C503.472,278.965,502.217,277.936,500.248,277.661z"/>
				<path style="fill:#264059;" d="M501.225,262.428c0-0.466-0.229-0.873-0.577-1.128c0.506-0.291,0.849-0.827,0.849-1.449
					c0-0.668-0.392-1.237-0.954-1.507c0.413-0.304,0.683-0.792,0.683-1.344c0-0.862-0.654-1.563-1.494-1.655
					c0.085-0.225,0.138-0.463,0.138-0.719c0-1.113-0.9-2.014-2.013-2.014c-0.483,0-0.919,0.178-1.267,0.461
					c0.056-0.152,0.092-0.314,0.092-0.482c0-0.775-0.63-1.402-1.402-1.402c-0.177,0-0.343,0.036-0.499,0.095
					c-0.148-0.731-0.796-1.283-1.573-1.283c-0.387,0-0.738,0.145-1.018,0.374c-0.326-0.583-0.942-0.984-1.66-0.984
					c-0.324,0-0.624,0.088-0.89,0.23c-0.38-0.345-0.882-0.561-1.437-0.561c-0.889,0-1.652,0.542-1.978,1.316
					c-0.387-0.311-0.872-0.506-1.406-0.506c-1.049,0-1.921,0.719-2.176,1.69c-0.428-0.147-0.892-0.2-1.369-0.11
					c-1.475,0.277-2.44,1.696-2.161,3.169c0.039,0.217,0.113,0.417,0.203,0.608c-0.186-0.02-0.374-0.025-0.567,0.012
					c-1.025,0.195-1.699,1.182-1.508,2.209c0.089,0.475,0.356,0.87,0.711,1.143c-0.691,0.386-1.094,1.174-0.939,1.992
					c0.117,0.625,0.529,1.114,1.064,1.362c-0.396,0.362-0.603,0.913-0.496,1.48c0.092,0.489,0.4,0.88,0.807,1.1
					c-0.322,0.331-0.484,0.805-0.394,1.292c0.112,0.594,0.571,1.039,1.13,1.156c-0.132,0.301-0.181,0.642-0.113,0.988
					c0.134,0.712,0.701,1.23,1.375,1.342c0.005,0.052,0.005,0.105,0.015,0.161c0.141,0.745,0.858,1.233,1.602,1.095
					c0,0,0.003-0.002,0.005-0.003c-0.002,0.075,0.004,0.148,0.019,0.224c0.119,0.629,0.847,0.533,1.35,0.923
					c1.129,0.877,3.239-0.157,3.852,0.021c3.255,0.944-3.019-1.664-3.099-1.787c1.373,0.418,3.167,0.69,5.523,0.697v0.002
					c0.056,0,0.105,0,0.161-0.002c0.054,0.002,0.105,0.002,0.16,0.002v-0.002c7.934-0.024,9.157-2.436,9.189-3.862
					c0.945-0.194,1.655-1.032,1.655-2.035c0-0.399-0.118-0.768-0.314-1.088C500.932,263.407,501.225,262.954,501.225,262.428z"/>
				<path style="fill:#FFE1CC;" d="M489.238,256.369l-5.83,0.022v10.638c0,0.571,0.342,2.262,0.754,2.948
					c0,0,1.561,3.533,5.076,3.533c3.758,0.002,5.27-3.998,5.27-3.998c0.26-0.614,0.542-2.129,0.56-2.483v-10.638L489.238,256.369z"
					/>
				<path style="fill:#264059;" d="M496.22,254.566h-13.662l0.236,5.702l0.013-0.002c0.06,0.601,0.561,1.073,1.175,1.073
					c0.397,0,0.742-0.194,0.959-0.491c0.279,0.404,0.743,0.669,1.27,0.669c0.72,0,1.319-0.495,1.491-1.162
					c0.215,0.132,0.464,0.211,0.737,0.211c0.769,0,1.392-0.61,1.42-1.372c0.158,0.059,0.329,0.097,0.51,0.097
					c0.761,0,1.38-0.575,1.467-1.312c0.216,0.221,0.517,0.361,0.851,0.361c0.286,0,0.546-0.108,0.751-0.278
					c-0.153,0.224-0.247,0.49-0.247,0.782c0,0.653,0.463,1.202,1.08,1.334c0.043,0.516,0.472,0.924,0.998,0.924
					c0.501,0,0.912-0.365,0.994-0.84L496.22,254.566z"/>
			</g>
			<g>
				<path style="fill:#17C5CC;" d="M319.817,127.828c0,8.308-6.733,15.042-15.038,15.042c-8.306,0-15.039-6.734-15.039-15.042
					c0-8.305,6.733-15.038,15.039-15.038C313.084,112.79,319.817,119.523,319.817,127.828z"/>
				<path style="fill:#FF6D3A;" d="M309.336,138.052c-0.333-0.052-0.826-0.268-1.021-0.557h-7.104
					c-0.196,0.276-0.494,0.475-0.846,0.529l-5.75,0.889c2.677,2.457,6.244,3.957,10.163,3.957c3.931,0,7.508-1.511,10.189-3.982
					L309.336,138.052z"/>
				<path style="fill:#FFE1CC;" d="M309.497,138.089l-0.249-0.037c-0.598-0.092-1.066-0.711-1.074-1.351l-0.147-2.965h-3.447h-3.056
					l-0.151,3.09c-0.03,0.604-0.483,1.105-1.079,1.198l-0.158,0.025c0.516,2.111,2.415,3.681,4.686,3.681
					C307.078,141.73,308.967,140.18,309.497,138.089z"/>
				<path style="fill:#C9A693;" d="M307.723,136.086l0.399-0.418l-0.096-1.932h-3.447h-3.056l-0.088,1.811l0.516,0.54
					c0.46,0.478,1.098,0.749,1.761,0.749h1.145v-0.001h1.105C306.624,136.836,307.262,136.564,307.723,136.086z"/>
				<path style="fill:#FFE1CC;" d="M309.884,126.727l0.244-0.335c0.897-0.7,1.399,0.455,1.252,1.344
					c-0.135,0.808-0.199,0.876-0.363,1.878c-0.232,1.418-1.391,0.955-1.391,0.955L309.884,126.727z"/>
				<path style="fill:#FFE1CC;" d="M299.74,126.727l-0.244-0.335c-0.898-0.7-1.4,0.455-1.253,1.344
					c0.135,0.808,0.199,0.876,0.364,1.878c0.232,1.418,1.391,0.955,1.391,0.955L299.74,126.727z"/>
				<path style="fill:#FFE1CC;" d="M304.804,121.871v0.002l-5.28,1.67v5.05v2.605c0,0.68,0.607,1.665,1.072,2.334l1.286,1.932
					c0.468,0.488,1.119,0.765,1.796,0.765h1.17l0,0h1.125c0.677,0,1.328-0.277,1.797-0.765l1.428-2.148
					c0.458-0.797,0.931-1.439,0.931-2.119l-0.015-7.441L304.804,121.871z"/>
				<path style="fill:#FFE1CC;" d="M310.114,123.755c0,2.924-2.371,5.296-5.295,5.296c-2.924,0-5.294-2.372-5.294-5.296
					c0-2.924,2.366-4.92,5.29-4.92C307.738,118.835,310.114,120.831,310.114,123.755z"/>
				<path style="fill:#264059;" d="M300.459,120.024l-0.006-1.126c0,0-2.691,0.079-2.48,2.499c0.109,1.254,0.389,3.672,0.561,5.119
					c0.21-0.225,0.99-0.217,0.991,0.554c0.004,0.912,0,0.965,0,0.965l0,0c0.551,0.002,0.943-0.411,0.943-0.921v-5.543
					c0.064-0.18,0.144-0.344,0.24-0.476C301.198,120.412,300.615,120.095,300.459,120.024z"/>
				<path style="fill:#264059;" d="M309.099,120.024l0.006-1.126c0,0,2.69,0.079,2.48,2.499c-0.109,1.254-0.381,3.613-0.553,5.063
					c-0.209-0.227-0.903-0.236-0.905,0.535c-0.021,0.885,0,1.042,0,1.042h-0.037c-0.55,0.002-0.999-0.413-0.999-0.923v-5.543
					c-0.066-0.18-0.143-0.344-0.241-0.476C308.359,120.412,308.943,120.095,309.099,120.024z"/>
				<path style="fill:#FF6D3A;" d="M302.325,116.717c0,0,4.817,0.044,6.317,0c1.252-0.036,2.701,1.282,1.874,3.518
					c-0.978,2.649-4.3,2.526-7.48,1.637c-2.592-0.724-2.653,2.152-2.599,4.15c0.008,0.262-0.336,0.386-0.451,0.151
					c-0.523-1.065-1.342-2.852-1.767-4.43C297.633,119.573,297.967,116.717,302.325,116.717z"/>
			</g>
			<g>
				<path style="fill:#264059;" d="M390.025,403.247c0,10.121-8.206,18.328-18.33,18.328c-10.123,0-18.329-8.207-18.329-18.328
					c0-10.123,8.206-18.33,18.329-18.33C381.819,384.917,390.025,393.124,390.025,403.247z"/>
				<path style="fill:#17C5CC;" d="M370.435,388.988c-1.68-1.232-6.25-0.297-5.562,2.796c0.3,1.346-1.193,0.749-1.193,0.749
					s-3.938,0.132-3.938,3.228c0,1.6,0.78,1.664,0.449,2.855c-0.28,1.008-1.959,0.952-2.071,1.231
					c-0.866,2.165,1.754,3.584,1.754,3.584s-1.011,2.397,0.333,4.189c1.344,1.791,3.716,1.822,3.716,1.822s0.083,1.736,0.858,2.609
					c2.053,2.315,5.766,1.691,5.766,1.691s2.893-0.179,3.695-0.179c1.064,0,3.953,0.085,5.542-1.902
					c0.673-0.842,1.036-2.396,1.849-2.464c2.015-0.168,2.294-1.567,2.294-1.567s-1.959-0.895-0.529-1.873
					c1.771-1.21,3.87-4.89,0.362-5.835c-1.081-0.29-0.243-1.449-0.006-2.095c0.676-1.85,0.556-2.711-1.561-3.577
					c-1.552-0.634-0.804-1.781-2.742-3.639c-1.052-1.009-3.527-2.016-5.375-0.84c-1.258,0.801-1.219,0.976-1.852,1.058
					C372.222,390.83,371.276,389.604,370.435,388.988z"/>
				<path style="fill:#FFE1CC;" d="M371.696,421.575c4.253,0,8.164-1.451,11.275-3.884c-0.337-0.116-0.699-0.208-1.097-0.263
					l-3.832-0.82l0,0l-0.688-0.146c-1.051-0.225-1.82-1.133-1.87-2.205l-0.082-1.833l-0.053-1.162h-3.292h-0.288h-0.286h-3.292
					l-0.055,1.162l-0.083,1.833c-0.051,1.072-0.819,1.98-1.871,2.205l-0.687,0.146l0,0l-3.832,0.82
					c-0.437,0.06-0.835,0.163-1.197,0.295C363.568,420.136,367.463,421.575,371.696,421.575z"/>
				<path style="fill:#C9A693;" d="M375.411,412.683l-0.01-0.259l-0.053-1.162h-3.292h-0.288h-0.286h-3.292l-0.055,1.162
					l-0.012,0.289c0.824,0.807,2.018,1.559,3.635,1.559C373.376,414.275,374.573,413.527,375.411,412.683z"/>
				<path style="fill:#FF6D3A;" d="M371.696,421.575c4.257,0,8.171-1.455,11.283-3.89c-0.347-0.113-0.714-0.204-1.105-0.257
					l-3.832-0.82l0,0l-0.688-0.146c-0.044-0.011-0.088-0.019-0.132-0.033c-0.532-0.147-1.115-0.259-1.598,0.008l-3.866,2.129
					l-3.846-2.129c-0.483-0.267-1.066-0.155-1.598-0.008c-0.045,0.015-0.088,0.022-0.134,0.033l-0.686,0.146h-0.001l-3.832,0.82
					c-0.429,0.06-0.831,0.156-1.208,0.289C363.56,420.134,367.458,421.575,371.696,421.575z"/>
				<path style="fill:#FFFFFF;" d="M377.198,416.394l-1.021-1.122c-0.234-0.251-0.419-0.147-0.755,0.084l-3.449,2.72
					c-0.49,0.385-0.269,0.978,0.18,1.844l1.036,1.59c0.536-0.042,1.063-0.107,1.583-0.195l2.626-4.01
					C377.722,416.869,377.569,416.754,377.198,416.394z"/>
				<path style="fill:#FFFFFF;" d="M371.428,418.075l-3.449-2.72c-0.337-0.23-0.577-0.279-0.755-0.084l-1.021,1.122
					c-0.371,0.36-0.524,0.476-0.201,0.91l2.628,4.01c0.52,0.089,1.046,0.153,1.58,0.196l1.036-1.591
					C371.696,419.053,371.918,418.46,371.428,418.075z"/>
				<path style="fill:#FFE1CC;" d="M371.713,396.948l-5.494,0.022v10.022c0,0.538,0.322,2.132,0.712,2.781
					c0,0,1.469,3.328,4.783,3.328c3.542,0.003,4.966-3.769,4.966-3.769c0.244-0.578,0.51-2.007,0.526-2.341v-10.022L371.713,396.948
					z"/>
				<path style="fill:#17C5CC;" d="M365.749,404.997c0,0-0.271-2.732,1.53-3.875c1.6-1.013,3.362,0.443,5.3-2.318
					c0.846-1.207,1.419-1.792,1.932-0.299c0.76,2.213,2.227,2.912,3.742,2.611c1.108-0.218,0-4.254,0-4.254l-13.604-1.641
					L365.749,404.997z"/>
			</g>
		</g>
		<g>
			<path style="fill:#264059;" d="M367.248,292.861c-15.854,31.823-54.503,44.771-86.329,28.918
				c-31.823-15.854-44.769-54.504-28.917-86.327c15.855-31.824,54.503-44.77,86.327-28.918
				C370.153,222.388,383.099,261.038,367.248,292.861z"/>
			<path style="fill:#17C5CC;" d="M299.083,240.131c-5.482,0-12.979,0.745-12.979,9.516v4.319c0,4.553,2.291,5.912,6.08,8.439
				l3.632,2.42c1.894,1.262,3.042,3.404,3.042,5.682v12.222c0,2.047-7.634,13.355-9.08,14.805
				c-2.953,2.954-5.278,6.876-4.339,10.947c0.701,3.04,3.297,5.353,6.48,5.63c2.233,0.196,4.277-1.119,5.482-3.014
				c0.603-0.943,1.652-1.52,2.772-1.52h8.363c2.248,0,4.26-1.077,6.009-2.486c2.201-1.776,5.871-4.469,5.871-4.469l19.669-14.592
				c1.214-0.496,2.013-1.688,2.013-3c0-1.205-0.975-2.178-2.177-2.178h-2.383c-1.264,0-2.29-1.02-2.3-2.281l-0.156-18.698
				c-0.022-2.637-1.054-5.186-2.871-7.099c-1.783-1.879-4.315-2.787-6.885-3.107c-1.863-0.23-3.311-1.797-3.349-3.713l-0.013-1.35
				c-0.017-1.667-0.64-3.284-1.749-4.53c-1.091-1.232-2.667-1.942-4.311-1.942C315.905,240.131,304.564,240.131,299.083,240.131z"/>
			<path style="fill:#17C5CC;" d="M252.154,276.769c0.692-2.021,6.198-7.783,6.198-7.783c2.633-3.868,3.672-8.636,2.888-13.251
				l-0.249-1.467c-0.227-1.335-1.39-2.317-2.745-2.317c-0.649,0-1.175-0.525-1.175-1.176v-5.045l3.526-8.297v-6.791
				c0-2.084-1.295-3.927-2.847-4.594c-2.141,2.924-4.077,6.053-5.748,9.404c-8.141,16.347-8.671,34.484-2.962,50.418
				L252.154,276.769z"/>
			<g>
				<path style="fill:#17C5CC;" d="M301.514,200.825l1.901-0.736c-12.847,1.258-25.135,6.354-35.126,14.714
					c0.815,0.661,1.836,0.787,2.877-0.068l6.435-5.298l13.065-2.071c0,0,6.277,4.288,7.494,4.288c1.34,0,5.158-3,7.427-4.588
					c2.562-1.793-0.732-5.093-3.859-5.093C301.312,201.973,300.507,201.208,301.514,200.825z"/>
				<path style="fill:#17C5CC;" d="M314.713,202.192c0.264,0.191,0.128,0.609-0.198,0.609h-0.831c-0.686,0-1.242,0.555-1.242,1.242
					c0,0.688,0.555,1.246,1.242,1.246h5.602l0.85-0.626c1.265-0.926,3.037-0.696,4.022,0.523c0.708,0.873,0.086,2.178-1.039,2.178
					h-3.374c-2.84,0-1.175,3.109,1.665,3.109h1.4c1.343,1.745,3.411,2.875,5.603,2.677c3.825-0.342,3.055-5.874,0.299-8.943
					l-1.865-2.078c-5.095-1.419-10.266-2.182-15.411-2.322L314.713,202.192z"/>
			</g>
			<path style="fill:#17C5CC;" d="M358.227,221.931c-1.433,0.411-3.014,0.145-4.239-0.811l-1.855-1.447
				c-1.55-1.21-3.813-0.105-3.813,1.86c0,1.338-1.083,2.422-2.421,2.422h-2.351l-1.747-2.55c-1.827-2.662-5.393-3.494-8.208-1.909
				l-2.327,1.308c-1.634,0.918-2.65,2.658-2.65,4.533c0,0.84-0.681,1.518-1.521,1.518h-5.115c-1.832,0-3.318,1.487-3.318,3.321
				c0,0.914-0.742,1.658-1.66,1.658h-1.035l-1.937-1.568c-1.322-1.07-3.266-0.83-4.286,0.532l-0.347,0.462
				c-0.905,1.205-0.933,2.863-0.069,4.1c0.868,1.238,2.433,1.796,3.891,1.385l6.617-1.867l2.559,1.865l2.243,4.056
				c0.217,0.395,0.123,0.889-0.222,1.175l-0.239,0.199c-0.549,0.456-0.689,1.248-0.331,1.864c0.347,0.594,1.104,0.798,1.699,0.46
				l0.928-0.529c1.131-0.643,1.573-2.049,1.016-3.223l-1.157-2.441c-0.223-0.468,0.001-1.03,0.486-1.215
				c0.523-0.203,1.121-0.013,1.429,0.459l2.477,3.756c0.538,0.821,1.459,1.313,2.436,1.313c1.019,0,2.008-0.348,2.801-0.982
				l1.365-1.091h1.284c2.106,0,4.018,1.271,4.834,3.217l0.389,0.93c0.455,1.084-0.34,2.284-1.521,2.284h-0.218l-2.392-1.316
				c-1.008-0.554-2.273-0.292-2.974,0.622c-0.625,0.817-0.336,1.998,0.598,2.434l0.534,0.251c0.712,0.33,1.168,1.053,1.164,1.841
				l-0.04,5.084v15.297c0,3.655,3.508,6.279,7.011,5.247l4.823-1.419c1.259-0.371,1.993-1.68,1.647-2.948
				c-0.342-1.254-1.646-1.979-2.891-1.614c-0.637,0.188-1.322-0.187-1.397-0.847l-0.473-4.071c-0.16-1.363,1.396-2.26,2.495-1.431
				l9.732,7.34v16.696c0,0.742,0.604,1.347,1.348,1.347c0.808,0,1.537-0.505,1.822-1.263l3.841-10.244
				c0.259-0.69,1.287-0.506,1.287,0.23v1.896c0,1.524,2.105,1.924,2.663,0.502l2.188-5.584
				C376.355,255.947,370.79,236.4,358.227,221.931z"/>
			<path style="fill:#17C5CC;" d="M321.595,305.775c-1.386,1.387,0.572,3.313,2.403,2.62l4.135-1.565
				c0.924-0.347,1.595-1.172,1.744-2.148c0.129-0.834-0.514-1.586-1.358-1.586h-0.348l-1.827,1.95h-4.019L321.595,305.775z"/>
		</g>
		<path style="fill:#264059;" d="M366.624,166.004c-0.965-4.665-5.096-8.169-10.047-8.169c-4.616,0-8.517,3.045-9.809,7.237
			c-3.401,0.031-6.199,2.564-6.655,5.848c-3.496,0.192-6.273,3.081-6.273,6.626c0,3.671,2.974,6.644,6.643,6.644
			c1.458,0,5.61,0,10.124,0v-4.851h-4.58l8.716-8.716l8.717,8.716h-4.579v4.851c2.597,0,4.752,0,5.854,0
			c5.075,0,9.189-4.115,9.189-9.192C373.925,170.57,370.794,166.876,366.624,166.004z"/>
	</g>
	<g>
		<path style="fill:#264059;" d="M663.07,130.331l0.026-5.363c0,0,12.835,0.374,11.829,11.918
			c-0.521,5.979-1.822,17.233-2.642,24.139c-0.999-1.078-4.311-1.123-4.315,2.556c-0.093,4.221,0,4.977,0,4.977h-0.17
			c-2.628,0.005-4.764-1.973-4.764-4.417v-26.424c-0.318-0.86-0.691-1.645-1.149-2.277
			C659.541,132.18,662.325,130.663,663.07,130.331z"/>
		<path style="fill:#264059;" d="M621.854,130.331l-0.026-5.363c0,0-12.835,0.374-11.827,11.918
			c0.52,5.979,1.854,17.513,2.671,24.418c0.986,8.771,4.724,7.244,4.724,7.244c2.635,0.002,4.496-1.964,4.496-4.408v-26.424
			c0.316-0.86,0.692-1.645,1.147-2.277C625.384,132.18,622.6,130.663,621.854,130.331z"/>
		<g>
			<path style="fill:#17C5CC;" d="M572.63,528.795l-26.559,5.606c-9.535,2.084-14.271,8.682-14.288,13.951l-0.006,2.813
				c0.18,1.649,1.723,5.474,4.188,5.263l25.729,0.087c3.875,0.015,7.199-0.937,10.584-1.845c0,0,7.201-2.464,8.798-2.842
				c3.02-0.704,8.761,1.803,8.751,4.771l13.19,0.039c2.876,0.01,3.773-0.649,3.781-2.93l0.07-26.301L572.63,528.795z"/>
			<path style="fill:#264059;" d="M531.781,548.992l-0.002,0.227c-0.011,4.889,0.455,7.2,4.185,7.21l67.781,0.211
				c2.877,0.01,3.045-0.898,3.056-4.021l0.007-3.396L531.781,548.992z"/>
		</g>
		<g>
			<g>
				<path style="fill:#264059;" d="M680.397,524.915l14.123,12.127c2.013,2.599,4.949,4.654,4.949,9.501c0,1.667,0,2.797,0,5.435
					c0,4.257-1.313,4.257-4.089,4.257h-24.935c-7.148,0-14.513-3.194-18.181-7.207c-2.474-2.724-2.279-5.812-2.279-10.998v-11.821
					L680.397,524.915z"/>
			</g>
			<g>
				<path style="fill:#264059;" d="M648.699,547.484c0,2.128,0.486,2.485,1.353,2.485h14.76v-23.762h-13.604
					c-2.219,0-2.508,0-2.508,4.145V547.484z"/>
			</g>
			<g>
				<path style="fill:#17C5CC;" d="M648.699,529.881c0-2.809,0.182-3.468,1.287-3.621v-0.052l32.135,0.144l12.888,6.878
					c3.637,2.318,4.455,7.015,4.455,10.905c-0.03,3.644-1.336,3.657-4.083,3.657h-22.747c-5.255,0-15.304-1.875-18.269-4.462
					l-5.666-4.023V529.881z"/>
			</g>
		</g>
		<g>
			<path style="fill:#FFE1CC;" d="M713.656,234.793c-1.731-8.614-8.821-15.402-17.854-17.081l-32.635-4.858
				c-2.886-0.448-5.134-3.417-5.176-6.515l-0.716-14.289h-16.624h-14.74l-0.73,14.902c-0.147,2.906-2.324,5.322-5.204,5.766
				l-32.222,4.994c-9.028,1.679-16.128,8.467-17.858,17.081l-3.678,78.811c-0.202,4.416,3.056,8.246,7.454,8.746l10.186,1.151
				l8.601-55.806c0.094-0.829,0.811-1.454,1.645-1.431c0.82,0.011,1.479,0.681,1.479,1.498v0.698l-0.182,77.916l2.468,0.062h43.459
				h0.895h45.746v-78.63c0-0.829,0.688-1.493,1.516-1.464c0.868,0.039,1.591,0.703,1.689,1.576l6.536,50.7l10.547-0.381
				c4.344-0.152,7.752-3.797,7.624-8.148L713.656,234.793z"/>
		</g>
		<g>
			<g>
				<path style="fill:#264059;" d="M642.008,333.558v-0.006l-0.145,0.006l-0.15-0.006v0.006l-46.309,0.295v12.525l-25.002,181.499
					c0,2.61,1.419,2.662,2.766,2.662l31.197-0.052c2.587-0.05,3.037-1.692,3.353-3.479l30.71-142.15
					c0.25-5.605,6.019-5.379,6.273,0.216l3.692,142.031c0,3.088,0.986,3.332,3.379,3.332l28.953-0.023
					c3.738-0.012,3.287-1.419,3.287-2.984l4.311-193.565h-0.132L642.008,333.558z"/>
			</g>
		</g>
		<g>
			<g>
				<path style="fill:#FF6D3A;" d="M620.328,212.718l-32.285,4.994c-9.043,1.679-17.342,7.048-18.375,19.361l-2.608,46.989h23.823
					l1.876-16.366c0.093-0.829,0.811-1.454,1.643-1.431c0.827,0.011,1.183,0.681,1.183,1.498l-1.014,80.544
					c-0.017,1.345,1.068,2.443,2.414,2.443h89.759c1.347,0,2.435-1.098,2.423-2.443l-0.721-80.498c0-0.829,0.687-1.493,1.517-1.464
					c0.868,0.039,0.798,0.703,0.897,1.576l1.833,16.141h23.562l-2.08-46.557c-0.585-11.009-8.842-18.115-17.89-19.794l-32.69-4.858
					c-1.6-0.249-3.981-1.287-4.926-2.679h-34.262C623.463,211.503,622.027,212.457,620.328,212.718z"/>
			</g>
		</g>
		<g>
			<path style="fill:#FFE1CC;" d="M673.014,214.276l-9.846-1.423c-2.886-0.448-5.134-3.417-5.176-6.515l-0.716-14.289h-16.624
				h-14.74l-0.73,14.902c-0.147,2.906-2.324,5.322-5.204,5.766l-9.004,1.322c13.695,2.381,10.893,27.919,30.845,27.919
				C661.491,241.959,663.662,213.95,673.014,214.276z"/>
		</g>
		<g style="opacity:0.2;">
			<path style="fill:#C9A693;" d="M657.276,192.05h-16.624h-14.74l-0.381,7.819l2.447,2.553c2.222,2.306,5.291,3.611,8.491,3.611
				H642l0,0h5.318c3.2,0,6.275-1.316,8.49-3.622l1.889-1.962L657.276,192.05z"/>
		</g>
		<g>
			<path style="fill:#FFE1CC;" d="M666.146,157.002l1.837,0.125c2.755,0.761,5.736,3.359,5.038,7.559
				c-0.633,3.818-0.933,4.144-1.71,8.876c-1.101,6.707-6.581,4.517-6.581,4.517L666.146,157.002z"/>
		</g>
		<g>
			<path style="fill:#FFE1CC;" d="M617.928,157.002l-1.833,0.125c-2.764,0.761-5.738,3.359-5.042,7.559
				c0.629,3.818,0.939,4.144,1.713,8.876c1.099,6.707,6.584,4.517,6.584,4.517L617.928,157.002z"/>
		</g>
		<g>
			<path style="fill:#FFE1CC;" d="M641.793,134.347v0.012l-24.965,0.104v47.52c0,3.212,1.253,6.31,3.478,8.626l7.673,7.995
				c2.222,2.3,5.291,3.615,8.491,3.615H642v-0.005h5.318c3.2,0,6.275-1.311,8.49-3.615l7.673-7.99
				c2.229-2.316,3.476-5.426,3.476-8.637v-47.51L641.793,134.347z"/>
		</g>
		<path style="fill:#06B5B5;" d="M631.721,112.982c0,0,24.72,0.226,32.424,0c6.423-0.189,14.028,6.399,8.251,17.191
			c-7.329,13.686-28.162,14.334-33.314,14.334c-7.818,0-17.248,0-17.248,0s-13.799,0.761-15.12,8.705c0,0-0.19-1.932-0.19-12.508
			c0-11.52,8.894-14.763,8.894-14.763s-5.227-1.15-8.894,4.232C606.523,130.174,609.352,112.982,631.721,112.982z"/>
		<path style="fill:#264059;" d="M654.555,180.857l-5.94-2.509c-4.654-2.375-7.251-2.504-13.138,0.043l-6.183,2.466
			c-2.569,1.112-4.342,3.394-4.747,5.997c-0.655,4.265,1.17,8.42,3.645,11.947l0,0c2.347,2.318,5.608,3.633,8.996,3.633h4.735h4.734
			c3.39,0,6.652-1.314,9-3.633l0,0c2.476-3.527,4.303-7.683,3.642-11.947C658.898,184.251,657.123,181.97,654.555,180.857z
			 M648.325,192.43h-6.4h-6.4c-3.02,0-5.367-3.242-4.153-5.868c0.809-1.758,1.822-2.3,3.772-3.042l6.781-2.567l6.784,2.567
			c1.947,0.742,2.961,1.284,3.772,3.042C653.692,189.188,651.351,192.43,648.325,192.43z"/>
		<g>
			<path style="opacity:0.73;fill:#FFFFFF;" d="M636.176,151.612l-16.448,11.418c0.964,0.61,2.2,1.02,3.751,1.02h9.853
				c3.485,0,5.913-2.854,5.913-5.412v-2.876C639.244,153.807,637.948,152.169,636.176,151.612z"/>
			<path style="fill:#264059;" d="M633.331,164.05h-9.853c-4.383,0-6.355-3.165-6.355-5.412v-2.876c0-2.41,1.959-4.369,4.369-4.369
				h13.388c2.405,0,4.364,1.959,4.364,4.369v2.876C639.244,161.196,636.816,164.05,633.331,164.05z M621.492,152.838
				c-1.612,0-2.921,1.312-2.921,2.924v2.876c0,1.648,1.521,3.967,4.907,3.967h9.853c2.877,0,4.467-2.346,4.467-3.967v-2.876
				c0-1.612-1.306-2.924-2.918-2.924H621.492z"/>
			<path style="opacity:0.73;fill:#FFFFFF;" d="M663.582,151.612L647.13,163.03c0.969,0.61,2.2,1.02,3.755,1.02h9.85
				c3.488,0,5.916-2.854,5.916-5.412v-2.876C666.65,153.807,665.35,152.169,663.582,151.612z"/>
			<path style="fill:#264059;" d="M660.734,164.05h-9.85c-4.386,0-6.355-3.165-6.355-5.412v-2.876c0-2.41,1.959-4.369,4.365-4.369
				h13.391c2.406,0,4.365,1.959,4.365,4.369v2.876C666.65,161.196,664.223,164.05,660.734,164.05z M648.894,152.838
				c-1.611,0-2.92,1.312-2.92,2.924v2.876c0,1.648,1.523,3.967,4.91,3.967h9.85c2.877,0,4.471-2.346,4.471-3.967v-2.876
				c0-1.612-1.312-2.924-2.92-2.924H648.894z"/>
			<rect x="638.652" y="156.876" style="fill:#264059;" width="6.512" height="1.713"/>
		</g>
		<g>
			<path style="fill:#264059;" d="M610.975,214.04l-9.63,1.421l93.065,141.904c1.398,2.131,4.159,2.911,6.466,1.826
				c2.127-1.001,2.875-3.648,1.586-5.614L610.975,214.04z"/>
			<g>
				<path style="fill:#17C5CC;" d="M692.92,352.095c-2.964-0.027-5.391,2.355-5.418,5.32l-1.182,43.478
					c-0.026,2.966,2.354,5.392,5.319,5.419l16.873,0.233c2.966,0.028,5.392-2.354,5.42-5.318l0.279-30.139
					c0.096-10.38-8.239-18.871-18.619-18.968L692.92,352.095z"/>
				<path style="fill:#06B5B5;" d="M695.593,352.12l-2.673-0.025c-0.647-0.006-1.266,0.109-1.842,0.313
					c-1.158,2.618-1.806,5.512-1.806,8.559c0,11.704,9.488,21.192,21.192,21.192c1.244,0,2.461-0.112,3.646-0.318l0.101-10.753
					C714.308,360.708,705.973,352.217,695.593,352.12z"/>
				<path style="fill:#FF6D3A;" d="M714.846,385.593c0,1.112-0.901,2.013-2.013,2.013c-1.112,0-2.013-0.9-2.013-2.013v-4.499
					c0-1.111,0.9-2.013,2.013-2.013c1.111,0,2.013,0.901,2.013,2.013V385.593z"/>
			</g>
		</g>
		<g>
			<g>
				<g>
					<path style="fill:#FFFFFF;" d="M699.284,334.573c2.352-0.005,4.273-1.889,4.273-4.239v-68.495c0-2.332-1.894-4.232-4.23-4.232
						l-114.748-0.153c-2.336,0-4.229,1.895-4.229,4.227v68.594c0,2.331,1.891,4.222,4.225,4.216
						C596.998,334.466,686.677,334.591,699.284,334.573z"/>
				</g>
			</g>
		</g>
		<g>
			<path style="fill:#FFE1CC;" d="M709.759,316.642c2.632,2.408,2.851,6.459,0.487,9.041l-5.918,6.498
				c-2.941,3.224-7.921,3.484-11.188,0.602l-12.902-11.418c0,0-10.679-9.658-4.835-16.14c0.318-0.352,0.616-0.67,0.888-0.975
				c1.94-2.122,5.127-0.353,7.287,1.611l14.646,13.393c0.734,0.67,1.873,0.635,2.532-0.09c0.666-0.727,0.603-1.851-0.135-2.532
				l-5.614-5.118c-1.274-1.168-1.371-3.133-0.233-4.382c1.15-1.253,3.118-1.327,4.396-0.159L709.759,316.642z"/>
		</g>
		<g>
			<path style="fill:#FFE1CC;" d="M572.967,316.211c-2.63,2.408-2.85,6.459-0.483,9.041l5.91,6.497
				c2.947,3.224,7.926,3.484,11.191,0.602l12.902-11.419c0,0,10.686-9.659,4.837-16.139c-0.323-0.352-0.615-0.67-0.891-0.977
				c-1.941-2.121-5.126-0.352-7.283,1.611l-14.653,13.393c-0.732,0.67-1.871,0.635-2.524-0.092c-0.667-0.726-0.604-1.849,0.133-2.53
				l5.609-5.119c1.274-1.168,1.379-3.133,0.236-4.381c-1.149-1.254-3.119-1.328-4.394-0.159L572.967,316.211z"/>
		</g>
		
			<ellipse transform="matrix(0.1597 -0.9872 0.9872 0.1597 246.3894 885.0903)" style="fill:#E0E0E0;" cx="643.109" cy="297.813" rx="8.837" ry="8.837"/>
	</g>
</g>
<g id="TXT">
	<g>
		<g>
			<path style="fill:#17C5CC;" d="M287.014,629.741h-17.428v17.48h-3.157V609.85h23.152v2.669h-19.995v14.554h17.428V629.741z"/>
			<path style="fill:#17C5CC;" d="M309.96,631.642h-10.857v15.58h-3.183V609.85h12.14c3.987,0,7.101,0.966,9.343,2.897
				c2.241,1.932,3.362,4.632,3.362,8.102c0,2.393-0.702,4.503-2.105,6.332c-1.403,1.828-3.285,3.094-5.647,3.794l9.343,15.913v0.334
				h-3.362L309.96,631.642z M299.103,628.972h9.676c2.652,0,4.783-0.754,6.391-2.262c1.608-1.508,2.413-3.463,2.413-5.861
				c0-2.639-0.838-4.688-2.515-6.145c-1.677-1.456-4.03-2.185-7.059-2.185h-8.906V628.972z"/>
			<path style="fill:#17C5CC;" d="M350.001,629.306h-17.479v15.246h20.097v2.67h-23.254V609.85h23.126v2.669h-19.969v14.117h17.479
				V629.306z"/>
			<path style="fill:#17C5CC;" d="M379.903,629.306h-17.479v15.246h20.097v2.67h-23.254V609.85h23.126v2.669h-19.969v14.117h17.479
				V629.306z"/>
			<path style="fill:#17C5CC;" d="M392.352,644.552h18.455v2.67h-21.638V609.85h3.183V644.552z"/>
			<path style="fill:#17C5CC;" d="M437.525,636.724H420.56l-3.85,10.498h-3.311l14.142-37.372h3.004l14.143,37.372h-3.285
				L437.525,636.724z M421.536,634.054h14.99L429.03,613.7L421.536,634.054z"/>
			<path style="fill:#17C5CC;" d="M478.003,647.222h-3.157l-21.483-31.982v31.982h-3.183V609.85h3.183l21.509,32.007V609.85h3.132
				V647.222z"/>
			<path style="fill:#17C5CC;" d="M513.963,635.568c-0.428,3.936-1.835,6.947-4.223,9.034c-2.387,2.088-5.565,3.132-9.535,3.132
				c-2.771,0-5.223-0.692-7.353-2.079c-2.131-1.386-3.777-3.35-4.941-5.891c-1.163-2.541-1.754-5.445-1.771-8.714V626.2
				c0-3.32,0.581-6.264,1.745-8.83c1.164-2.566,2.836-4.547,5.017-5.941c2.183-1.395,4.693-2.092,7.534-2.092
				c4.004,0,7.165,1.078,9.483,3.233c2.318,2.156,3.666,5.143,4.043,8.958h-3.183c-0.787-6.348-4.235-9.522-10.344-9.522
				c-3.388,0-6.088,1.267-8.099,3.802c-2.01,2.535-3.016,6.037-3.016,10.506v4.572c0,4.315,0.979,7.758,2.939,10.326
				c1.959,2.568,4.607,3.854,7.943,3.854c3.303,0,5.792-0.791,7.469-2.375c1.678-1.582,2.713-3.956,3.106-7.122H513.963z"/>
			<path style="fill:#17C5CC;" d="M542.273,629.306h-17.479v15.246h20.097v2.67h-23.255V609.85h23.127v2.669h-19.969v14.117h17.479
				V629.306z"/>
			<path style="fill:#17C5CC;" d="M565.502,631.642h-10.858v15.58h-3.182V609.85h12.14c3.987,0,7.101,0.966,9.343,2.897
				c2.242,1.932,3.363,4.632,3.363,8.102c0,2.393-0.703,4.503-2.106,6.332c-1.403,1.828-3.285,3.094-5.646,3.794l9.343,15.913v0.334
				h-3.362L565.502,631.642z M554.644,628.972h9.677c2.652,0,4.782-0.754,6.392-2.262c1.607-1.508,2.412-3.463,2.412-5.861
				c0-2.639-0.838-4.688-2.516-6.145c-1.677-1.456-4.029-2.185-7.059-2.185h-8.906V628.972z"/>
		</g>
	</g>
	<g>
		<path style="fill:#78977F;" d="M302.54,678.36l0.257,1.33l0.343-1.401l3.719-11.843h1.458l3.676,11.742l0.4,1.631l0.329-1.502
			l3.175-11.871h1.774l-4.506,15.477h-1.459l-3.977-12.273l-0.185-0.844l-0.186,0.858l-3.905,12.259h-1.459l-4.492-15.477h1.76
			L302.54,678.36z"/>
		<path style="fill:#78977F;" d="M319.976,673.955c0-1.487,0.288-2.827,0.866-4.018c0.577-1.192,1.392-2.119,2.446-2.783
			c1.054-0.662,2.248-0.994,3.583-0.994c2.06,0,3.728,0.723,5.006,2.168c1.277,1.444,1.916,3.359,1.916,5.742v0.357
			c0,1.498-0.289,2.845-0.865,4.041c-0.577,1.197-1.39,2.119-2.439,2.768c-1.049,0.648-2.246,0.973-3.59,0.973
			c-2.051,0-3.717-0.722-4.999-2.166c-1.282-1.445-1.924-3.359-1.924-5.744V673.955z M321.693,674.427
			c0,1.851,0.479,3.369,1.438,4.557c0.958,1.188,2.214,1.78,3.769,1.78c1.544,0,2.796-0.593,3.754-1.78
			c0.959-1.188,1.438-2.754,1.438-4.699v-0.329c0-1.183-0.219-2.265-0.658-3.247c-0.439-0.981-1.054-1.742-1.845-2.281
			c-0.791-0.539-1.698-0.809-2.718-0.809c-1.526,0-2.77,0.6-3.733,1.796c-0.963,1.196-1.444,2.763-1.444,4.698V674.427z"/>
		<path style="fill:#78977F;" d="M344.478,667.905c-0.363-0.066-0.749-0.101-1.159-0.101c-1.068,0-1.972,0.298-2.71,0.894
			c-0.739,0.597-1.266,1.462-1.581,2.597v10.628h-1.702v-15.477H339l0.029,2.46c0.906-1.831,2.36-2.747,4.362-2.747
			c0.477,0,0.854,0.063,1.13,0.187L344.478,667.905z"/>
		<path style="fill:#78977F;" d="M350.857,674.127l-1.96,1.888v5.908h-1.716v-21.971h1.716v14.06l1.616-1.745l5.922-5.821h2.16
			l-6.565,6.521l7.138,8.955h-2.045L350.857,674.127z"/>
		<path style="fill:#78977F;" d="M372.356,678.36l0.257,1.33l0.343-1.401l3.719-11.843h1.458l3.676,11.742l0.4,1.631l0.329-1.502
			l3.175-11.871h1.774l-4.506,15.477h-1.459l-3.977-12.273l-0.186-0.844l-0.186,0.858l-3.905,12.259h-1.459l-4.492-15.477h1.76
			L372.356,678.36z"/>
		<path style="fill:#78977F;" d="M392.438,669.063c0.563-0.925,1.282-1.641,2.16-2.145c0.878-0.505,1.836-0.759,2.875-0.759
			c1.659,0,2.894,0.468,3.705,1.402c0.811,0.935,1.221,2.336,1.23,4.205v10.156h-1.702v-10.17c-0.009-1.383-0.303-2.412-0.879-3.09
			c-0.577-0.678-1.5-1.016-2.768-1.016c-1.059,0-1.996,0.332-2.811,0.994c-0.815,0.662-1.418,1.557-1.809,2.682v10.6h-1.702v-21.971
			h1.702V669.063z"/>
		<path style="fill:#78977F;" d="M412.807,682.208c-1.316,0-2.506-0.324-3.569-0.973c-1.064-0.648-1.891-1.551-2.482-2.71
			c-0.591-1.159-0.887-2.458-0.887-3.897v-0.615c0-1.488,0.289-2.827,0.866-4.019c0.577-1.191,1.38-2.129,2.41-2.811
			c1.03-0.682,2.146-1.023,3.347-1.023c1.878,0,3.369,0.643,4.47,1.924c1.101,1.283,1.652,3.035,1.652,5.258v0.957h-11.043v0.33
			c0,1.754,0.503,3.216,1.509,4.384c1.006,1.168,2.272,1.752,3.797,1.752c0.916,0,1.724-0.167,2.425-0.501
			c0.701-0.333,1.337-0.867,1.909-1.602l1.073,0.815C417.026,681.298,415.2,682.208,412.807,682.208z M412.492,667.618
			c-1.287,0-2.372,0.473-3.254,1.416c-0.882,0.945-1.419,2.213-1.609,3.806h9.283v-0.187c-0.048-1.487-0.472-2.698-1.273-3.633
			C414.838,668.086,413.789,667.618,412.492,667.618z"/>
		<path style="fill:#78977F;" d="M429.098,667.905c-0.362-0.066-0.748-0.101-1.158-0.101c-1.068,0-1.972,0.298-2.711,0.894
			c-0.738,0.597-1.266,1.462-1.58,2.597v10.628h-1.702v-15.477h1.673l0.029,2.46c0.906-1.831,2.359-2.747,4.362-2.747
			c0.478,0,0.854,0.063,1.13,0.187L429.098,667.905z"/>
		<path style="fill:#78977F;" d="M437.523,682.208c-1.316,0-2.506-0.324-3.569-0.973c-1.064-0.648-1.891-1.551-2.481-2.71
			c-0.592-1.159-0.887-2.458-0.887-3.897v-0.615c0-1.488,0.288-2.827,0.865-4.019c0.576-1.191,1.381-2.129,2.41-2.811
			c1.029-0.682,2.145-1.023,3.347-1.023c1.878,0,3.368,0.643,4.47,1.924c1.102,1.283,1.652,3.035,1.652,5.258v0.957h-11.043v0.33
			c0,1.754,0.504,3.216,1.51,4.384c1.006,1.168,2.272,1.752,3.797,1.752c0.916,0,1.725-0.167,2.426-0.501
			c0.7-0.333,1.337-0.867,1.908-1.602l1.073,0.815C441.742,681.298,439.916,682.208,437.523,682.208z M437.208,667.618
			c-1.287,0-2.372,0.473-3.254,1.416c-0.882,0.945-1.419,2.213-1.608,3.806h9.282v-0.187c-0.048-1.487-0.472-2.698-1.272-3.633
			C439.555,668.086,438.505,667.618,437.208,667.618z"/>
		<path style="fill:#78977F;" d="M458.692,679.462l4.52-13.016h1.845l-6.607,18.107l-0.344,0.801
			c-0.849,1.879-2.16,2.818-3.934,2.818c-0.41,0-0.849-0.066-1.315-0.2l-0.015-1.416l0.887,0.086c0.84,0,1.519-0.208,2.039-0.622
			c0.52-0.415,0.96-1.128,1.322-2.139l0.758-2.088l-5.836-15.348h1.875L458.692,679.462z"/>
		<path style="fill:#78977F;" d="M466.545,673.955c0-1.487,0.288-2.827,0.865-4.018c0.576-1.192,1.392-2.119,2.445-2.783
			c1.055-0.662,2.248-0.994,3.584-0.994c2.059,0,3.729,0.723,5.006,2.168c1.277,1.444,1.916,3.359,1.916,5.742v0.357
			c0,1.498-0.288,2.845-0.865,4.041c-0.576,1.197-1.39,2.119-2.439,2.768c-1.049,0.648-2.245,0.973-3.59,0.973
			c-2.051,0-3.717-0.722-4.999-2.166c-1.283-1.445-1.924-3.359-1.924-5.744V673.955z M468.262,674.427
			c0,1.851,0.478,3.369,1.438,4.557c0.957,1.188,2.214,1.78,3.769,1.78c1.544,0,2.796-0.593,3.755-1.78
			c0.958-1.188,1.438-2.754,1.438-4.699v-0.329c0-1.183-0.22-2.265-0.658-3.247c-0.44-0.981-1.054-1.742-1.846-2.281
			c-0.791-0.539-1.697-0.809-2.717-0.809c-1.526,0-2.771,0.6-3.734,1.796c-0.963,1.196-1.443,2.763-1.443,4.698V674.427z"/>
		<path style="fill:#78977F;" d="M493.85,679.963c-1.029,1.497-2.674,2.245-4.934,2.245c-1.65,0-2.904-0.479-3.762-1.438
			c-0.859-0.958-1.297-2.376-1.316-4.255v-10.069h1.702v9.856c0,2.945,1.192,4.419,3.575,4.419c2.48,0,4.049-1.024,4.707-3.075
			v-11.199h1.716v15.477h-1.659L493.85,679.963z"/>
		<path style="fill:#78977F;" d="M516.879,681.923c-0.172-0.486-0.281-1.207-0.329-2.16c-0.601,0.781-1.366,1.385-2.296,1.809
			c-0.93,0.425-1.914,0.637-2.953,0.637c-1.488,0-2.691-0.414-3.612-1.244c-0.921-0.83-1.38-1.879-1.38-3.147
			c0-1.507,0.627-2.699,1.881-3.576c1.254-0.877,3.001-1.316,5.242-1.316h3.104v-1.759c0-1.107-0.341-1.976-1.023-2.61
			c-0.683-0.634-1.677-0.951-2.982-0.951c-1.192,0-2.179,0.305-2.961,0.916c-0.782,0.609-1.173,1.344-1.173,2.202l-1.717-0.015
			c0-1.229,0.572-2.295,1.717-3.196c1.145-0.901,2.551-1.353,4.22-1.353c1.726,0,3.087,0.432,4.083,1.295
			c0.997,0.863,1.51,2.066,1.538,3.611v7.324c0,1.497,0.157,2.617,0.472,3.361v0.172H516.879z M511.5,680.692
			c1.144,0,2.168-0.276,3.068-0.83c0.901-0.553,1.557-1.291,1.967-2.217v-3.404h-3.061c-1.707,0.02-3.042,0.332-4.006,0.938
			c-0.963,0.605-1.443,1.438-1.443,2.496c0,0.867,0.321,1.587,0.965,2.159C509.634,680.406,510.471,680.692,511.5,680.692z"/>
		<path style="fill:#78977F;" d="M529.953,667.905c-0.363-0.066-0.75-0.101-1.159-0.101c-1.068,0-1.972,0.298-2.71,0.894
			c-0.74,0.597-1.267,1.462-1.581,2.597v10.628h-1.702v-15.477h1.674l0.028,2.46c0.905-1.831,2.36-2.747,4.362-2.747
			c0.477,0,0.854,0.063,1.131,0.187L529.953,667.905z"/>
		<path style="fill:#78977F;" d="M538.377,682.208c-1.317,0-2.506-0.324-3.568-0.973c-1.065-0.648-1.891-1.551-2.482-2.71
			c-0.591-1.159-0.887-2.458-0.887-3.897v-0.615c0-1.488,0.289-2.827,0.865-4.019c0.577-1.191,1.381-2.129,2.41-2.811
			c1.03-0.682,2.146-1.023,3.348-1.023c1.878,0,3.368,0.643,4.47,1.924c1.101,1.283,1.651,3.035,1.651,5.258v0.957h-11.042v0.33
			c0,1.754,0.503,3.216,1.509,4.384c1.006,1.168,2.273,1.752,3.798,1.752c0.915,0,1.724-0.167,2.425-0.501
			c0.701-0.333,1.338-0.867,1.909-1.602l1.073,0.815C542.596,681.298,540.769,682.208,538.377,682.208z M538.063,667.618
			c-1.287,0-2.373,0.473-3.254,1.416c-0.883,0.945-1.419,2.213-1.609,3.806h9.283v-0.187c-0.049-1.487-0.473-2.698-1.273-3.633
			C540.408,668.086,539.359,667.618,538.063,667.618z"/>
	</g>
</g>
</svg>
